<?xml version="1.0" standalone="no"?>
<!DOCTYPE svg PUBLIC "-//W3C//DTD SVG 1.1//EN" "http://www.w3.org/Graphics/SVG/1.1/DTD/svg11.dtd" >
<svg>
<metadata>
Created by FontForge 20090914 at Sun Jan 22 17:32:35 2023
 By www-data
Copyright (c) 2020 by Kong font. All rights reserved.
</metadata>
<defs>
<font id="Eastwood" horiz-adv-x="281" >
  <font-face 
    font-family="Eastwood"
    font-weight="400"
    font-stretch="normal"
    units-per-em="1000"
    panose-1="0 0 0 0 0 0 0 0 0 0"
    ascent="800"
    descent="-200"
    x-height="544.499"
    cap-height="698.002"
    bbox="-328.003 -250 1256.24 882"
    underline-thickness="50"
    underline-position="-75"
    unicode-range="U+0020-U+20AC"
  />
<missing-glyph horiz-adv-x="283" 
 />
    <glyph glyph-name="o_o" unicode="oo" horiz-adv-x="864" 
d="M839 261c0 -45.333 -5.66797 -85.5 -17.001 -120.5s-27.333 -64.5 -48 -88.5s-45.834 -42.333 -75.501 -55s-62.5 -19 -98.5 -19c-38.667 0.666992 -73.167 7.66699 -103.5 21s-55.833 33.333 -76.5 60c-21.333 -26.667 -47.166 -46.667 -77.499 -60
s-64.5 -20.333 -102.5 -21c-36.667 0 -69.667 6.33301 -99 19s-54.5 31 -75.5 55s-37.167 53.5 -48.5 88.5s-17 75.167 -17 120.5v1c0 45.333 5.66699 85.5 17 120.5s27.5 64.5 48.5 88.5s46.167 42.333 75.5 55s62.333 19 99 19c76.667 0 136.667 -26.667 180 -80
c42 53.333 102 80 180 80c36 0 68.833 -6.33301 98.5 -19s54.834 -31 75.501 -55s36.667 -53.5 48 -88.5s17 -75.167 17 -120.5v-1zM239.999 19c20 0 37.5 5.83301 52.5 17.5s27.5 28.334 37.5 50.001s17.5 47.334 22.5 77.001s7.5 62.5 7.5 98.5s-2.5 68.833 -7.5 98.5
s-12.5 55.167 -22.5 76.5s-22.5 37.833 -37.5 49.5s-32.5 17.5 -52.5 17.5s-37.5 -5.83301 -52.5 -17.5s-27.667 -28.167 -38 -49.5s-18 -46.833 -23 -76.5s-7.5 -62.5 -7.5 -98.5s2.5 -68.833 7.5 -98.5s12.5 -55.334 22.5 -77.001s22.5 -38.334 37.5 -50.001
s32.833 -17.5 53.5 -17.5zM599.999 19c20 0 37.5 5.83301 52.5 17.5s27.5 28.334 37.5 50.001s17.5 47.334 22.5 77.001s7.5 62.5 7.5 98.5s-2.5 68.833 -7.5 98.5s-12.5 55.167 -22.5 76.5s-22.5 37.833 -37.5 49.5s-32.5 17.5 -52.5 17.5s-37.5 -5.83301 -52.5 -17.5
s-27.667 -28.167 -38 -49.5s-18 -46.833 -23 -76.5s-7.5 -62.5 -7.5 -98.5s2.5 -68.833 7.5 -98.5s12.5 -55.334 22.5 -77.001s22.5 -38.334 37.5 -50.001s32.833 -17.5 53.5 -17.5z" />
    <glyph glyph-name="s_s" unicode="ss" horiz-adv-x="786" 
d="M450 450c-2 -20 4.1709 -38.167 18.5039 -54.5s32.833 -31.833 55.5 -46.5s47.5 -29.167 74.5 -43.5s52.167 -29.666 75.5 -45.999s42.833 -34.166 58.5 -53.499s23.5 -41.666 23.5 -66.999c0 -26 -6.16699 -49.167 -18.5 -69.5s-28.5 -37.166 -48.5 -50.499
s-42.833 -23.5 -68.5 -30.5s-51.834 -10.5 -78.501 -10.5c-38.667 0 -71.834 4.16699 -99.501 12.5s-50.167 19.166 -67.5 32.499c-20.667 -15.333 -44.167 -26.666 -70.5 -33.999s-53.5 -11 -81.5 -11c-46.667 0 -85.167 5.83301 -115.5 17.5s-54 26.167 -71 43.5
s-27.833 36 -32.5 56s-4.33398 38.667 0.999023 56s15 31.833 29 43.5s31.333 17.5 52 17.5c14.667 0 26.334 -4.16699 35.001 -12.5s14.667 -15.833 18 -22.5c0 -1.33301 -0.333008 -2 -1 -2c-15.333 -4.66699 -26.333 -13.334 -33 -26.001s-10 -26.667 -10 -42
c0 -18 5.5 -33.5 16.5 -46.5s24.833 -23 41.5 -30s34.667 -11 54 -12s37.333 1.5 54 7.5s30.5 15.667 41.5 29s16.5 30.333 16.5 51c0 18.667 -7.16699 35.334 -21.5 50.001s-32.333 28.667 -54 42s-45 26.5 -70 39.5s-48.333 27.333 -70 43s-39.667 33 -54 52
s-21.5 41.5 -21.5 67.5s5.33301 48.333 16 67s24.834 34 42.501 46s37.5 21 59.5 27s44 9 66 9s41.5 -2.16699 58.5 -6.5s32.167 -9.5 45.5 -15.5s25.166 -12.167 35.499 -18.5s20.166 -11.833 29.499 -16.5c18 19.333 40.5 33.666 67.5 42.999s54.5 14 82.5 14
c31.333 0 57.5 -3.83301 78.5 -11.5s39.333 -16 55 -25l41 -23c11.667 -6.33301 24.167 -8.5 37.5 -6.5c3.33301 0.666992 6.16602 1.16699 8.49902 1.5s4.5 1.16602 6.5 2.49902c1.33301 1.33301 2 0.666016 2 -2.00098s-0.5 -6.66699 -1.5 -12
s-3.16699 -10.833 -6.5 -16.5s-7.83301 -10.334 -13.5 -14.001s-12.834 -5.16699 -21.501 -4.5c2.66699 -12 2.33398 -22.833 -0.999023 -32.5s-9 -17.667 -17 -24s-17.333 -10.833 -28 -13.5s-22 -2.66699 -34 0c-2 1.33301 -2.66699 2.66602 -2 3.99902
c6.66699 13.333 9.66699 27.833 9 43.5s-5.16699 30.334 -13.5 44.001s-20.833 25.167 -37.5 34.5s-37.334 14 -62.001 14c-21.333 0 -39.666 -4.83301 -54.999 -14.5s-24 -24.167 -26 -43.5zM422.004 75c9.33301 -20 25.832 -34.835 49.499 -44.502
s47.834 -13.667 72.501 -12s46.5 9.66699 65.5 24s28.5 35.5 28.5 63.5c0 17.333 -6.16699 32.833 -18.5 46.5s-28.166 26.667 -47.499 39s-40.5 24.5 -63.5 36.5s-45.167 24.833 -66.5 38.5s-40.333 28.667 -57 45s-28 35.166 -34 56.499c-10 -2 -21.333 -2 -34 0
c-1.33301 1.33301 -1.66602 2.66602 -0.999023 3.99902c6.66699 13.333 9.66699 27.833 9 43.5s-5.16699 30.334 -13.5 44.001s-20.833 25.167 -37.5 34.5s-37.334 14 -62.001 14c-22 0 -40.5 -4.83301 -55.5 -14.5s-23.5 -24.167 -25.5 -43.5
c-2 -20 4.16699 -38.167 18.5 -54.5s32.833 -31.833 55.5 -46.5s47.5 -29.167 74.5 -43.5s52.167 -29.666 75.5 -45.999s42.833 -34.166 58.5 -53.499s23.5 -41.666 23.5 -66.999c0 -12 -1.33301 -23.333 -4 -34s-6.33398 -20.667 -11.001 -30z" />
    <glyph glyph-name="t_t" unicode="tt" horiz-adv-x="923" 
d="M896 562c3.33301 -14 1.99121 -24.834 -4.00879 -32.501s-13 -13.5 -21 -17.5c-9.33301 -4.66699 -20.666 -7.66699 -33.999 -9c6 -7.33301 11 -14.333 15 -21c6.66699 -12.667 8.83398 -25.334 6.50098 -38.001s-7.5 -23.667 -15.5 -33s-18.167 -15.833 -30.5 -19.5
s-25.166 -2.83398 -38.499 2.49902c4.66699 9.33301 7.5 20.333 8.5 33s-1.16699 24.834 -6.5 36.501s-14.166 21.5 -26.499 29.5s-29.5 12 -51.5 12c-10.667 0 -19 -1.5 -25 -4.5s-10.667 -7.16699 -14 -12.5s-5.5 -11.5 -6.5 -18.5s-1.5 -14.5 -1.5 -22.5v-368
c0 -3.33301 0.5 -8.5 1.5 -15.5s3.5 -14 7.5 -21s10.333 -13.333 19 -19s20.667 -8.83398 36 -9.50098c2.66699 -1.33301 3.33398 -2.66602 2.00098 -3.99902c-5.33301 -8.66699 -14.333 -16.167 -27 -22.5s-26.667 -9.5 -42 -9.5c-20.667 0 -39 6.66699 -55 20l-3 3l-3 -3
c-8.66699 -7.33301 -17.5 -12.5 -26.5 -15.5s-18.167 -4.5 -27.5 -4.5c-15.333 0 -29.5 3.16699 -42.5 9.5s-22.167 13.833 -27.5 22.5c-1.33301 1.33301 -0.333008 2.66602 3 3.99902c14.667 0.666992 26.334 3.83398 35.001 9.50098s15 12 19 19s6.5 14 7.5 21
s1.5 12.167 1.5 15.5v368c0 16 -2.5 29.667 -7.5 41s-17.833 17 -38.5 17h-67c-10.667 0 -19 -1.5 -25 -4.5s-10.667 -7.16699 -14 -12.5s-5.5 -11.5 -6.5 -18.5s-1.5 -14.5 -1.5 -22.5v-368c0 -3.33301 0.5 -8.5 1.5 -15.5s3.5 -14 7.5 -21s10.333 -13.333 19 -19
s20.667 -8.83398 36 -9.50098c2.66699 -1.33301 3.33398 -2.66602 2.00098 -3.99902c-5.33301 -8.66699 -14.333 -16.167 -27 -22.5s-26.667 -9.5 -42 -9.5c-9.33301 0 -18.666 1.5 -27.999 4.5s-18 8.16699 -26 15.5c-1.33301 0.666992 -2.66602 1.66699 -3.99902 3l-3 -3
c-8 -7.33301 -16.667 -12.5 -26 -15.5s-18.666 -4.5 -27.999 -4.5c-15.333 0 -29.333 3.16699 -42 9.5s-21.667 13.833 -27 22.5c-2 0.666992 -1.33301 2 2 4c15.333 0.666992 27.333 3.83398 36 9.50098s15 12 19 19s6.5 14 7.5 21s1.5 12.167 1.5 15.5v368
c0 8 -0.5 15.5 -1.5 22.5s-3.16699 13.167 -6.5 18.5s-8 9.5 -14 12.5s-14.333 4.5 -25 4.5c-22 0 -39.167 -4 -51.5 -12s-21.166 -17.833 -26.499 -29.5s-7.5 -23.834 -6.5 -36.501s3.83301 -23.667 8.5 -33c-13.333 -5.33301 -26.333 -6.16602 -39 -2.49902
s-23 10.167 -31 19.5s-13.167 20.333 -15.5 33s0.166992 25.334 7.5 38.001l6.5 10.5c2.33301 3.66699 4.83301 7.16699 7.5 10.5c-13.333 1.33301 -24.666 4.33301 -33.999 9c-8 4 -15 9.83301 -21 17.5s-7.33301 18.5 -4 32.5c7.33301 -3.33301 16.333 -6.33301 27 -9
c9.33301 -2 20.833 -3.83301 34.5 -5.5s29.834 -2.5 48.501 -2.5h144c17.333 0 33.666 -6.66699 48.999 -20l3 -3c1.33301 1.33301 2.66602 2.33301 3.99902 3c15.333 13.333 31.666 20 48.999 20h177c17.333 0 33.666 -6.66699 48.999 -20l3 -3l3 3
c16.667 13.333 33.334 20 50.001 20h144c18.667 0 34.667 0.833008 48 2.5s24.666 3.5 33.999 5.5c10.667 2.66699 19.667 5.66699 27 9z" />
    <glyph glyph-name=".notdef" horiz-adv-x="283" 
 />
    <glyph glyph-name="space" unicode=" " horiz-adv-x="283" 
 />
    <glyph glyph-name="space" unicode="&#xa0;" horiz-adv-x="283" 
 />
    <glyph glyph-name="exclam" unicode="!" 
d="M128 -50c16 0 29.833 -5.66699 41.5 -17s17.5 -25.333 17.5 -42c0 -16 -5.83301 -29.667 -17.5 -41s-25.5 -17 -41.5 -17s-29.667 5.66699 -41 17s-17 25 -17 41c0 16.667 5.66699 30.667 17 42s25 17 41 17zM255 668
c1.33301 -2.66699 0.331055 -4.00098 -3.00195 -4.00098c-15.333 -0.666992 -27.166 -3.83398 -35.499 -9.50098s-14.5 -12 -18.5 -19s-6.5 -14 -7.5 -21s-1.5 -12.167 -1.5 -15.5l-38 -600c0 -5.33301 -2.16699 -10.166 -6.5 -14.499s-9.5 -6.5 -15.5 -6.5
s-11.167 2 -15.5 6s-6.5 9 -6.5 15l-40 600c0 3.33301 -0.5 8.5 -1.5 15.5s-3.5 14 -7.5 21s-10.333 13.333 -19 19s-20.334 8.83398 -35.001 9.50098c-3.33301 0 -4.33301 1.33301 -3 4c4 6.66699 10.667 12.834 20 18.501s19.833 9.5 31.5 11.5
s23.834 1.83301 36.501 -0.5s24.667 -8.5 36 -18.5l3 -3l3 3c11.333 10 23.333 16.167 36 18.5s24.834 2.5 36.501 0.5s22.167 -5.83301 31.5 -11.5s16 -11.834 20 -18.501z" />
    <glyph glyph-name="numbersign" unicode="#" horiz-adv-x="1049" 
d="M1006 495c6 0 10.667 -2.5 14 -7.5s4.33301 -10.167 3 -15.5l-22 -72c-2 -8 -7.66699 -12 -17 -12h-220l-66 -221h210c6 0 10.667 -2.5 14 -7.5s4.33301 -10.167 3 -15.5l-22 -72c-2 -8 -7.66699 -12 -17 -12h-220l-64 -215c-3.33301 -8 -9 -12 -17 -12h-75
c-6 0 -10.833 2.33301 -14.5 7s-4.5 10 -2.5 16l61 204h-192l-64 -215c-3.33301 -8 -9 -12 -17 -12h-75c-6 0 -10.833 2.33301 -14.5 7s-4.5 10 -2.5 16l61 204h-232c-6 0 -10.667 2.5 -14 7.5s-4.33301 10.167 -3 15.5l22 71c2 8.66699 7.66699 13 17 13h242l66 221h-232
c-6 0 -10.667 2.5 -14 7.5s-4.33301 10.167 -3 15.5l22 71c2 8.66699 7.66699 13 17 13h242l58 192c2 8.66699 7.66699 13 17 13h74c6 0 10.833 -2.33301 14.5 -7s4.5 -10 2.5 -16l-54 -182h192l58 192c2 8.66699 7.66699 13 17 13h74c6 0 10.833 -2.33301 14.5 -7
s4.5 -10 2.5 -16l-54 -182h210zM652 388h-192l-66 -221h192z" />
    <glyph glyph-name="dollar" unicode="$" horiz-adv-x="542" 
d="M286 346c28 -12.667 56.1641 -26.332 84.4971 -40.999s53.833 -31.5 76.5 -50.5s40.5 -40.833 53.5 -65.5s18.167 -53.334 15.5 -86.001c-2 -28 -9.83301 -52.5 -23.5 -73.5s-31 -38.5 -52 -52.5s-44.833 -24.667 -71.5 -32s-54.334 -11.333 -83.001 -12
c0 -3.33301 0.166992 -8.5 0.5 -15.5s1.5 -14 3.5 -21s4.83301 -13.333 8.5 -19s8.83398 -8.83398 15.501 -9.50098c0.666992 0 1 -1 1 -3c-2 -6.66699 -5 -12.834 -9 -18.501s-8.66699 -9.66699 -14 -12s-10.833 -2.33301 -16.5 0s-10.834 8.5 -15.501 18.5
c0 0.666992 -0.166992 1.16699 -0.5 1.5s-0.5 0.833008 -0.5 1.5c0 -0.666992 -0.666992 -1.66699 -2 -3c-4.66699 -10 -9.83398 -16.167 -15.501 -18.5s-11 -2.33301 -16 0s-9.5 6.33301 -13.5 12s-7 11.834 -9 18.501c0 2 0.333008 3 1 3
c6.66699 0.666992 11.834 4 15.501 10s6.5 12.5 8.5 19.5s3.16699 14 3.5 21s0.5 12.167 0.5 15.5v1c-51.333 4 -93.5 14.167 -126.5 30.5s-58 35.333 -75 57s-26.667 44 -29 67s1.5 43.167 11.5 60.5s25.5 29.833 46.5 37.5s46.167 7.16699 75.5 -1.5
c2.66699 -1.33301 3.66699 -3.33301 3 -6c-14 -22 -22.333 -44.167 -25 -66.5s0 -43 8 -62s21.333 -35.5 40 -49.5s42.334 -23.667 71.001 -29v193v13v48c-25.333 11.333 -50.166 23.166 -74.499 35.499s-46.166 26.333 -65.499 42s-34.833 33.334 -46.5 53.001
s-17.167 42.167 -16.5 67.5c1.33301 50 20.166 90.833 56.499 122.5s85.166 49.834 146.499 54.501c0 4 -0.333008 9.33301 -1 16s-2 13.334 -4 20.001s-4.83301 12.5 -8.5 17.5s-8.5 7.83301 -14.5 8.5c-0.666992 0 -1 1.33301 -1 4c2 6.66699 5 12.834 9 18.501
s8.5 9.5 13.5 11.5s10.333 1.83301 16 -0.5s10.834 -8.5 15.501 -18.5c1.33301 -1.33301 2 -2.33301 2 -3c0 0.666992 0.166992 1.16699 0.5 1.5s0.5 0.833008 0.5 1.5c4.66699 10 9.83398 16.167 15.501 18.5s11.167 2.5 16.5 0.5s10 -5.83301 14 -11.5
s7 -11.834 9 -18.501c0 -2.66699 -0.333008 -4 -1 -4c-6 -0.666992 -10.833 -3.5 -14.5 -8.5s-6.5 -10.833 -8.5 -17.5s-3.33301 -13.334 -4 -20.001s-1 -12 -1 -16c3.33301 0 10.333 -0.166992 21 -0.5s23.167 -0.666016 37.5 -0.999023s29.666 -0.5 45.999 -0.5
s32 0.333008 47 1s28.167 1.83398 39.5 3.50098s19 4.16699 23 7.5c0 0.666992 0.166992 0.833984 0.5 0.500977s0.5 -0.833008 0.5 -1.5c0 -3.33301 -0.666992 -8.33301 -2 -15s-4.16602 -13.667 -8.49902 -21s-10.666 -13.833 -18.999 -19.5
s-19.5 -8.83398 -33.5 -9.50098c16 -16 26.667 -33.167 32 -51.5s5.83301 -35.5 1.5 -51.5s-12.833 -29.167 -25.5 -39.5s-28.334 -15.5 -47.001 -15.5c-8 0 -17 1.66699 -27 5s-17.333 8.33301 -22 15c-3.33301 3.33301 -2.66602 6.66602 2.00098 9.99902
c14.667 8 25 19.667 31 35s6.83301 30.833 2.5 46.5s-14.5 29.667 -30.5 42s-39 20.166 -69 23.499v-219zM130.997 458.002c2.66699 -17.333 13.334 -32.8311 32.001 -46.498s41.667 -27.167 69 -40.5v193c-14.667 -2.66699 -28.5 -6.83398 -41.5 -12.501
s-24.333 -12.834 -34 -21.501s-16.834 -19 -21.501 -31s-6 -25.667 -4 -41zM285.997 -30.9961c18.667 0.666992 35.834 3.66699 51.501 9s29.334 12.833 41.001 22.5s20.667 21.5 27 35.5s9.16602 30 8.49902 48c-1.33301 26 -14.333 48.167 -39 66.5
s-54.334 35.5 -89.001 51.5v-23v-13v-197z" />
    <glyph glyph-name="percent" unicode="%" horiz-adv-x="509" 
d="M404 700c6 0 10.833 -2.33301 14.5 -7s4.5 -10 2.5 -16l-248 -832c-3.33301 -8 -9 -12 -17 -12h-75c-6 0 -10.833 2.33301 -14.5 7s-4.5 10 -2.5 16l249 831c2 8.66699 7.66699 13 17 13h74zM372 170c15.333 0 29.833 -3.33301 43.5 -10s25.5 -16 35.5 -28
s18 -25.833 24 -41.5s9 -32.5 9 -50.5s-3 -35 -9 -51s-14 -29.833 -24 -41.5s-21.833 -21 -35.5 -28s-28.167 -10.5 -43.5 -10.5s-29.833 3.5 -43.5 10.5s-25.5 16.333 -35.5 28s-18 25.5 -24 41.5s-9 33 -9 51s3 34.833 9 50.5s14 29.5 24 41.5s21.833 21.333 35.5 28
s28.167 10 43.5 10zM372 -72c10.667 0 19.667 4.16699 27 12.5s13 18.333 17 30s6.83301 23.834 8.5 36.501s2.5 23.667 2.5 33c0 8.66699 -0.833008 19.334 -2.5 32.001s-4.5 24.834 -8.5 36.501s-9.66699 21.667 -17 30s-16.333 12.5 -27 12.5s-19.5 -4.16699 -26.5 -12.5
s-12.667 -18.333 -17 -30s-7.33301 -23.834 -9 -36.501s-2.5 -23.334 -2.5 -32.001c0 -9.33301 0.833008 -20.333 2.5 -33s4.66699 -24.834 9 -36.501s10 -21.667 17 -30s15.833 -12.5 26.5 -12.5zM224 515c0 -18 -3 -35 -9 -51s-14 -29.833 -24 -41.5
s-21.833 -21 -35.5 -28s-28.167 -10.5 -43.5 -10.5s-29.833 3.5 -43.5 10.5s-25.5 16.333 -35.5 28s-18 25.5 -24 41.5s-9 33 -9 51s3 34.833 9 50.5s14 29.5 24 41.5s21.833 21.333 35.5 28s28.167 10 43.5 10s29.833 -3.33301 43.5 -10s25.5 -16 35.5 -28
s18 -25.833 24 -41.5s9 -32.5 9 -50.5zM57 515c0 -8.66699 0.833008 -19.334 2.5 -32.001s4.66699 -24.834 9 -36.501s10 -21.667 17 -30s15.833 -12.5 26.5 -12.5s19.667 4.16699 27 12.5s13 18.333 17 30s6.83301 23.834 8.5 36.501s2.5 23.334 2.5 32.001
s-0.833008 19.334 -2.5 32.001s-4.5 24.834 -8.5 36.501s-9.66699 21.667 -17 30s-16.333 12.5 -27 12.5s-19.5 -4.16699 -26.5 -12.5s-12.667 -18.333 -17 -30s-7.33301 -23.834 -9 -36.501s-2.5 -23.334 -2.5 -32.001z" />
    <glyph glyph-name="ampersand" unicode="&#x26;" horiz-adv-x="534" 
d="M306 -65l0.00585938 -1.99707c0 -3.33301 0.5 -8.5 1.5 -15.5s3.16699 -14 6.5 -21s8.66602 -13.5 15.999 -19.5s17.333 -9.33301 30 -10c3.33301 0 4 -1 2 -3c-3.33301 -6.66699 -9 -12.834 -17 -18.501s-16.833 -9.66699 -26.5 -12s-20 -2.33301 -31 0
s-21.167 8.5 -30.5 18.5l-3 3c0 -0.666992 -0.666992 -1.66699 -2 -3c-9.33301 -10 -19.5 -16.167 -30.5 -18.5s-21.333 -2.33301 -31 0s-18.5 6.33301 -26.5 12s-13.667 11.834 -17 18.501c-2 2 -1.33301 3 2 3c12.667 0.666992 22.667 4 30 10s12.666 12.5 15.999 19.5
s5.5 14 6.5 21s1.5 12.167 1.5 15.5v2v6c-44 6.66699 -81 20.167 -111 40.5s-52.667 44.333 -68 72s-23.333 57.334 -24 89.001s6.5 62 21.5 91s38 55 69 78s70.5 39.833 118.5 50.5l-165 176c-6 6.66699 -9.33301 13.667 -10 21c-2 12 1.33301 22.667 10 32
s19.667 14 33 14h126c0 4.66699 -0.833008 10.167 -2.5 16.5s-4.33398 12.5 -8.00098 18.5s-9 11.333 -16 16s-16.167 7.33398 -27.5 8.00098c-2.66699 0 -3.33398 1.33301 -2.00098 4c3.33301 6.66699 9 12.834 17 18.501s16.833 9.5 26.5 11.5s20 1.83301 31 -0.5
s21.167 -8.5 30.5 -18.5c1.33301 -1.33301 2 -2.33301 2 -3l3 3c9.33301 10 19.5 16.167 30.5 18.5s21.333 2.5 31 0.5s18.5 -5.83301 26.5 -11.5s13.667 -11.834 17 -18.501c1.33301 -2.66699 0.666016 -4 -2.00098 -4c-11.333 -0.666992 -20.5 -3.33398 -27.5 -8.00098
s-12.5 -10 -16.5 -16s-6.66699 -12.167 -8 -18.5s-2 -11.833 -2 -16.5h62h18.5c9 0 18.5 1.16699 28.5 3.5s19.167 6.5 27.5 12.5s13.5 15 15.5 27c0 1.33301 0.333008 2.33301 1 3s1.33398 0.666992 2.00098 0c13.333 -8 19.333 -21.333 18 -40
s-11.666 -38.334 -30.999 -59.001l-3 -3l3 -3c10 -10 16.167 -21 18.5 -33s2.5 -23.333 0.5 -34s-5.83301 -20.167 -11.5 -28.5s-11.834 -14.5 -18.501 -18.5c-2.66699 -1.33301 -4 -0.666016 -4 2.00098c-1.33301 14 -4.66602 25 -9.99902 33s-11.5 13.833 -18.5 17.5
s-14 6 -21 7s-12.167 1.5 -15.5 1.5h-221l133 -121c7.33301 -6.66699 10.666 -14.334 9.99902 -23.001c0 -7.33301 -2.16699 -13.666 -6.5 -18.999s-9.83301 -9 -16.5 -11c-38.667 -10.667 -69.834 -26.667 -93.501 -48s-40.834 -44.833 -51.501 -70.5s-15 -52 -13 -79
s9.16699 -51.5 21.5 -73.5s29.666 -40.167 51.999 -54.5s48.5 -21.5 78.5 -21.5c28.667 0 52.834 6.5 72.501 19.5s33.834 28.667 42.501 47s11 37.166 7 56.499s-15 35.666 -33 48.999c-4 2.66699 -4.66699 6.66699 -2 12c9.33301 15.333 23 25.666 41 30.999
s35.833 6.16602 53.5 2.49902s33.167 -11.667 46.5 -24s20 -28.5 20 -48.5c0 -26 -5.66699 -49.167 -17 -69.5s-26.333 -38 -45 -53s-40.334 -27 -65.001 -36s-50 -15.167 -76 -18.5v-5z" />
    <glyph glyph-name="parenleft" unicode="(" horiz-adv-x="238" 
d="M110 98c0 -66.667 6.33301 -117.5 19 -152.5s35.334 -57.833 68.001 -68.5c10.667 -3.33301 16 -10.666 16 -21.999c0 -6.66699 -2.33301 -12.334 -7 -17.001s-10.667 -6.33398 -18 -5.00098c-29.333 2 -55.666 8.33301 -78.999 19s-43 26.5 -59 47.5
s-28.333 47.833 -37 80.5s-13 72 -13 118v336c0 46 4.33301 85.333 13 118s21 59.5 37 80.5s35.667 36.833 59 47.5s49.666 17.334 78.999 20.001c7.33301 0.666992 13.333 -1.33301 18 -6s7 -10.334 7 -17.001c0 -11.333 -5.33301 -18.666 -16 -21.999
c-32.667 -10 -55.334 -32.5 -68.001 -67.5s-19 -86.167 -19 -153.5v-336z" />
    <glyph glyph-name="parenright" unicode=")" horiz-adv-x="238" 
d="M103 434c0 67.333 -6.33301 118.5 -19 153.5s-35.334 57.5 -68.001 67.5c-10.667 3.33301 -16 10.666 -16 21.999c0 6.66699 2.33301 12.334 7 17.001s10.667 6.66699 18 6c29.333 -2.66699 55.666 -9.33398 78.999 -20.001s43 -26.5 59 -47.5s28.333 -47.833 37 -80.5
s13 -72 13 -118v-336c0 -46 -4.33301 -85.333 -13 -118s-21 -59.5 -37 -80.5s-35.667 -36.833 -59 -47.5s-49.666 -17 -78.999 -19c-7.33301 -1.33301 -13.333 0.333984 -18 5.00098s-7 10.334 -7 17.001c0 11.333 5.33301 18.666 16 21.999
c32.667 10.667 55.334 33.5 68.001 68.5s19 85.833 19 152.5v336v0z" />
    <glyph glyph-name="asterisk" unicode="*" horiz-adv-x="206" 
d="M176 675c1.33301 0 2.50098 -0.833008 3.50098 -2.5s0.833008 -3.16699 -0.5 -4.5l-67 -68l67 -69c1.33301 -1.33301 1.66602 -2.66602 0.999023 -3.99902s-1.66699 -2 -3 -2h-34c-1.33301 0 -2 0.333008 -2 1l-35 36v-57c0 -3.33301 -2 -5 -6 -5h-20
c-3.33301 0 -5 1.66699 -5 5v57l-35 -36c-0.666992 -0.666992 -1.66699 -1 -3 -1h-33c-2 0 -3.33301 0.666992 -4 2s-0.333984 2.66602 0.999023 3.99902l67 69l-66 68c-1.33301 1.33301 -1.66602 2.83301 -0.999023 4.5s1.66699 2.5 3 2.5h33
c1.33301 0 2.33301 -0.333008 3 -1l35 -36v56c0 4 1.66699 6 5 6h20c4 0 6 -2 6 -6v-56l35 36c0 0.666992 0.666992 1 2 1h33v0z" />
    <glyph glyph-name="plus" unicode="+" horiz-adv-x="593" 
d="M547 260c10 -7.33301 16.168 -14.999 18.501 -22.999s2.5 -15.667 0.5 -23s-5.83301 -14 -11.5 -20s-11.834 -10.333 -18.501 -13c-1.33301 -0.666992 -2.66602 0 -3.99902 2c-0.666992 9.33301 -3.83398 16.666 -9.50098 21.999s-12 9.33301 -19 12
s-14 4.33398 -21 5.00098s-12.167 1 -15.5 1h-2h-142v-141v-3c0 -3.33301 0.333008 -8.33301 1 -15s2.33398 -13.5 5.00098 -20.5s6.66699 -13.5 12 -19.5s13 -9.33301 23 -10c2 0 2.33301 -1.33301 1 -4c-2.66699 -6.66699 -7 -12.834 -13 -18.501s-12.667 -9.5 -20 -11.5
s-15 -1.83301 -23 0.5s-15.333 8.5 -22 18.5l-3 3c0 -0.666992 -0.666992 -1.66699 -2 -3c-7.33301 -10 -15 -16.167 -23 -18.5s-15.667 -2.5 -23 -0.5s-13.833 5.83301 -19.5 11.5s-9.83398 11.834 -12.501 18.501c-1.33301 2.66699 -1 4 1 4c10 0.666992 17.667 4 23 10
s9.33301 12.5 12 19.5s4.33398 13.833 5.00098 20.5s1 11.667 1 15v3v141h-142h-2c-3.33301 0 -8.5 -0.333008 -15.5 -1s-14 -2.33398 -21 -5.00098s-13.333 -6.66699 -19 -12s-8.83398 -12.666 -9.50098 -21.999c-1.33301 -2.66699 -2.66602 -3.33398 -3.99902 -2.00098
c-6.66699 2.66699 -12.834 7 -18.501 13s-9.66699 12.667 -12 20s-2.33301 15 0 23s8.5 15.667 18.5 23c1.33301 0 2.66602 0.666992 3.99902 2c-0.666992 0.666992 -1.33398 1 -2.00098 1s-1.33398 0.333008 -2.00098 1c-10 6.66699 -16.167 14.167 -18.5 22.5
s-2.33301 16.166 0 23.499s6.33301 14 12 20s11.834 10.333 18.501 13c2 0 3.33301 -0.666992 4 -2c0.666992 -10 3.83398 -17.667 9.50098 -23s12 -9.16602 19 -11.499s14 -3.83301 21 -4.5s12.167 -1 15.5 -1h2h142v141v3c0 3.33301 -0.333008 8.33301 -1 15
s-2.33398 13.5 -5.00098 20.5s-6.66699 13.333 -12 19s-13 9.16699 -23 10.5c-2 0 -2.33301 1.33301 -1 4c2.66699 6.66699 6.83398 12.834 12.501 18.501s12.167 9.5 19.5 11.5s15 1.83301 23 -0.5s15.667 -8.5 23 -18.5c1.33301 -1.33301 2 -2.33301 2 -3l3 3
c6.66699 10 14 16.167 22 18.5s15.667 2.5 23 0.5s14 -5.83301 20 -11.5s10.333 -11.834 13 -18.501c1.33301 -2.66699 1 -4 -1 -4c-10 -1.33301 -17.667 -4.83301 -23 -10.5s-9.33301 -12 -12 -19s-4.33398 -13.833 -5.00098 -20.5s-1 -11.667 -1 -15v-3v-141h142h2
c3.33301 0 8.5 0.333008 15.5 1s14 2.16699 21 4.5s13.333 6.16602 19 11.499s8.83398 13 9.50098 23c0.666992 1.33301 2 2 4 2c6.66699 -2.66699 12.834 -7 18.501 -13s9.5 -12.667 11.5 -20s1.83301 -15.166 -0.5 -23.499s-8.5 -15.833 -18.5 -22.5
c-0.666992 -0.666992 -1.16699 -1 -1.5 -1s-0.833008 -0.333008 -1.5 -1c1.33301 -1.33301 2.33301 -2 3 -2z" />
    <glyph glyph-name="comma" unicode="," horiz-adv-x="155" 
d="M130 42c0 -10.667 -1.66797 -21.666 -5.00098 -32.999s-8.33301 -22.5 -15 -33.5s-15.167 -21.333 -25.5 -31s-22.833 -17.834 -37.5 -24.501c-1.33301 -0.666992 -2.66602 -0.5 -3.99902 0.5s-1.33301 2.16699 0 3.5c4 6 9.83301 13.667 17.5 23s13.167 20.333 16.5 33
c-5.33301 -1.33301 -9.33301 -2 -12 -2c-18 0 -33.333 6.33301 -46 19s-19 28 -19 46s6.33301 33.333 19 46s28 19 46 19s33.333 -6.33301 46 -19s19 -28 19 -46v-1v0z" />
    <glyph glyph-name="hyphenminus" unicode="-" horiz-adv-x="524" 
d="M463 341c0 1.33301 1.00195 2.00098 3.00195 2.00098c6.66699 -2.66699 12.834 -7 18.501 -13s9.66699 -12.667 12 -20s2.33301 -15.166 0 -23.499s-8.5 -15.833 -18.5 -22.5c-0.666992 -0.666992 -1.16699 -1 -1.5 -1s-0.833008 -0.333008 -1.5 -1
c1.33301 -1.33301 2.33301 -2 3 -2c10 -7.33301 16.167 -15 18.5 -23s2.33301 -15.667 0 -23s-6.33301 -14 -12 -20s-11.834 -10.333 -18.501 -13c-2 -2 -3 -1.33301 -3 2c-1.33301 9.33301 -4.83301 16.666 -10.5 21.999s-12 9.33301 -19 12s-14 4.33398 -21 5.00098
s-12.167 1 -15.5 1h-2h-291h-2c-3.33301 0 -8.5 -0.333008 -15.5 -1s-14 -2.33398 -21 -5.00098s-13.333 -6.66699 -19 -12s-8.83398 -12.666 -9.50098 -21.999c-1.33301 -2.66699 -2.66602 -3.33398 -3.99902 -2.00098c-6.66699 2.66699 -12.834 7 -18.501 13
s-9.66699 12.667 -12 20s-2.33301 15 0 23s8.5 15.667 18.5 23c1.33301 0 2.66602 0.666992 3.99902 2c-0.666992 0.666992 -1.33398 1 -2.00098 1s-1.33398 0.333008 -2.00098 1c-10 6.66699 -16.167 14.167 -18.5 22.5s-2.33301 16.166 0 23.499s6.33301 14 12 20
s11.834 10.333 18.501 13c2 0 3.33301 -0.666992 4 -2c0.666992 -10 3.83398 -17.667 9.50098 -23s12 -9.16602 19 -11.499s14 -3.83301 21 -4.5s12.167 -1 15.5 -1h2h291h2c3.33301 0 8.5 0.333008 15.5 1s14 2.16699 21 4.5s13.333 6.16602 19 11.499s9.16699 13 10.5 23z
" />
    <glyph glyph-name="period" unicode="." horiz-adv-x="155" 
d="M130 43c0 -18 -6.33301 -33.333 -19 -46s-28 -19 -46 -19s-33.333 6.33301 -46 19s-19 28 -19 46s6.33301 33.333 19 46s28 19 46 19s33.333 -6.33301 46 -19s19 -28 19 -46z" />
    <glyph glyph-name="slash" unicode="/" horiz-adv-x="384" 
d="M109 -155c-2 -8 -7.66699 -12 -17 -12h-74c-6 0 -10.833 2.33301 -14.5 7s-4.5 10 -2.5 16l248 831c3.33301 8.66699 9 13 17 13h75c6 0 10.833 -2.33301 14.5 -7s4.5 -10 2.5 -16l-249 -832v0z" />
    <glyph glyph-name="zero" unicode="0" horiz-adv-x="556" 
d="M531 340v-1c0 -61.333 -7.5 -114.666 -22.5 -159.999s-34.833 -82.833 -59.5 -112.5s-53 -51.834 -85 -66.501s-65 -22 -99 -22s-67 7.33301 -99 22s-60.167 36.834 -84.5 66.501s-44 67.167 -59 112.5s-22.5 98.666 -22.5 159.999v1v2c0 61.333 7.5 114.5 22.5 159.5
s34.667 82.167 59 111.5s52.5 51.166 84.5 65.499s65 21.5 99 21.5s67 -7.16699 99 -21.5s60.333 -36.166 85 -65.499s44.5 -66.5 59.5 -111.5s22.5 -98.167 22.5 -159.5v-2zM265 18c26 0 48.167 10.167 66.5 30.5s33.333 46.333 45 78s20 66.334 25 104.001
s7.5 74.167 7.5 109.5c0 34.667 -2.5 71 -7.5 109s-13.333 72.5 -25 103.5s-26.667 56.667 -45 77s-40.5 30.5 -66.5 30.5s-48 -10.167 -66 -30.5s-32.833 -46 -44.5 -77s-20 -65.5 -25 -103.5s-7.5 -74.333 -7.5 -109c0 -35.333 2.5 -71.833 7.5 -109.5
s13.333 -72.334 25 -104.001s26.5 -57.667 44.5 -78s40 -30.5 66 -30.5z" />
    <glyph glyph-name="one" unicode="1" 
d="M252 14c3.33301 0 4.33301 -1.33301 3 -4c-4 -6.66699 -10.667 -12.834 -20 -18.501s-19.833 -9.5 -31.5 -11.5s-23.834 -1.83301 -36.501 0.5s-24.667 8.5 -36 18.5l-3 3l-3 -3c-11.333 -10 -23.333 -16.167 -36 -18.5s-24.834 -2.5 -36.501 -0.5
s-22.167 5.83301 -31.5 11.5s-16 11.834 -20 18.501c-1.33301 2.66699 -0.333008 4 3 4c14.667 0.666992 26.334 4 35.001 10s15 12.5 19 19.5s6.5 13.833 7.5 20.5s1.5 11.667 1.5 15v3v515v2c0 3.33301 -0.5 8.5 -1.5 15.5s-3.5 14 -7.5 21s-10.333 13.333 -19 19
s-20.334 8.83398 -35.001 9.50098c-3.33301 0 -4.33301 1.33301 -3 4c4 6.66699 10.667 12.834 20 18.501s19.833 9.5 31.5 11.5s23.834 1.83301 36.501 -0.5s24.667 -8.5 36 -18.5l3 -3l3 3c11.333 10 23.333 16.167 36 18.5s24.834 2.5 36.501 0.5
s22.167 -5.83301 31.5 -11.5s16 -11.834 20 -18.501c1.33301 -2.66699 0.333008 -4 -3 -4c-15.333 -0.666992 -27.166 -3.83398 -35.499 -9.50098s-14.5 -12 -18.5 -19s-6.5 -14 -7.5 -21s-1.5 -12.167 -1.5 -15.5v-2v-515v-3c0 -3.33301 0.5 -8.33301 1.5 -15
s3.5 -13.5 7.5 -20.5s10.167 -13.5 18.5 -19.5s20.166 -9.33301 35.499 -10z" />
    <glyph glyph-name="two" unicode="2" horiz-adv-x="523" 
d="M498 491c0 -32.667 -6.50391 -62.3252 -19.5039 -88.9922s-30 -51.334 -51 -74.001s-45 -43.667 -72 -63l-82 -56.5l-81 -54c-26.333 -17.667 -49.166 -35.834 -68.499 -54.501h249c3.33301 0 8.5 0.5 15.5 1.5s14 3.5 21 7.5s13.333 10.167 19 18.5
s8.83398 20.166 9.50098 35.499c0 3.33301 1.33301 4.33301 4 3c6.66699 -4 12.834 -10.667 18.501 -20s9.5 -19.833 11.5 -31.5s1.83301 -23.834 -0.5 -36.501s-8.5 -24.667 -18.5 -36l-3 -3l3 -3c10 -11.333 16.167 -23.333 18.5 -36s2.5 -24.834 0.5 -36.501
s-5.83301 -22.167 -11.5 -31.5s-11.834 -16 -18.501 -20c-2.66699 -1.33301 -4 -0.333008 -4 3c-0.666992 14.667 -3.83398 26.334 -9.50098 35.001s-12 15 -19 19s-14 6.5 -21 7.5s-12.167 1.5 -15.5 1.5h-330c-9.33301 0 -16.833 3.33301 -22.5 10s-7.5 14.667 -5.5 24
c6 31.333 19.5 60.666 40.5 87.999s45.333 53.666 73 78.999s56.667 50.166 87 74.499s58.333 49.333 84 75s46.834 52.167 63.501 79.5s25 57 25 89c0 54.667 -12.833 96 -38.5 124s-59.5 42 -101.5 42c-29.333 0 -53.666 -7 -72.999 -21s-33.333 -31 -42 -51
s-11 -40.667 -7 -62s15 -39 33 -53c3.33301 -3.33301 4 -7.33301 2 -12c-9.33301 -16.667 -23 -27.834 -41 -33.501s-35.833 -6.5 -53.5 -2.5s-33.167 12.667 -46.5 26s-20 30.666 -20 51.999c0 32 7.33301 60.167 22 84.5s33.667 44.5 57 60.5s50 28.167 80 36.5
s60 12.5 90 12.5h1c40.667 0 76.5 -5.66699 107.5 -17s56.833 -26.666 77.5 -45.999s36.334 -41.5 47.001 -66.5s16 -51.5 16 -79.5z" />
    <glyph glyph-name="three" unicode="3" horiz-adv-x="534" 
d="M475 650c-0.666992 -6.66699 -3.99414 -13.9971 -9.99414 -21.9971l-165 -191c50.667 -12 92 -31.667 124 -59s54.833 -58 68.5 -92s18.667 -69.167 15 -105.5s-15.834 -69.5 -36.501 -99.5s-49.5 -54.667 -86.5 -74s-81.833 -29 -134.5 -29h-1
c-30 0 -60 4.16699 -90 12.5s-56.667 20.666 -80 36.999s-42.333 36.666 -57 60.999s-22 52.5 -22 84.5c0 21.333 6.66699 38.666 20 51.999s28.833 22 46.5 26s35.5 3.16699 53.5 -2.5s31.667 -16.834 41 -33.501c2.66699 -4.66699 2 -9 -2 -13
c-18 -14 -29 -31.5 -33 -52.5s-1.66699 -41.5 7 -61.5s22.667 -37 42 -51s43.666 -21 72.999 -21c30 0 56.167 7.66699 78.5 23s39.666 35 51.999 59s19.5 50.667 21.5 80s-2.33301 57.833 -13 85.5s-27.834 53 -51.501 76s-54.834 40.5 -93.501 52.5
c-7.33301 2 -13 5.83301 -17 11.5s-6 12.167 -6 19.5c-0.666992 10 2.66602 18.667 9.99902 26l133 130h-221c-3.33301 0 -8.5 -0.5 -15.5 -1.5s-14 -3.5 -21 -7.5s-13.333 -10.333 -19 -19s-8.83398 -20.667 -9.50098 -36c0 -2.66699 -1.33301 -3.33398 -4 -2.00098
c-6.66699 4 -12.834 10.667 -18.501 20s-9.5 19.833 -11.5 31.5s-1.83301 23.667 0.5 36s8.5 24.166 18.5 35.499c0.666992 0.666992 1.16699 1.33398 1.5 2.00098s0.833008 1.33398 1.5 2.00098l-3 3c-19.333 22 -29.666 43.167 -30.999 63.5s4.66699 34.833 18 43.5
c0.666992 0.666992 1.33398 0.666992 2.00098 0s1 -1.66699 1 -3c2 -13.333 7.16699 -23.166 15.5 -29.499s17.5 -10.833 27.5 -13.5s19.5 -4 28.5 -4h18.5h291c13.333 0 24.333 -5 33 -15s12 -21.667 10 -35z" />
    <glyph glyph-name="four" unicode="4" horiz-adv-x="529" 
d="M478 14c3.33301 0 4.33398 -1.33398 3.00098 -4.00098c-4 -6.66699 -10.667 -12.834 -20 -18.501s-19.833 -9.5 -31.5 -11.5s-23.834 -1.83301 -36.501 0.5s-24.334 8.5 -35.001 18.5c-1.33301 0.666992 -2.66602 1.66699 -3.99902 3l-3 -3
c-11.333 -10 -23.166 -16.167 -35.499 -18.5s-24.333 -2.5 -36 -0.5s-22.167 5.83301 -31.5 11.5s-16 11.834 -20 18.501c-1.33301 1.33301 -1.66602 2.33301 -0.999023 3s1.66699 1 3 1c15.333 0.666992 27.166 4 35.499 10s14.666 12.5 18.999 19.5s7 13.833 8 20.5
s1.5 11.667 1.5 15v3v137h-271c-6.66699 0 -12.167 2.33301 -16.5 7s-6.5 10.334 -6.5 17.001v17c0 7.33301 2.66699 13 8 17l3 2c8.66699 8 22.5 21.667 41.5 41s39.5 41.333 61.5 66s44.167 50.834 66.5 78.501s41.5 54 57.5 79s27 47.333 33 67s4.33301 34.167 -5 43.5
c-9.33301 6 -21.333 9.33301 -36 10c-1.33301 0 -2.33301 0.333008 -3 1s-0.333984 1.66699 0.999023 3c4 6.66699 10.667 12.834 20 18.501s19.833 9.5 31.5 11.5s23.667 1.83301 36 -0.5s24.166 -8.5 35.499 -18.5l3 -3c1.33301 1.33301 2.66602 2.33301 3.99902 3
c10.667 10 22.334 16.167 35.001 18.5s24.834 2.5 36.501 0.5s22.167 -5.83301 31.5 -11.5s16 -11.834 20 -18.501c1.33301 -2.66699 0.333008 -4 -3 -4c-15.333 -0.666992 -27.166 -3.83398 -35.499 -9.50098s-14.5 -12 -18.5 -19s-6.5 -14 -7.5 -21
s-1.5 -12.167 -1.5 -15.5v-2v-318h76c4 0 7.33301 -1.5 10 -4.5s3.33398 -6.5 2.00098 -10.5l-10 -35c-1.33301 -6.66699 -5.33301 -10 -12 -10h-66v-137v-3c0 -3.33301 0.5 -8.33301 1.5 -15s3.5 -13.5 7.5 -20.5s10.167 -13.5 18.5 -19.5s20.166 -9.33301 35.499 -10z
M294.001 278.999l0.000976562 266.001c-14.667 -25.333 -32.334 -51.833 -53.001 -79.5s-45 -56.834 -73 -87.501l-52.5 -54l-45.5 -45h224z" />
    <glyph glyph-name="five" unicode="5" horiz-adv-x="523" 
d="M498 187c0 -28 -5.32812 -54.498 -15.9951 -79.498s-26.334 -47.167 -47.001 -66.5s-46.5 -34.666 -77.5 -45.999s-66.833 -17 -107.5 -17h-1c-30 0 -60 4.16699 -90 12.5s-56.667 20.666 -80 36.999s-42.333 36.666 -57 60.999s-22 52.5 -22 84.5
c0 21.333 6.66699 38.666 20 51.999s28.833 22 46.5 26s35.5 3.16699 53.5 -2.5s31.667 -16.834 41 -33.501c2.66699 -4.66699 2 -9 -2 -13c-18 -14 -29 -31.667 -33 -53s-1.66699 -41.833 7 -61.5s22.667 -36.5 42 -50.5s43.666 -21 72.999 -21
c19.333 0 37.5 3.5 54.5 10.5s31.833 17.5 44.5 31.5s22.667 31.167 30 51.5s11 44.166 11 71.499c0 38.667 -9 72.667 -27 102s-41.833 53.833 -71.5 73.5s-63.834 34.834 -102.501 45.501s-78.334 17 -119.001 19c-6 0 -10.667 2.83301 -14 8.5s-4 11.167 -2 16.5l81 234
c4.66699 13.333 14 20 28 20h212c3.33301 0 9 0.166992 17 0.5s16 2 24 5s15.5 7.66699 22.5 14s11.167 15.833 12.5 28.5c0 3.33301 1.33301 4.33301 4 3c6.66699 -4 12.167 -9.83301 16.5 -17.5s7 -16.334 8 -26.001s-0.333008 -20.167 -4 -31.5s-10.5 -22.333 -20.5 -33
l-3 -3c0.666992 -0.666992 1.16699 -1.33398 1.5 -2.00098s0.833008 -1.33398 1.5 -2.00098c10 -11.333 16.167 -23.166 18.5 -35.499s2.5 -24.333 0.5 -36s-5.83301 -22.167 -11.5 -31.5s-11.834 -16 -18.501 -20c-2.66699 -1.33301 -4 -0.666016 -4 2.00098
c-0.666992 15.333 -3.83398 27.333 -9.50098 36s-12 15 -19 19s-14 6.5 -21 7.5s-12.167 1.5 -15.5 1.5h-205c-10.667 0 -17.667 -5 -21 -15l-25 -80c-2 -5.33301 -1.33301 -10.5 2 -15.5s8 -7.83301 14 -8.5c44.667 -3.33301 88.667 -10.166 132 -20.499
s81.833 -26 115.5 -47s60.834 -48.167 81.501 -81.5s31 -74.666 31 -123.999z" />
    <glyph glyph-name="six" unicode="6" horiz-adv-x="520" 
d="M279 412c36 0 67.4971 -6.49121 94.4971 -19.4912s49.5 -30 67.5 -51s31.5 -44.833 40.5 -71.5s13.5 -53.334 13.5 -80.001c0 -46.667 -12.167 -85.834 -36.5 -117.501s-54.833 -55.334 -91.5 -71.001s-76.5 -23.334 -119.5 -23.001s-82.833 8.66602 -119.5 24.999
s-67.167 40.833 -91.5 73.5s-36.5 73.667 -36.5 123v-10c0 43.333 6.16699 84.666 18.5 123.999s29 76 50 110s45 65.5 72 94.5s54.833 55 83.5 78s57.334 43.333 86.001 61s55.334 32.167 80.001 43.5c4 1.33301 7 2 9 2c8.66699 0 14.334 -3.83301 17.001 -11.5
s0.666992 -13.834 -6 -18.501c-54 -38.667 -103.833 -83.834 -149.5 -135.501s-81.167 -106.834 -106.5 -165.501c13.333 9.33301 30.5 18.333 51.5 27s45.5 13 73.5 13zM113.997 200.009c-1.33301 -41.333 4.33203 -75.6689 16.999 -103.002s29 -47.833 49 -61.5
s42 -20.667 66 -21s46.333 5.83398 67 18.501s37.834 31.834 51.501 57.501s20.5 57.5 20.5 95.5c0 21.333 -2.16699 42.5 -6.5 63.5s-11.333 40 -21 57s-21.667 31 -36 42s-31.5 17.167 -51.5 18.5c-33.333 2.66699 -58.833 -1.66602 -76.5 -12.999
s-29.334 -24.5 -35.001 -39.5s-6.16699 -29 -1.5 -42s13 -19.5 25 -19.5c4 0 4.66699 -3 2 -9c-6.66699 -14 -17.167 -22.833 -31.5 -26.5s-27.166 -4.83398 -38.499 -3.50098v-14z" />
    <glyph glyph-name="seven" unicode="7" horiz-adv-x="518" 
d="M450 700c13.333 0 24.166 -4.66895 32.499 -14.002s11.5 -20.666 9.5 -33.999c-0.666992 -4.66699 -2 -9 -4 -13s-4.66699 -7.66699 -8 -11c-22.667 -22 -45.5 -48.333 -68.5 -79s-44.167 -67.667 -63.5 -111s-35.833 -94.5 -49.5 -153.5
s-22.834 -127.833 -27.501 -206.5c0 -4 0.666992 -9.33301 2 -16s4.16602 -13.5 8.49902 -20.5s10.666 -13.167 18.999 -18.5s19.833 -8.33301 34.5 -9c2.66699 0 3.33398 -1.33301 2.00098 -4c-4 -6.66699 -10.667 -12.834 -20 -18.501s-19.833 -9.5 -31.5 -11.5
s-23.834 -1.83301 -36.501 0.5s-24.334 8.5 -35.001 18.5l-3 3c-1.33301 -0.666992 -2.66602 -1.66699 -3.99902 -3c-11.333 -10 -23.166 -16.167 -35.499 -18.5s-24.333 -2.5 -36 -0.5s-22.167 5.83301 -31.5 11.5s-16 11.834 -20 18.501
c-1.33301 2.66699 -0.666016 4 2.00098 4c12.667 0.666992 22.834 3 30.501 7s13.667 8.66699 18 14s7.33301 11 9 17s2.83398 11.667 3.50098 17c6 62.667 17.5 120.667 34.5 174s36.5 101.666 58.5 144.999s45.333 81 70 113s47.667 58 69 78h-266
c-3.33301 0 -8.5 -0.5 -15.5 -1.5s-14 -3.5 -21 -7.5s-13.5 -10.333 -19.5 -19s-9.33301 -20.667 -10 -36c0 -3.33301 -1 -4 -3 -2c-6.66699 4 -12.834 10.667 -18.501 20s-9.66699 19.833 -12 31.5s-2.33301 23.667 0 36s8.5 24.166 18.5 35.499
c0.666992 0.666992 1.16699 1.33398 1.5 2.00098s0.833008 1.33398 1.5 2.00098l-3 3c-19.333 22 -29.666 43.167 -30.999 63.5s4.66699 34.833 18 43.5c2.66699 1.33301 4 0.333008 4 -3c2 -13.333 7.16699 -23.166 15.5 -29.499s17.5 -10.833 27.5 -13.5s19.5 -4 28.5 -4
h18.5h337z" />
    <glyph glyph-name="eight" unicode="8" horiz-adv-x="528" 
d="M503 193c0 -34 -5.99902 -64.333 -17.999 -91s-28.833 -49 -50.5 -67s-47.834 -31.833 -78.501 -41.5s-65 -14.834 -103 -15.501h-1h-2c-37.333 0.666992 -71.333 5.83398 -102 15.501s-57 23.5 -79 41.5s-39 40.333 -51 67s-18 57 -18 91v1c0 53.333 14.167 97 42.5 131
s66.5 57.667 114.5 71c-30 13.333 -54.333 32.5 -73 57.5s-28 54.5 -28 88.5c0 24.667 4.66699 46.834 14 66.501s22.5 36.167 39.5 49.5s37.5 23.666 61.5 30.999s50.333 11 79 11h2h1c28.667 0 55 -3.66699 79 -11s44.5 -17.666 61.5 -30.999s30.167 -29.833 39.5 -49.5
s14 -41.834 14 -66.501c0 -34 -9.16699 -63.5 -27.5 -88.5s-42.5 -44.167 -72.5 -57.5c48 -13.333 86 -37 114 -71s42 -77.667 42 -131v-1zM252.001 672c-32 -0.666992 -55.833 -12.5 -71.5 -35.5s-23.5 -54.5 -23.5 -94.5c0 -39.333 7.66699 -71.166 23 -95.499
s39.333 -36.833 72 -37.5c32 0.666992 55.667 13.167 71 37.5s23 56.166 23 95.499c0 40 -7.66699 71.5 -23 94.5s-39 34.833 -71 35.5zM252.001 13c20.667 0 38.832 4.83301 54.499 14.5s28.667 22.5 39 38.5s18 35 23 57s7.5 45.667 7.5 71c0 24 -2.5 46.833 -7.5 68.5
s-12.667 40.834 -23 57.501s-23.333 29.834 -39 39.501s-33.834 14.5 -54.501 14.5c-21.333 0 -39.666 -4.83301 -54.999 -14.5s-28.166 -22.834 -38.499 -39.501s-18 -35.834 -23 -57.501s-7.5 -44.5 -7.5 -68.5c0 -25.333 2.5 -49 7.5 -71s12.5 -41 22.5 -57
s22.833 -28.833 38.5 -38.5s34.167 -14.5 55.5 -14.5z" />
    <glyph glyph-name="nine" unicode="9" horiz-adv-x="520" 
d="M216 263c-36.667 0 -68.4961 5.99512 -95.4961 17.9951s-49.5 28 -67.5 48s-31.333 42.833 -40 68.5s-13 51.834 -13 78.501c0 50 12.167 91.667 36.5 125s54.833 58.333 91.5 75s76.5 24.834 119.5 24.501s82.833 -8.83301 119.5 -25.5s67.167 -41.667 91.5 -75
s36.5 -74.666 36.5 -123.999v10c0 -43.333 -6.33301 -84.666 -19 -123.999s-29.334 -76 -50.001 -110s-44.5 -65.5 -71.5 -94.5s-55 -55.167 -84 -78.5s-58 -43.666 -87 -60.999s-55.5 -31.666 -79.5 -42.999c-2.66699 -1.33301 -5.33398 -2 -8.00098 -2
c-8.66699 0 -14.334 3.66699 -17.001 11s-0.666992 13.666 6 18.999c26.667 19.333 52.5 40.5 77.5 63.5s48.667 47.167 71 72.5s42.666 51.833 60.999 79.5s33.833 56.167 46.5 85.5c-13.333 -10 -30.5 -19.333 -51.5 -28s-45.5 -13 -73.5 -13zM380.004 475.995
c2 41.333 -3.5 75.6699 -16.5 103.003s-29.5 47.833 -49.5 61.5s-41.833 20.667 -65.5 21s-45.834 -5.83398 -66.501 -18.501s-37.834 -31.834 -51.501 -57.501s-20.5 -57.5 -20.5 -95.5c0 -22 2.16699 -43.5 6.5 -64.5s11.333 -39.833 21 -56.5s21.667 -30.5 36 -41.5
s31.5 -17.167 51.5 -18.5c32.667 -2.66699 57.834 1.66602 75.501 12.999s29.334 24.5 35.001 39.5s6.16699 29 1.5 42s-13 19.5 -25 19.5c-4 0 -4.66699 2.66699 -2 8c7.33301 14.667 18 23.667 32 27s26.667 4.33301 38 3v15z" />
    <glyph glyph-name="colon" unicode=":" horiz-adv-x="155" 
d="M130 43c0 -18 -6.33301 -33.333 -19 -46s-28 -19 -46 -19s-33.333 6.33301 -46 19s-19 28 -19 46s6.33301 33.333 19 46s28 19 46 19s33.333 -6.33301 46 -19s19 -28 19 -46zM130 480c0 -18 -6.33301 -33.333 -19 -46s-28 -19 -46 -19s-33.333 6.33301 -46 19
s-19 28 -19 46s6.33301 33.333 19 46s28 19 46 19s33.333 -6.33301 46 -19s19 -28 19 -46z" />
    <glyph glyph-name="semicolon" unicode=";" horiz-adv-x="155" 
d="M130 480c0 -18 -6.33301 -33.333 -19 -46s-28 -19 -46 -19s-33.333 6.33301 -46 19s-19 28 -19 46s6.33301 33.333 19 46s28 19 46 19s33.333 -6.33301 46 -19s19 -28 19 -46zM130 42c0 -10.667 -1.66797 -21.666 -5.00098 -32.999s-8.33301 -22.5 -15 -33.5
s-15.167 -21.333 -25.5 -31s-22.833 -17.834 -37.5 -24.501c-1.33301 -0.666992 -2.66602 -0.5 -3.99902 0.5s-1.33301 2.16699 0 3.5c4 6 9.83301 13.667 17.5 23s13.167 20.333 16.5 33c-5.33301 -1.33301 -9.33301 -2 -12 -2c-18 0 -33.333 6.33301 -46 19s-19 28 -19 46
s6.33301 33.333 19 46s28 19 46 19s33.333 -6.33301 46 -19s19 -28 19 -46v-1z" />
    <glyph glyph-name="less" unicode="&#x3c;" horiz-adv-x="397" 
d="M359 545c6 0 10.001 -2.66699 12.001 -8s1 -10 -3 -14l-111.5 -108.5l-138.5 -134.5c-5.33301 -5.33301 -8 -11.333 -8 -18s2.66699 -12.667 8 -18l138.5 -134.5l111.5 -108.5c4 -4 5 -8.83301 3 -14.5s-6 -8.5 -12 -8.5h-74c-2 0 -5 1.33301 -9 4l-58 57l-77 75
l-77 74.5l-57 55.5c-5.33301 5.33301 -7.33301 12 -6 20s8.66602 18.333 21.999 31l253 247c2.66699 2 5.66699 3 9 3h74v0z" />
    <glyph glyph-name="equal" unicode="=" horiz-adv-x="524" 
d="M466 215c6.66699 -2.66699 12.8359 -6.99902 18.5029 -12.999s9.66699 -12.667 12 -20s2.33301 -15.166 0 -23.499s-8.5 -15.833 -18.5 -22.5c-0.666992 -0.666992 -1.16699 -1 -1.5 -1s-0.833008 -0.333008 -1.5 -1c1.33301 -1.33301 2.33301 -2 3 -2
c10 -7.33301 16.167 -15 18.5 -23s2.33301 -15.667 0 -23s-6.33301 -14 -12 -20s-11.834 -10.333 -18.501 -13c-2 -2 -3 -1.33301 -3 2c-1.33301 9.33301 -4.83301 16.666 -10.5 21.999s-12 9.33301 -19 12s-14 4.33398 -21 5.00098s-12.167 1 -15.5 1h-2h-291h-2
c-3.33301 0 -8.5 -0.333008 -15.5 -1s-14 -2.33398 -21 -5.00098s-13.333 -6.66699 -19 -12s-8.83398 -12.666 -9.50098 -21.999c-1.33301 -2.66699 -2.66602 -3.33398 -3.99902 -2.00098c-6.66699 2.66699 -12.834 7 -18.501 13s-9.66699 12.667 -12 20s-2.33301 15 0 23
s8.5 15.667 18.5 23c1.33301 0 2.66602 0.666992 3.99902 2c-0.666992 0.666992 -1.33398 1 -2.00098 1s-1.33398 0.333008 -2.00098 1c-10 6.66699 -16.167 14.167 -18.5 22.5s-2.33301 16.166 0 23.499s6.33301 14 12 20s11.834 10.333 18.501 13
c2 0 3.33301 -0.666992 4 -2c0.666992 -10 3.83398 -17.667 9.50098 -23s12 -9.16602 19 -11.499s14 -3.83301 21 -4.5s12.167 -1 15.5 -1h2h291h2c3.33301 0 8.5 0.333008 15.5 1s14 2.16699 21 4.5s13.333 6.16602 19 11.499s9.16699 13 10.5 23c0 1.33301 1 2 3 2z
M478.002 384.001c10 -7.33301 16.1699 -15.001 18.5029 -23.001s2.33301 -15.667 0 -23s-6.33301 -13.833 -12 -19.5s-11.834 -9.83398 -18.501 -12.501c-2 -2 -3 -1.66699 -3 1c-1.33301 10 -4.83301 17.667 -10.5 23s-12 9.33301 -19 12s-14 4.33398 -21 5.00098
s-12.167 1 -15.5 1h-2h-291h-2c-3.33301 0 -8.5 -0.333008 -15.5 -1s-14 -2.33398 -21 -5.00098s-13.333 -6.66699 -19 -12s-8.83398 -13 -9.50098 -23c-2 -2 -3.33301 -2.33301 -4 -1c-6.66699 2.66699 -12.834 6.83398 -18.501 12.501s-9.66699 12.167 -12 19.5
s-2.33301 15 0 23s8.5 15.667 18.5 23c1.33301 1.33301 2.66602 2 3.99902 2c-0.666992 0.666992 -1.33398 1.16699 -2.00098 1.5s-1.33398 0.833008 -2.00098 1.5c-10 6.66699 -16.167 14 -18.5 22s-2.33301 15.667 0 23s6.33301 14 12 20s11.834 10.333 18.501 13
c0.666992 0.666992 2 0.333984 4 -0.999023c0.666992 -10 3.83398 -17.667 9.50098 -23s12 -9.33301 19 -12s14 -4.33398 21 -5.00098s12.167 -1 15.5 -1h2h291h2c3.33301 0 8.5 0.333008 15.5 1s14 2.33398 21 5.00098s13.333 6.66699 19 12s9.16699 13 10.5 23
c0 2.66699 1 3 3 1c6.66699 -2.66699 12.834 -7 18.501 -13s9.66699 -12.667 12 -20s2.33301 -15 0 -23s-8.5 -15.333 -18.5 -22l-3 -3c0.666992 0 1.66699 -0.666992 3 -2z" />
    <glyph glyph-name="greater" unicode="&#x3e;" horiz-adv-x="397" 
d="M87 545c2.66699 0 5.66797 -1 9.00098 -3l253 -247c13.333 -12.667 20.666 -23 21.999 -31s-0.666992 -14.667 -6 -20l-57 -55.5l-77 -74.5l-77 -75l-58 -57c-4 -2.66699 -7 -4 -9 -4h-74c-6 0 -10 2.83301 -12 8.5s-1 10.5 3 14.5l111.5 108.5l138.5 134.5
c5.33301 5.33301 8 11.333 8 18s-2.66699 12.667 -8 18l-138.5 134.5l-111.5 108.5c-4 4 -5 8.66699 -3 14s6 8 12 8h74z" />
    <glyph glyph-name="question" unicode="?" horiz-adv-x="523" 
d="M250 700c40.667 0 76.502 -5.66992 107.502 -17.0029s56.833 -26.666 77.5 -45.999s36.334 -41.5 47.001 -66.5s16 -51.5 16 -79.5c0 -32 -5.83301 -64.5 -17.5 -97.5s-26.667 -65.333 -45 -97s-38.166 -62.167 -59.499 -91.5l-61.5 -83.5
c-19.667 -26.333 -36.834 -50.333 -51.501 -72s-24.334 -40.167 -29.001 -55.5c-2.66699 -10.667 -9.33398 -16 -20.001 -16c-6.66699 0 -12.167 2.5 -16.5 7.5s-5.83301 10.833 -4.5 17.5c3.33301 20.667 10.666 41.834 21.999 63.501s24.166 44.334 38.499 68.001l45 75
c15.667 26.333 30.167 54.333 43.5 84s24.333 61.334 33 95.001s13 69.834 13 108.501c0 54.667 -12.833 96 -38.5 124s-59.5 42 -101.5 42c-29.333 0 -53.666 -7 -72.999 -21s-33.333 -31 -42 -51s-11 -40.667 -7 -62s15 -39 33 -53c3.33301 -3.33301 4 -7.33301 2 -12
c-9.33301 -16.667 -23 -27.834 -41 -33.501s-35.833 -6.5 -53.5 -2.5s-33.167 12.667 -46.5 26s-20 30.666 -20 51.999c-0 32 7.33301 60.167 22 84.5s33.667 44.5 57 60.5s50 28.167 80 36.5s60 12.5 90 12.5h1zM213.002 -50.0029c16.667 0 30.667 -5.66699 42 -17
s17 -25.333 17 -42c0 -16 -5.66699 -29.667 -17 -41s-25.333 -17 -42 -17c-16 0 -29.667 5.66699 -41 17s-17 25 -17 41c0 16.667 5.66699 30.667 17 42s25 17 41 17z" />
    <glyph glyph-name="at" unicode="@" horiz-adv-x="962" 
d="M202 262c0 45.333 5.83887 85.5107 17.5059 120.511s28.5 64.5 50.5 88.5s48.333 42.333 79 55s65 19 103 19c59.333 0 110 -15.333 152 -46c11.333 3.33301 21.5 7.16602 30.5 11.499s16.5 9.16602 22.5 14.499c7.33301 5.33301 13.666 11.333 18.999 18
c6 3.33301 12 3.16602 18 -0.500977s9 -8.83398 9 -15.501v-448c0 -4 0.666992 -10.5 2 -19.5s5.66602 -17.5 12.999 -25.5c8 -8 18.167 -10.833 30.5 -8.5s24.333 12.166 36 29.499s21.5 43 29.5 77s12 78.667 12 134c0 58.667 -9.33301 112.334 -28 161.001
s-44.334 90.5 -77.001 125.5s-70.667 62 -114 81s-89.333 28.5 -138 28.5c-49.333 0 -95.666 -9.5 -138.999 -28.5s-81.166 -46 -113.499 -81s-57.833 -76.833 -76.5 -125.5s-28.334 -102.334 -29.001 -161.001c0.666992 -58.667 10.334 -112.334 29.001 -161.001
s44.167 -90.334 76.5 -125.001s70.166 -61.5 113.499 -80.5s89.666 -28.5 138.999 -28.5c69.333 0 131.666 18.333 186.999 55c5.33301 3.33301 11.166 4.66602 17.499 3.99902s11.833 -3.33398 16.5 -8.00098c6 -6.66699 8.16699 -14.334 6.5 -23.001s-6.5 -15 -14.5 -19
c-32 -15.333 -66 -27 -102 -35s-73 -12 -111 -12c-64.667 0 -125.5 11.333 -182.5 34s-106.667 53.667 -149 93s-75.833 85.166 -100.5 137.499s-37 108.5 -37 168.5s12.333 116.333 37 169s58.167 98.667 100.5 138s92 70.333 149 93s117.833 34 182.5 34
s125.334 -11.333 182.001 -34s106.167 -53.667 148.5 -93s75.833 -85.333 100.5 -138s37 -109 37 -169c0 -14 -1 -30.833 -3 -50.5s-5.83301 -40.167 -11.5 -61.5s-13.834 -42.5 -24.501 -63.5s-24.834 -39.833 -42.501 -56.5s-39.5 -30.167 -65.5 -40.5
s-56.667 -15.5 -92 -15.5c-23.333 0 -43.5 4 -60.5 12s-30.167 18 -39.5 30c-41.333 -28 -90 -42 -146 -42c-38 0 -72.333 6.33301 -103 19s-57 31 -79 55s-38.833 53.5 -50.5 88.5s-17.5 75.167 -17.5 120.5v1zM452.006 504.011c-20.667 0 -38.833 -5.83301 -54.5 -17.5
s-28.667 -28.167 -39 -49.5s-18.166 -46.833 -23.499 -76.5s-8 -62.5 -8 -98.5s2.5 -68.833 7.5 -98.5s12.667 -55.334 23 -77.001s23.333 -38.334 39 -50.001s34.167 -17.5 55.5 -17.5s40 5.83301 56 17.5s29.167 28.334 39.5 50.001s18 47.334 23 77.001
s7.5 62.5 7.5 98.5s-2.5 68.833 -7.5 98.5s-12.833 55.167 -23.5 76.5s-23.834 37.833 -39.501 49.5s-34.167 17.5 -55.5 17.5z" />
    <glyph glyph-name="A" unicode="A" horiz-adv-x="857" 
d="M828 14c3.33301 0 4.3418 -1.33398 3.00879 -4.00098c-4 -6.66699 -10.667 -12.834 -20 -18.501s-19.833 -9.5 -31.5 -11.5s-23.834 -1.83301 -36.501 0.5s-24.667 8.5 -36 18.5l-3 3l-3 -3c-11.333 -10 -23.333 -16.167 -36 -18.5s-24.834 -2.5 -36.501 -0.5
s-22.167 5.83301 -31.5 11.5s-16 11.834 -20 18.501c-1.33301 2.66699 -0.333008 4 3 4c14.667 0.666992 25.667 3.66699 33 9s12.333 11.166 15 17.499s3.5 13 2.5 20s-2.16699 13.167 -3.5 18.5l-10 38c-4.66699 12 -11.167 27.167 -19.5 45.5s-19.5 37.166 -33.5 56.499
c-42 57.333 -93 95 -153 113l-76 -290c-1.33301 -9.33301 -0.5 -19.166 2.5 -29.499s10.167 -16.5 21.5 -18.5c1.33301 -0.666992 2.33301 -1.66699 3 -3s0.333984 -2.33301 -0.999023 -3c-6 -4 -14.333 -7.16699 -25 -9.5s-20.667 1.5 -30 11.5h-2
c-2.66699 -2.66699 -6.66699 -5.33398 -12 -8.00098s-11.333 -4 -18 -4s-13.5 1.66699 -20.5 5s-13.5 9.66602 -19.5 18.999c-1.33301 4.66699 0 7 4 7c3.33301 0 7.83301 0.666992 13.5 2s11.334 3.5 17.001 6.5s11 7.5 16 13.5s8.83301 13.667 11.5 23l75 287
c-5.33301 0.666992 -10.833 1.16699 -16.5 1.5s-11.5 0.833008 -17.5 1.5c-57.333 1.33301 -108 -8.83398 -152 -30.501s-79 -53.834 -105 -96.501c-25.333 -42 -38.666 -88 -39.999 -138s9 -96 31 -138c0.666992 -1.33301 1.16699 -2.16602 1.5 -2.49902
s0.833008 -1.16602 1.5 -2.49902c15.333 -25.333 33.666 -45.666 54.999 -60.999s43.166 -26.166 65.499 -32.499s44.166 -8.66602 65.499 -6.99902s40.333 6.66699 57 15s29.5 19.5 38.5 33.5s12.5 30.333 10.5 49c0 4.66699 2.66699 7 8 7c19.333 0 35 -6.16699 47 -18.5
s18 -26.833 18 -43.5c0 -31.333 -10.833 -56.666 -32.5 -75.999s-48.834 -31.833 -81.501 -37.5s-67.834 -3.83398 -105.501 5.49902s-72.834 26.666 -105.501 51.999s-59.834 59 -81.501 101s-32.5 93.333 -32.5 154c0 28.667 4 56.667 12 84s19.333 52.666 34 75.999
c28 46.667 65.667 82.667 113 108c52 28 112 41 180 39c7.33301 -0.666992 14.5 -1.16699 21.5 -1.5s14.167 -1.16602 21.5 -2.49902l57 219l3 15.5c1.33301 7 1 14 -1 21s-6.16699 13.333 -12.5 19s-16.5 8.83398 -30.5 9.50098c-3.33301 0 -4.33301 1.33301 -3 4
c4 6.66699 10.667 12.834 20 18.501s19.833 9.5 31.5 11.5s23.667 1.83301 36 -0.5s24.166 -8.5 35.499 -18.5c1.33301 -0.666992 2.66602 -1.66699 3.99902 -3l3 3c10.667 10 22.334 16.167 35.001 18.5s24.834 2.5 36.501 0.5s22.167 -5.83301 31.5 -11.5
s16 -11.834 20 -18.501c1.33301 -2.66699 0.666016 -4 -2.00098 -4c-16 -0.666992 -25.667 -6.16699 -29 -16.5s-4.33301 -20.5 -3 -30.5l128 -478c6 -22.667 13 -43 21 -61c7.33301 -15.333 16.166 -29.666 26.499 -42.999s23.166 -20.333 38.499 -21zM498.009 335.999
c15.333 -9.33301 29.666 -20 42.999 -32s26 -25.333 38 -40l-92 360l-66 -253c26.667 -8 52.334 -19.667 77.001 -35z" />
    <glyph glyph-name="B" unicode="B" horiz-adv-x="639" 
d="M413 383c34.667 -10.667 64.6729 -24.665 90.0059 -41.998s46.333 -36.5 63 -57.5s28.834 -43.5 36.501 -67.5s11.5 -48.333 11.5 -73c0 -44 -8.83301 -82.667 -26.5 -116s-40.834 -61.5 -69.501 -84.5s-61.334 -40.667 -98.001 -53s-74.334 -19.5 -113.001 -21.5
s-76.334 1 -113.001 9s-69.334 21.167 -98.001 39.5s-51.834 41.666 -69.501 69.999s-26.5 61.5 -26.5 99.5c0 36.667 10.833 68.834 32.5 96.501s49.5 47.167 83.5 58.5v367c-0.666992 4.66699 -1.83398 10.167 -3.50098 16.5s-4.5 12.166 -8.5 17.499
s-9.5 10.166 -16.5 14.499s-16.167 6.83301 -27.5 7.5c-2.66699 0 -3.33398 1.33301 -2.00098 4c4.66699 8.66699 12.834 16.167 24.501 22.5s24.167 9.5 37.5 9.5c8 0 16.333 -1.66699 25 -5s16.667 -8.66602 24 -15.999l2 -2l2 2c7.33301 7.33301 15.333 12.666 24 15.999
s17 5 25 5h64h1c36 0 69.333 -3.16699 100 -9.5s57.167 -16.166 79.5 -29.499s39.833 -30.333 52.5 -51s19 -45.334 19 -74.001c0 -36 -11.167 -68 -33.5 -96s-52.833 -47 -91.5 -57zM226.006 413.002c11.333 0 23.667 -0.166992 37 -0.5s25 -1.16602 35 -2.49902
c31.333 0 57.666 6.16699 78.999 18.5s37.333 27.833 48 46.5s16.167 38.667 16.5 60s-4.66699 41.333 -15 60s-26.166 34.167 -47.499 46.5s-48 18.5 -80 18.5h-14c-22 0 -37.167 -4.83301 -45.5 -14.5s-12.833 -21.834 -13.5 -36.501v-196zM155.007 157.002
c-21.333 0 -38.668 -6.33203 -52.001 -18.999s-22.166 -28.334 -26.499 -47.001s-3.66602 -39 2.00098 -61s16.334 -42.333 32.001 -61s36.667 -34.334 63 -47.001s58.5 -19 96.5 -19c28.667 0 56.5 4.33301 83.5 13s50.667 22.5 71 41.5s36.666 43 48.999 72
s18.5 64.167 18.5 105.5c0 30.667 -4.5 60.334 -13.5 89.001s-22.333 54 -40 76s-39.834 39.667 -66.501 53s-58 20 -94 20h-52v-137c22 -9.33301 38.5 -22.5 49.5 -39.5s17.5 -34.5 19.5 -52.5s-0.5 -35 -7.5 -51s-17.833 -28 -32.5 -36
c-3.33301 -1.33301 -5 -0.666016 -5 2.00098c0 17.333 -2.66699 32.166 -8 44.499s-12.5 22.5 -21.5 30.5s-19.167 13.833 -30.5 17.5s-23 5.5 -35 5.5z" />
    <glyph glyph-name="C" unicode="C" horiz-adv-x="564" 
d="M480 43c16 -2 28 -5.67871 36 -11.0117s13.667 -11.333 17 -18s5 -13.167 5 -19.5s-0.333008 -11.5 -1 -15.5c-1.33301 -3.33301 -2.66602 -3.66602 -3.99902 -0.999023c-5.33301 6 -14.5 9.5 -27.5 10.5s-25.167 1.5 -36.5 1.5c-6 0 -14.833 -0.666992 -26.5 -2
s-25 -2.66602 -40 -3.99902s-30.833 -2.66602 -47.5 -3.99902s-33 -2 -49 -2h-6c-48.667 0 -91.667 9.5 -129 28.5s-68.666 44.833 -93.999 77.5s-44.5 70.834 -57.5 114.501s-19.5 90.5 -19.5 140.5s6.5 96.833 19.5 140.5s32.167 81.834 57.5 114.501
s56.666 58.5 93.999 77.5s80.333 28.5 129 28.5h6c16 0 32.333 -0.666992 49 -2s32.5 -2.66602 47.5 -3.99902s28.333 -2.66602 40 -3.99902s20.5 -2 26.5 -2c11.333 0 23.5 0.5 36.5 1.5s22.167 4.83301 27.5 11.5c1.33301 1.33301 2.66602 1 3.99902 -1
c0.666992 -4 1 -9.33301 1 -16s-1.66699 -13.167 -5 -19.5s-9 -12.166 -17 -17.499s-20 -9 -36 -11c15.333 -18.667 23.833 -38.667 25.5 -60s-2.16602 -40.5 -11.499 -57.5s-23.666 -30 -42.999 -39s-42.333 -10.5 -69 -4.5
c-3.33301 0.666992 -5.83301 1.83398 -7.5 3.50098s-1.5 3.16699 0.5 4.5c16.667 12.667 27.5 29.167 32.5 49.5s4.5 39.833 -1.5 58.5s-17.833 34.834 -35.5 48.501s-41.167 20.5 -70.5 20.5c-34.667 0 -62.667 -10.667 -84 -32s-38 -48.166 -50 -80.499
s-20 -67.166 -24 -104.499s-6 -72 -6 -104s2 -66.667 6 -104s12 -72 24 -104s28.667 -58.833 50 -80.5s49.333 -32.5 84 -32.5c29.333 0 52.833 6.83301 70.5 20.5s29.5 30 35.5 49s6.5 38.5 1.5 58.5s-15.833 36.333 -32.5 49c-2 1.33301 -2.16699 2.83301 -0.5 4.5
s4.16699 3.16699 7.5 4.5c26.667 6 49.667 4.33301 69 -5s33.666 -22.5 42.999 -39.5s13.166 -36 11.499 -57s-10.167 -40.833 -25.5 -59.5z" />
    <glyph glyph-name="D" unicode="D" horiz-adv-x="658" 
d="M293 700c58.667 0 109.668 -11.5 153.001 -34.5s79.166 -53.333 107.499 -91s49 -80.5 62 -128.5s18.667 -97.167 17 -147.5s-11 -99.5 -28 -147.5s-41.5 -90.833 -73.5 -128.5s-71.5 -68 -118.5 -91s-101.5 -34.5 -163.5 -34.5c-27.333 0 -55.666 4.5 -84.999 13.5
s-56.166 22.333 -80.499 40s-44.333 39.834 -60 66.501s-23.5 57.667 -23.5 93c0 17.333 2.33301 34.333 7 51s11.667 32 21 46s20.833 26.167 34.5 36.5s29.5 17.833 47.5 22.5v331c0 3.33301 -0.5 8.5 -1.5 15.5s-3.5 14.167 -7.5 21.5s-10.333 13.833 -19 19.5
s-20.667 9.16699 -36 10.5c-3.33301 0 -4 1 -2 3c4 6.66699 10.667 13 20 19s19.833 10.167 31.5 12.5s23.667 2.16602 36 -0.500977s24.166 -9 35.499 -19c1.33301 -1.33301 2.66602 -2.33301 3.99902 -3l3 4c2 2.66699 5 5.5 9 8.5s9.16699 5.66699 15.5 8
s13.833 3.5 22.5 3.5h72zM169.001 186c-22.667 0 -41.332 -6.16699 -55.999 -18.5s-24.834 -27.666 -30.501 -45.999s-6.66699 -38.333 -3 -60s12 -41.834 25 -60.501s30.833 -34.5 53.5 -47.5s50.334 -19.833 83.001 -20.5c31.333 -1.33301 62.333 4 93 16s58 33 82 63
s43.5 70.167 58.5 120.5s22.5 113.5 22.5 189.5c0 110.667 -18.667 194.667 -56 252s-87.333 86 -150 86c-3.33301 -0.666992 -6.33301 -1 -9 -1h-11c-9.33301 0 -16.5 -2.66699 -21.5 -8s-9 -11.5 -12 -18.5s-4.83301 -14 -5.5 -21s-1 -11.833 -1 -14.5v-337
c18 -10 31.667 -23.667 41 -41s14.666 -35 15.999 -53s-1.33398 -34.833 -8.00098 -50.5s-16.334 -27.167 -29.001 -34.5c-1.33301 -1.33301 -2.5 -1.66602 -3.5 -0.999023s-1.5 1.66699 -1.5 3c2.66699 17.333 2.33398 32.5 -0.999023 45.5s-8.66602 23.667 -15.999 32
s-16.333 14.666 -27 18.999s-21.667 6.5 -33 6.5z" />
    <glyph glyph-name="E" unicode="E" horiz-adv-x="666" 
d="M579 21c13.333 -1.33301 24.665 -4.32715 33.998 -8.99414c8 -4 15 -10 21 -18s7.66699 -19 5 -33c-7.33301 2.66699 -16.333 5.33398 -27 8.00098c-9.33301 2 -20.833 4 -34.5 6s-29.834 3 -48.501 3h-272c-18.667 1.33301 -35 8.33301 -49 21
c-1.33301 1.33301 -2.66602 2.33301 -3.99902 3l-3 -3c-11.333 -10 -23.166 -16.167 -35.499 -18.5s-24.333 -2.5 -36 -0.5s-22.167 5.83301 -31.5 11.5s-16 11.834 -20 18.501c-1.33301 2.66699 -0.666016 4 2.00098 4c15.333 0.666992 27.333 4 36 10s15 12.5 19 19.5
s6.5 13.833 7.5 20.5s1.5 11.667 1.5 15v226c-22.667 -5.33301 -44 -9 -64 -11s-37.667 -0.333008 -53 5c-8 3.33301 -14.5 7.83301 -19.5 13.5s-7.5 13.167 -7.5 22.5c15.333 -18.667 35.333 -25.834 60 -21.501s52.667 13.5 84 27.5v258c0 3.33301 -0.5 8.5 -1.5 15.5
s-3.5 14 -7.5 21s-10.333 13.333 -19 19s-20.667 8.83398 -36 9.50098c-2 1.33301 -2.66699 2.66602 -2 3.99902c4 6.66699 10.667 12.834 20 18.501s19.833 9.5 31.5 11.5s23.667 1.83301 36 -0.5s24.166 -8.5 35.499 -18.5l3 -3
c1.33301 0.666992 2.66602 1.66699 3.99902 3c14 12.667 30.333 19.667 49 21h272c18.667 0 34.834 0.833008 48.501 2.5s25.167 3.5 34.5 5.5c10.667 2.66699 19.667 5.66699 27 9c2.66699 -14 1 -25 -5 -33s-13 -14 -21 -18
c-9.33301 -4.66699 -20.666 -7.33398 -33.999 -8.00098c16.667 -21.333 25.667 -41.333 27 -60s-3 -34.667 -13 -48s-24.5 -23 -43.5 -29s-39.833 -6.66699 -62.5 -2c-3.33301 0.666992 -6.16602 1.66699 -8.49902 3s-1.83301 2.66602 1.5 3.99902
c12 4.66699 20 14.334 24 29.001s2.83301 29.667 -3.5 45s-18.833 29.166 -37.5 41.499s-44.667 18.5 -78 18.5h-43c-18.667 0 -33.167 -1.66699 -43.5 -5s-18 -7.83301 -23 -13.5s-8 -12.334 -9 -20.001s-1.5 -15.834 -1.5 -24.501v-198
c19.333 8.66699 38.166 16.167 56.499 22.5s36.5 10.5 54.5 12.5c32 4 57 1 75 -9s30.333 -22.667 37 -38s8.83398 -31.333 6.50098 -48s-7.5 -30 -15.5 -40c-2.66699 -1.33301 -4 -1.33301 -4 0c1.33301 10 -0.5 20.167 -5.5 30.5s-14 19 -27 26s-29.833 11.333 -50.5 13
s-45.667 -1.5 -75 -9.5l-24.5 -7c-9 -2.66699 -18.167 -5.66699 -27.5 -9v-262c0 -8.66699 0.5 -16.834 1.5 -24.501s4 -14.334 9 -20.001s12.667 -10.167 23 -13.5s24.833 -5 43.5 -5h43c33.333 0 59.333 6.16699 78 18.5s31.167 26.166 37.5 41.499s7.5 30.333 3.5 45
s-12 24.334 -24 29.001c-3.33301 1.33301 -3.83301 2.66602 -1.5 3.99902s5.16602 2.33301 8.49902 3c22.667 4.66699 43.5 4 62.5 -2s33.5 -15.667 43.5 -29s14.333 -29.333 13 -48s-10.333 -38.334 -27 -59.001z" />
    <glyph glyph-name="F" unicode="F" horiz-adv-x="636" 
d="M609 717c2.66699 -14 0.993164 -25.001 -5.00684 -33.001s-13 -14 -21 -18c-9.33301 -4.66699 -20.666 -7.33398 -33.999 -8.00098c16.667 -21.333 25.667 -41.333 27 -60s-3 -34.667 -13 -48s-24.5 -23 -43.5 -29s-39.833 -6.66699 -62.5 -2
c-3.33301 0.666992 -6.16602 1.66699 -8.49902 3s-1.83301 2.66602 1.5 3.99902c12 4.66699 20 14.334 24 29.001s2.83301 29.667 -3.5 45s-18.666 29.166 -36.999 41.499s-44.5 18.5 -78.5 18.5h-42c-18.667 0 -33.334 -1.66699 -44.001 -5s-18.5 -7.83301 -23.5 -13.5
s-8 -12.334 -9 -20.001s-1.5 -15.834 -1.5 -24.501v-64c0 -19.333 0.166992 -41.833 0.5 -67.5s0.5 -52.5 0.5 -80.5c23.333 11.333 46.833 21.5 70.5 30.5s46.834 15.167 69.501 18.5c32 4 57 1 75 -9s30.333 -22.667 37 -38s8.83398 -31.333 6.50098 -48
s-7.5 -30 -15.5 -40c-2.66699 -1.33301 -4 -1.33301 -4 0c1.33301 10 -0.5 20.167 -5.5 30.5s-14 19 -27 26s-29.833 11.333 -50.5 13s-45.667 -1.5 -75 -9.5l-38 -11.5c-14 -4.33301 -28.333 -9.16602 -43 -14.499v-251v-3c0 -3.33301 0.5 -8.33301 1.5 -15
s3.5 -13.5 7.5 -20.5s10.167 -13.5 18.5 -19.5s20.166 -9.33301 35.499 -10c3.33301 0 4.33301 -1.33301 3 -4c-4 -6.66699 -10.667 -12.834 -20 -18.501s-19.833 -9.5 -31.5 -11.5s-24 -1.83301 -37 0.5s-24.833 8.5 -35.5 18.5
c-1.33301 1.33301 -2.66602 2.33301 -3.99902 3l-3 -3c-11.333 -10 -23.166 -16.167 -35.499 -18.5s-24.333 -2.5 -36 -0.5s-22.167 5.83301 -31.5 11.5s-16 11.834 -20 18.501c-1.33301 2.66699 -0.666016 4 2.00098 4c15.333 0.666992 27.333 4 36 10s15 12.5 19 19.5
s6.5 13.833 7.5 20.5s1.5 11.667 1.5 15v220c-17.333 -3.33301 -33.333 -5.16602 -48 -5.49902s-27.667 1.5 -39 5.5c-8 3.33301 -14.5 7.83301 -19.5 13.5s-7.5 13.167 -7.5 22.5c12.667 -15.333 28.667 -22.666 48 -21.999s41.333 5.66699 66 15v271
c0 3.33301 -0.5 8.5 -1.5 15.5s-3.5 14 -7.5 21s-10.333 13.333 -19 19s-20.667 8.83398 -36 9.50098c-2.66699 0 -3.33398 1.33301 -2.00098 4c4 6.66699 10.667 12.834 20 18.501s19.833 9.5 31.5 11.5s23.667 1.83301 36 -0.5s24.166 -8.5 35.499 -18.5
c0.666992 -0.666992 1.33398 -1.16699 2.00098 -1.5s1.33398 -0.833008 2.00098 -1.5l3 3c14 12.667 30.333 19.667 49 21h272c18.667 0 34.834 0.833008 48.501 2.5s25.167 3.5 34.5 5.5c10.667 2.66699 19.667 5.66699 27 9z" />
    <glyph glyph-name="G" unicode="G" horiz-adv-x="614" 
d="M588 294c1.33301 -2.66699 0.338867 -4.00977 -2.99414 -4.00977c-15.333 -1.33301 -27.333 -4.83301 -36 -10.5s-15.167 -12 -19.5 -19s-7 -13.833 -8 -20.5s-1.5 -11.667 -1.5 -15v-105v-16v-67c9.33301 -3.33301 16.333 -7.66602 21 -12.999s8 -10.833 10 -16.5
s2.83301 -11 2.5 -16s-0.833008 -9.16699 -1.5 -12.5c-1.33301 -3.33301 -2.66602 -3.66602 -3.99902 -0.999023c-5.33301 6 -14.833 9.5 -28.5 10.5s-26.167 1.5 -37.5 1.5c-6 0 -15 -0.666992 -27 -2s-25.667 -2.66602 -41 -3.99902s-31.666 -2.66602 -48.999 -3.99902
s-34 -2 -50 -2h-6c-50 0 -94.167 9.5 -132.5 28.5s-70.666 44.833 -96.999 77.5s-46.166 70.834 -59.499 114.501s-20 90.5 -20 140.5s6.66699 96.833 20 140.5s33.166 81.834 59.499 114.501s58.666 58.5 96.999 77.5s82.5 28.5 132.5 28.5h6c16 0 32.667 -0.666992 50 -2
s33.666 -2.66602 48.999 -3.99902s29 -2.66602 41 -3.99902s21 -2 27 -2c11.333 0 23.833 0.5 37.5 1.5s23.167 4.5 28.5 10.5c1.33301 2 2.66602 1.66699 3.99902 -1c0.666992 -4 1 -9.16699 1 -15.5s-1.66699 -12.833 -5 -19.5s-9.16602 -12.667 -17.499 -18
s-20.5 -9 -36.5 -11c16 -18.667 24.667 -38.5 26 -59.5s-2.83398 -40 -12.501 -57s-24.5 -30.167 -44.5 -39.5s-43.667 -11 -71 -5c-2.66699 1.33301 -5 2.83301 -7 4.5s-1.66699 3.16699 1 4.5c16.667 10 28.167 24.833 34.5 44.5s6.66602 39.334 0.999023 59.001
s-17.834 36.834 -36.501 51.501s-44 22 -76 22c-36 0 -65.167 -10.833 -87.5 -32.5s-39.833 -48.5 -52.5 -80.5s-21.334 -66.667 -26.001 -104s-7 -72 -7 -104s2.33301 -66.667 7 -104s13.334 -72 26.001 -104s30.167 -58.833 52.5 -80.5s51.5 -32.5 87.5 -32.5
c9.33301 0 19.166 1.33301 29.499 4s19.666 7.5 27.999 14.5s15.166 16.5 20.499 28.5s8 27.333 8 46v114c0 3.33301 -0.5 8.33301 -1.5 15s-3.66699 13.5 -8 20.5s-10.833 13.333 -19.5 19s-20.667 9.16699 -36 10.5c-3.33301 0 -4.33301 1.33301 -3 4
c4.66699 6.66699 11.667 12.834 21 18.501s20 9.5 32 11.5s24.5 1.83301 37.5 -0.5s25.167 -8.5 36.5 -18.5l3 -3c1.33301 0.666992 2.66602 1.66699 3.99902 3c11.333 10 23.5 16.167 36.5 18.5s25.5 2.5 37.5 0.5s22.667 -5.83301 32 -11.5s16.333 -11.834 21 -18.501z
" />
    <glyph glyph-name="H" unicode="H" horiz-adv-x="862" 
d="M833 14c3.33301 0 4.33496 -1.33008 3.00195 -3.99707c-4 -6.66699 -10.667 -12.834 -20 -18.501s-19.833 -9.5 -31.5 -11.5s-23.834 -1.83301 -36.501 0.5s-24.667 8.5 -36 18.5l-3 3l-3 -3c-11.333 -10 -23.333 -16.167 -36 -18.5s-24.834 -2.5 -36.501 -0.5
s-22.167 5.83301 -31.5 11.5s-16 11.834 -20 18.501c-1.33301 2.66699 -0.333008 4 3 4c14.667 0.666992 26.334 4 35.001 10s15 12.5 19 19.5s6.5 13.833 7.5 20.5s1.5 11.667 1.5 15v3v52c-4.66699 12.667 -11.334 27.667 -20.001 45s-19.667 35 -33 53
c-48 67.333 -108.667 109.333 -182 126v-276v-3c0 -3.33301 0.5 -8.33301 1.5 -15s3.5 -13.5 7.5 -20.5s10.167 -13.5 18.5 -19.5s20.166 -9.33301 35.499 -10c3.33301 0 4.33301 -1.33301 3 -4c-4 -6.66699 -10.667 -12.834 -20 -18.501s-19.833 -9.5 -31.5 -11.5
s-23.834 -1.83301 -36.501 0.5s-24.667 8.5 -36 18.5l-3 3l-3 -3c-11.333 -10 -23.333 -16.167 -36 -18.5s-24.834 -2.5 -36.501 -0.5s-22.167 5.83301 -31.5 11.5s-16 11.834 -20 18.501c-1.33301 2.66699 -0.333008 4 3 4c14.667 0.666992 26.334 4 35.001 10
s15 12.5 19 19.5s6.5 13.833 7.5 20.5s1.5 11.667 1.5 15v3v279c-45.333 -6.66699 -85.5 -21 -120.5 -43s-63.5 -51.333 -85.5 -88c-13.333 -22 -23.333 -45.333 -30 -70s-10.5 -49.667 -11.5 -75s1.16699 -50.5 6.5 -75.5s14 -48.5 26 -70.5
c0.666992 -0.666992 1.16699 -1.33398 1.5 -2.00098s0.833008 -1.33398 1.5 -2.00098c16.667 -27.333 36.167 -49 58.5 -65s45.166 -27.333 68.499 -34s46.333 -9.16699 69 -7.5s42.667 6.83398 60 15.501s30.833 20.5 40.5 35.5s13.5 32.167 11.5 51.5
c0 5.33301 2.66699 8 8 8c16 0 29 -4.16699 39 -12.5s16.667 -19 20 -32s3.33301 -26.833 0 -41.5s-10.833 -28.5 -22.5 -41.5s-27.667 -23.667 -48 -32s-45.166 -12.5 -74.499 -12.5c-62.667 0 -117.334 14 -164.001 42c-44 25.333 -78.333 60.333 -103 105
c-28.667 50.667 -42.334 107 -41.001 169c1.33301 61.333 17.333 117.666 48 168.999c30 48.667 70 86.667 120 114c18.667 9.33301 38.167 17.166 58.5 23.499s41.5 10.833 63.5 13.5v194v2c0 3.33301 -0.5 8.5 -1.5 15.5s-3.5 14 -7.5 21s-10.333 13.333 -19 19
s-20.334 8.83398 -35.001 9.50098c-3.33301 0 -4.33301 1.33301 -3 4c4 6.66699 10.667 12.834 20 18.501s19.833 9.5 31.5 11.5s23.834 1.83301 36.501 -0.5s24.667 -8.5 36 -18.5l3 -3l3 3c11.333 10 23.333 16.167 36 18.5s24.834 2.5 36.501 0.5
s22.167 -5.83301 31.5 -11.5s16 -11.834 20 -18.501c1.33301 -2.66699 0.333008 -4 -3 -4c-15.333 -0.666992 -27.166 -3.83398 -35.499 -9.50098s-14.5 -12 -18.5 -19s-6.5 -14 -7.5 -21s-1.5 -12.167 -1.5 -15.5v-2v-196c40.667 -8 78.334 -23 113.001 -45
c40 -24.667 75 -58 105 -100c3.33301 -4.66699 6.33301 -9.16699 9 -13.5l8 -13.5v368v2c0 3.33301 -0.5 8.5 -1.5 15.5s-3.5 14 -7.5 21s-10.333 13.333 -19 19s-20.334 8.83398 -35.001 9.50098c-3.33301 0 -4.33301 1.33301 -3 4c4 6.66699 10.667 12.834 20 18.501
s19.833 9.5 31.5 11.5s23.834 1.83301 36.501 -0.5s24.667 -8.5 36 -18.5l3 -3l3 3c11.333 10 23.333 16.167 36 18.5s24.834 2.5 36.501 0.5s22.167 -5.83301 31.5 -11.5s16 -11.834 20 -18.501c1.33301 -2.66699 0.333008 -4 -3 -4
c-15.333 -0.666992 -27.166 -3.83398 -35.499 -9.50098s-14.5 -12 -18.5 -19s-6.5 -14 -7.5 -21s-1.5 -12.167 -1.5 -15.5v-2v-515v-3c0 -3.33301 0.5 -8.33301 1.5 -15s3.5 -13.5 7.5 -20.5s10.167 -13.5 18.5 -19.5s20.166 -9.33301 35.499 -10z" />
    <glyph glyph-name="I" unicode="I" 
d="M252 14c3.33301 0 4.33301 -1.33301 3 -4c-4 -6.66699 -10.667 -12.834 -20 -18.501s-19.833 -9.5 -31.5 -11.5s-23.834 -1.83301 -36.501 0.5s-24.667 8.5 -36 18.5l-3 3l-3 -3c-11.333 -10 -23.333 -16.167 -36 -18.5s-24.834 -2.5 -36.501 -0.5
s-22.167 5.83301 -31.5 11.5s-16 11.834 -20 18.501c-1.33301 2.66699 -0.333008 4 3 4c14.667 0.666992 26.334 4 35.001 10s15 12.5 19 19.5s6.5 13.833 7.5 20.5s1.5 11.667 1.5 15v3v515v2c0 3.33301 -0.5 8.5 -1.5 15.5s-3.5 14 -7.5 21s-10.333 13.333 -19 19
s-20.334 8.83398 -35.001 9.50098c-3.33301 0 -4.33301 1.33301 -3 4c4 6.66699 10.667 12.834 20 18.501s19.833 9.5 31.5 11.5s23.834 1.83301 36.501 -0.5s24.667 -8.5 36 -18.5l3 -3l3 3c11.333 10 23.333 16.167 36 18.5s24.834 2.5 36.501 0.5
s22.167 -5.83301 31.5 -11.5s16 -11.834 20 -18.501c1.33301 -2.66699 0.333008 -4 -3 -4c-15.333 -0.666992 -27.166 -3.83398 -35.499 -9.50098s-14.5 -12 -18.5 -19s-6.5 -14 -7.5 -21s-1.5 -12.167 -1.5 -15.5v-2v-515v-3c0 -3.33301 0.5 -8.33301 1.5 -15
s3.5 -13.5 7.5 -20.5s10.167 -13.5 18.5 -19.5s20.166 -9.33301 35.499 -10z" />
    <glyph glyph-name="J" unicode="J" horiz-adv-x="549" 
d="M523 668c1.33301 -2.66699 0.664062 -3.99805 -2.00293 -3.99805c-15.333 -0.666992 -27.333 -3.83398 -36 -9.50098s-15 -12 -19 -19s-6.5 -14 -7.5 -21s-1.5 -12.167 -1.5 -15.5v-354c0 -50 -6.16699 -92 -18.5 -126s-29.166 -61.5 -50.499 -82.5s-46.5 -36 -75.5 -45
s-60.5 -13.5 -94.5 -13.5c-44.667 0 -82.167 7.33301 -112.5 22s-54 33.167 -71 55.5s-27.5 46.333 -31.5 72s-2.5 49.667 4.5 72s19.333 40.833 37 55.5s39.834 22 66.501 22c15.333 0 28.166 -3.33301 38.499 -10s18.166 -14.5 23.499 -23.5s8 -18.5 8 -28.5
s-2.66699 -18 -8 -24c-1.33301 -1.33301 -2.66602 -1.5 -3.99902 -0.5s-2.66602 1.5 -3.99902 1.5c-13.333 0 -24.833 -4.33301 -34.5 -13s-16.667 -19.334 -21 -32.001s-5.83301 -26.667 -4.5 -42s6 -29.333 14 -42s19.667 -23.334 35 -32.001s34.666 -13 57.999 -13
c46.667 0 79 17.333 97 52s27 85.667 27 153v376c0 3.33301 -0.5 8.5 -1.5 15.5s-3.5 14 -7.5 21s-10.333 13.333 -19 19s-20.667 8.83398 -36 9.50098c-2.66699 0 -3.33398 1.33301 -2.00098 4c4 6.66699 10.667 12.834 20 18.501s19.833 9.5 31.5 11.5
s23.667 1.83301 36 -0.5s24.166 -8.5 35.499 -18.5c0.666992 -0.666992 1.33398 -1.16699 2.00098 -1.5s1.33398 -0.833008 2.00098 -1.5l3 3c10.667 10 22.334 16.167 35.001 18.5s24.834 2.5 36.501 0.5s22.167 -5.83301 31.5 -11.5s16 -11.834 20 -18.501z" />
    <glyph glyph-name="K" unicode="K" horiz-adv-x="859" 
d="M640 745c40 0 69.498 -8.16797 88.498 -24.501s29 -34.333 30 -54s-6.33301 -37.667 -22 -54s-38.167 -24.5 -67.5 -24.5c-2 0 -3 1.33301 -3 4c4 13.333 4.16699 26.333 0.5 39s-11.334 22.334 -23.001 29.001s-26.834 9 -45.501 7s-41 -11 -67 -27
s-55.167 -40 -87.5 -72s-67.833 -74.667 -106.5 -128c-10 -13.333 -19.5 -26.833 -28.5 -40.5l-26.5 -40.5l91 -132l101 -148c2 -3.33301 4 -6.33301 6 -9l6 -8c7.33301 -10 17.166 -20.167 29.499 -30.5s28.166 -16.166 47.499 -17.499c3.33301 0 4.33301 -1.33301 3 -4
c-4 -6.66699 -10.667 -12.834 -20 -18.501s-19.833 -9.5 -31.5 -11.5s-23.834 -1.83301 -36.501 0.5s-24.667 8.5 -36 18.5l-3 3c-1.33301 -1.33301 -2.66602 -2.33301 -3.99902 -3c-11.333 -10 -23.166 -16.167 -35.499 -18.5s-24.333 -2.5 -36 -0.5
s-22.167 5.83301 -31.5 11.5s-16 11.834 -20 18.501c-1.33301 2.66699 -0.333008 4 3 4c10.667 0.666992 18.334 3 23.001 7s7.33398 8.5 8.00098 13.5s-0.166016 10.5 -2.49902 16.5s-5.16602 11.667 -8.49902 17l-6 9l-2 2l-59 86l-55 80
c-5.33301 -9.33301 -10 -17.833 -14 -25.5l-10 -19.5v-121c0 -3.33301 0.5 -8.33301 1.5 -15s3.5 -13.5 7.5 -20.5s10.167 -13.5 18.5 -19.5s20.166 -9.33301 35.499 -10c3.33301 0 4.33301 -1.33301 3 -4c-4 -6.66699 -10.667 -12.834 -20 -18.501
s-19.833 -9.5 -31.5 -11.5s-23.834 -1.83301 -36.501 0.5s-24.667 8.5 -36 18.5l-3 3l-3 -3c-11.333 -10 -23.333 -16.167 -36 -18.5s-24.834 -2.5 -36.501 -0.5s-22.167 5.83301 -31.5 11.5s-16 11.834 -20 18.501c-1.33301 2.66699 -0.333008 4 3 4
c14.667 0.666992 26.334 4 35.001 10s15 12.5 19 19.5s6.5 13.833 7.5 20.5s1.5 11.667 1.5 15v520c0 3.33301 -0.5 8.5 -1.5 15.5s-3.5 14 -7.5 21s-10.333 13.333 -19 19s-20.334 8.83398 -35.001 9.50098c-2.66699 1.33301 -3.66699 2.66602 -3 3.99902
c4 6.66699 10.667 12.834 20 18.501s19.833 9.5 31.5 11.5s23.834 1.83301 36.501 -0.5s24.667 -8.5 36 -18.5l3 -3l3 3c11.333 10 23.333 16.167 36 18.5s24.834 2.5 36.501 0.5s22.167 -5.83301 31.5 -11.5s16 -11.834 20 -18.501
c0.666992 -1.33301 -0.333008 -2.66602 -3 -3.99902c-15.333 -0.666992 -27.166 -3.83398 -35.499 -9.50098s-14.5 -12 -18.5 -19s-6.5 -14 -7.5 -21s-1.5 -12.167 -1.5 -15.5v-2v-315c14 25.333 31.167 53.333 51.5 84l63.5 97
c60.667 91.333 118.334 161.166 173.001 209.499s109 72.5 163 72.5z" />
    <glyph glyph-name="L" unicode="L" horiz-adv-x="589" 
d="M503 20c13.333 -1.33301 24.665 -4.33301 33.998 -9c8 -4 15 -9.83301 21 -17.5s7.33301 -18.5 4 -32.5c-7.33301 2.66699 -16.333 5.33398 -27 8.00098c-9.33301 2 -20.666 4 -33.999 6s-29.333 3 -48 3h-272c-8.66699 0.666992 -17.167 2.5 -25.5 5.5
s-16.5 8.16699 -24.5 15.5l-3 3l-3 -3c-11.333 -10 -23.333 -16.167 -36 -18.5s-24.834 -2.5 -36.501 -0.5s-22.167 5.83301 -31.5 11.5s-16 11.834 -20 18.501c-1.33301 2.66699 -0.333008 4 3 4c14.667 0.666992 26.334 3.83398 35.001 9.50098s15 12 19 19s6.5 14 7.5 21
s1.5 12.167 1.5 15.5v520c0 3.33301 -0.5 8.5 -1.5 15.5s-3.5 14 -7.5 21s-10.333 13.333 -19 19s-20.334 8.83398 -35.001 9.50098c-3.33301 0 -4.33301 1.33301 -3 4c4 6.66699 10.667 12.834 20 18.501s19.833 9.5 31.5 11.5s23.834 1.83301 36.501 -0.5
s24.667 -8.5 36 -18.5l3 -3l3 3c11.333 10 23.333 16.167 36 18.5s24.834 2.5 36.501 0.5s22.167 -5.83301 31.5 -11.5s16 -11.834 20 -18.501c1.33301 -2.66699 0.333008 -4 -3 -4c-15.333 -0.666992 -27.166 -3.83398 -35.499 -9.50098s-14.5 -12 -18.5 -19
s-6.5 -14 -7.5 -21s-1.5 -12.167 -1.5 -15.5v-518c0 -8.66699 0.5 -16.834 1.5 -24.501s4 -14.334 9 -20.001s12.667 -10.167 23 -13.5s24.833 -5 43.5 -5h42c34 0 60.167 6.16699 78.5 18.5s30.666 26.166 36.999 41.499s7.5 30.333 3.5 45s-12 24.334 -24 29.001
c-2.66699 1.33301 -3 2.66602 -1 3.99902s4.66699 2.33301 8 3c22.667 4.66699 43.5 4 62.5 -2s33.5 -15.667 43.5 -29s14.5 -29.5 13.5 -48.5s-9.83301 -38.833 -26.5 -59.5z" />
    <glyph glyph-name="M" unicode="M" horiz-adv-x="1167" 
d="M1139 14c3.33301 0 4 -0.999023 2 -2.99902c-4 -6.66699 -10.667 -12.834 -20 -18.501s-19.833 -9.66699 -31.5 -12s-23.834 -2.33301 -36.501 0s-24.334 8.5 -35.001 18.5l-3 3c-0.666992 -0.666992 -1.33398 -1.16699 -2.00098 -1.5s-1.33398 -0.833008 -2.00098 -1.5
c-11.333 -10 -23.166 -16.167 -35.499 -18.5s-24.333 -2.33301 -36 0s-22.167 6.33301 -31.5 12s-16 11.834 -20 18.501c-2 2 -1.33301 3 2 3c15.333 0.666992 27.333 4 36 10s15 12.5 19 19.5s6.5 14 7.5 21s1.5 12.167 1.5 15.5v2v446l-188 -430
c-5.33301 -13.333 -15.333 -20 -30 -20c-14 0 -24.333 6.66699 -31 20l-214 504v-606c0 -67.333 -23.333 -121.333 -70 -162c-20 -18 -43.167 -31.667 -69.5 -41s-54.166 -14 -83.499 -14c-58 0 -106.5 11.667 -145.5 35s-68.667 52.5 -89 87.5s-31.333 73 -33 114
s5.33301 79 21 114s40 64.167 73 87.5s74.5 35 124.5 35c30 0 55.333 -5.33301 76 -16s37 -24.167 49 -40.5s19.667 -34 23 -53s2.5 -36.667 -2.5 -53s-13.833 -29.833 -26.5 -40.5s-29.334 -16 -50.001 -16c5.33301 10.667 8 20.667 8 30
c0 11.333 -2.83301 21.666 -8.5 30.999s-13.167 17.333 -22.5 24s-20.166 11.5 -32.499 14.5s-24.833 4.16699 -37.5 3.5c-26 -2 -47.833 -11.167 -65.5 -27.5s-30.667 -36.166 -39 -59.499s-11.333 -48.5 -9 -75.5s10.666 -52 24.999 -75s34.666 -42 60.999 -57
s59.833 -22.5 100.5 -22.5c22 0 43.833 3.5 65.5 10.5s41.334 17.667 59.001 32s31.834 32.666 42.501 54.999s16 48.833 16 79.5v627c0 11.333 -4 21 -12 29s-17.667 12 -29 12c-3.33301 0 -4.33301 1.33301 -3 4c4 6.66699 10.667 12.834 20 18.501s19.833 9.5 31.5 11.5
s23.834 1.83301 36.501 -0.5s24.667 -8.5 36 -18.5l3 -3l3 3c11.333 10 23.333 16.167 36 18.5s24.834 2.5 36.501 0.5s22.167 -5.83301 31.5 -11.5s16 -11.834 20 -18.501c1.33301 -2.66699 0.333008 -4 -3 -4c-11.333 -0.666992 -19.833 -3 -25.5 -7
s-9.66699 -8.66699 -12 -14s-3.33301 -11.333 -3 -18s1.16602 -12.667 2.49902 -18l163 -377l154 357c4 8.66699 5.66699 17.5 5 26.5s-3.16699 17.167 -7.5 24.5s-10.333 13.333 -18 18s-16.167 7.33398 -25.5 8.00098h-1c-2.66699 0 -3.33398 1.33301 -2.00098 4
c4 6.66699 10.667 12.834 20 18.501s19.833 9.5 31.5 11.5s23.667 1.83301 36 -0.5s24.166 -8.5 35.499 -18.5c0.666992 -0.666992 1.33398 -1.16699 2.00098 -1.5s1.33398 -0.833008 2.00098 -1.5l3 3c10.667 10 22.334 16.167 35.001 18.5s24.834 2.5 36.501 0.5
s22.167 -5.83301 31.5 -11.5s16 -11.834 20 -18.501c1.33301 -2.66699 0.666016 -4 -2.00098 -4c-15.333 -0.666992 -27.333 -3.83398 -36 -9.50098s-15 -12 -19 -19s-6.5 -14 -7.5 -21s-1.5 -12.167 -1.5 -15.5v-517v-2c0 -3.33301 0.5 -8.5 1.5 -15.5s3.5 -14 7.5 -21
s10.333 -13.5 19 -19.5s20.667 -9.33301 36 -10z" />
    <glyph glyph-name="N" unicode="N" horiz-adv-x="1012" 
d="M983 14c3.33301 0 4.3291 -1.32812 2.99609 -3.99512c-4 -6.66699 -10.667 -12.834 -20 -18.501s-19.833 -9.5 -31.5 -11.5s-23.834 -1.83301 -36.501 0.5s-24.667 8.5 -36 18.5l-3 3l-3 -3c-11.333 -10 -23.333 -16.167 -36 -18.5s-24.834 -2.5 -36.501 -0.5
s-22.167 5.83301 -31.5 11.5s-16 11.834 -20 18.501c-1.33301 2.66699 -0.333008 4 3 4c17.333 1.33301 26.833 6.83301 28.5 16.5s0.5 20.167 -3.5 31.5l-64 131l-69 143l-70 145l-66 137v-628c0 -67.333 -23.333 -121.333 -70 -162c-20 -18 -43.167 -31.833 -69.5 -41.5
s-54.166 -14.5 -83.499 -14.5c-58 0 -106.5 11.667 -145.5 35s-68.667 52.666 -89 87.999s-31.333 73.333 -33 114s5.33301 78.667 21 114s40 64.666 73 87.999s74.5 35 124.5 35c24.667 0 45.334 -4 62.001 -12s30.167 -18.333 40.5 -31s17.166 -26.334 20.499 -41.001
s4 -28.667 2 -42s-6.83301 -24.833 -14.5 -34.5s-17.5 -15.834 -29.5 -18.501c-1.33301 0 -2 0.333008 -2 1c-0.666992 17.333 -6.5 31.833 -17.5 43.5s-24.833 20 -41.5 25s-34.5 6.16699 -53.5 3.5s-36.333 -10 -52 -22s-28.667 -28.833 -39 -50.5
s-14.833 -49.167 -13.5 -82.5c0.666992 -21.333 4.66699 -42.166 12 -62.499s18.5 -38.833 33.5 -55.5s34.167 -30 57.5 -40s51.333 -15 84 -15c22 0 43.833 3.5 65.5 10.5s41.334 17.833 59.001 32.5s31.834 33.167 42.501 55.5s16 48.833 16 79.5v611v4v6
c0 4.66699 -0.5 10 -1.5 16s-3.33301 11.5 -7 16.5s-9 9.5 -16 13.5s-16.5 6.33301 -28.5 7c-2.66699 1.33301 -3.66699 2.66602 -3 3.99902c4 6.66699 10.667 12.834 20 18.501s19.833 9.5 31.5 11.5s23.834 1.83301 36.501 -0.5s24.667 -8.5 36 -18.5l3 -3l3 3
c11.333 10 23.333 16.167 36 18.5s24.834 2.5 36.501 0.5s22.167 -5.83301 31.5 -11.5s16 -11.834 20 -18.501c0.666992 -2 -0.333008 -3.33301 -3 -4c-15.333 -1.33301 -23.5 -6.83301 -24.5 -16.5s0.5 -19.834 4.5 -30.501l14 -28l250 -518v532
c0 7.33301 -0.5 15.666 -1.5 24.999s-3.33301 18 -7 26s-9 14.167 -16 18.5s-16.833 5.16602 -29.5 2.49902c-3.33301 0 -4 1 -2 3c2 2.66699 5.66699 6 11 10s11.5 7.16699 18.5 9.5s14.5 3 22.5 2s16 -4.83301 24 -11.5c8 6.66699 15.833 10.5 23.5 11.5
s15 0.333008 22 -2s13.167 -5.5 18.5 -9.5s9.33301 -7.33301 12 -10c2 -2 1.33301 -3 -2 -3c-12.667 2.66699 -22.667 1.83398 -30 -2.49902s-12.666 -10.5 -15.999 -18.5s-5.5 -16.667 -6.5 -26s-1.5 -17.666 -1.5 -24.999v-525v-5v-5c0 -5.33301 0.5 -10.833 1.5 -16.5
s3.33301 -11.167 7 -16.5s9 -10 16 -14s16.5 -6.33301 28.5 -7z" />
    <glyph glyph-name="O" unicode="O" horiz-adv-x="586" 
d="M561 339c0 -50 -6.16699 -96.833 -18.5 -140.5s-30.333 -81.834 -54 -114.501s-52.834 -58.5 -87.501 -77.5s-74.667 -28.5 -120 -28.5h-1c-45.333 0 -85.333 9.5 -120 28.5s-63.834 44.833 -87.501 77.5s-41.667 70.834 -54 114.501s-18.5 90.5 -18.5 140.5
s6.16699 96.833 18.5 140.5s30.333 81.834 54 114.501s52.834 58.5 87.501 77.5s74.667 28.5 120 28.5h1c45.333 0 85.333 -9.5 120 -28.5s63.834 -44.833 87.501 -77.5s41.667 -70.834 54 -114.501s18.5 -90.5 18.5 -140.5zM281 18c21.333 0 40.001 4.99707 56.001 14.9971
s29.667 23.333 41 40s20.666 36 27.999 58s13.166 44.833 17.499 68.5s7.33301 47.5 9 71.5s2.5 46.667 2.5 68c-0.666992 30 -2.66699 62.333 -6 97s-9.66602 67.667 -18.999 99c-5.33301 -6 -11.833 -10.167 -19.5 -12.5s-15.167 -3.5 -22.5 -3.5s-14.333 0.5 -21 1.5
s-11.667 1.83301 -15 2.5c-4.66699 1.33301 -5.33398 3 -2.00098 5c15.333 20.667 23.833 39.334 25.5 56.001s-0.833008 30.5 -7.5 41.5s-16.334 19.5 -29.001 25.5s-25.334 9 -38.001 9l-1 -1v1c-32 0 -58.167 -10.833 -78.5 -32.5s-36 -48.5 -47 -80.5
s-18.5 -66.667 -22.5 -104s-6 -72 -6 -104c0 -30 1.83301 -62.333 5.5 -97s10.167 -67.667 19.5 -99c4.66699 6 10.834 10.167 18.501 12.5s15.334 3.5 23.001 3.5s14.834 -0.666992 21.501 -2l15 -3c1.33301 0 2.33301 -0.5 3 -1.5s0.333984 -1.83301 -0.999023 -2.5
c-16 -21.333 -24.833 -40.166 -26.5 -56.499s1 -30.166 8 -41.499s16.667 -19.833 29 -25.5s25.166 -8.5 38.499 -8.5h1z" />
    <glyph glyph-name="P" unicode="P" horiz-adv-x="583" 
d="M119 388c-27.333 4 -50.5 15.833 -69.5 35.5s-32.5 42.834 -40.5 69.501s-9.83301 55.167 -5.5 85.5s16.166 58.166 35.499 83.499s46.666 46.333 81.999 63s80.333 25 135 25c36 0 72 -5.33301 108 -16s68.333 -26.5 97 -47.5s52 -47.5 70 -79.5s27 -69.333 27 -112
c0 -42 -9 -80.167 -27 -114.5s-42 -64.5 -72 -90.5s-64 -47.667 -102 -65s-77 -30 -117 -38v-108c0 -3.33301 0.5 -8.33301 1.5 -15s3.5 -13.5 7.5 -20.5s10.333 -13.5 19 -19.5s20.667 -9.33301 36 -10c2.66699 0 3.33398 -1.33301 2.00098 -4
c-4 -6.66699 -10.667 -12.834 -20 -18.501s-19.833 -9.5 -31.5 -11.5s-23.834 -1.83301 -36.501 0.5s-24.334 8.5 -35.001 18.5l-3 3c-1.33301 -1.33301 -2.66602 -2.33301 -3.99902 -3c-11.333 -10 -23.166 -16.167 -35.499 -18.5s-24.333 -2.5 -36 -0.5
s-22.167 5.83301 -31.5 11.5s-16 11.834 -20 18.501c-1.33301 2.66699 -0.666016 4 2.00098 4c15.333 0.666992 27.333 4 36 10s15 12.5 19 19.5s6.5 13.833 7.5 20.5s1.5 11.667 1.5 15v309zM240 223c64.667 22.667 113.998 59.167 147.998 109.5s50.667 108.833 50 175.5
c0 26 -4.16699 51 -12.5 75s-20.666 45.333 -36.999 64s-36.666 33.5 -60.999 44.5s-52.833 16.5 -85.5 16.5c-20.667 0 -40.5 -3 -59.5 -9s-35.667 -14.833 -50 -26.5s-25.833 -25.834 -34.5 -42.501s-13 -35.334 -13 -56.001c0 -19.333 4.33301 -36 13 -50
s19.5 -24.833 32.5 -32.5s27.167 -12 42.5 -13s29.5 1.83301 42.5 8.5s23.667 17.334 32 32.001s12.5 33.667 12.5 57c0 2.66699 1.66699 3.33398 5 2.00098c12.667 -8 22.167 -19.833 28.5 -35.5s8.83301 -32.5 7.5 -50.5s-7 -35.5 -17 -52.5s-24.667 -30.167 -44 -39.5
v-177z" />
    <glyph glyph-name="Q" unicode="Q" horiz-adv-x="913" 
d="M877 -124c2 2 4.33105 2.5 6.99805 1.5s3.66699 -3.16699 3 -6.5c-1.33301 -10 -4.33301 -21.5 -9 -34.5s-12.5 -25 -23.5 -36s-26 -19.833 -45 -26.5s-43.5 -9.33398 -73.5 -8.00098c-28 1.33301 -56 7.5 -84 18.5s-55.667 24.333 -83 40s-54.166 32.5 -80.499 50.5
l-76.5 50c-24.667 15.333 -48 28 -70 38s-42.333 15 -61 15h-1h-5c-3.33301 0 -7.66602 -0.5 -12.999 -1.5s-11.166 -3 -17.499 -6s-12.833 -7.33301 -19.5 -13s-13 -13.5 -19 -23.5c-1.33301 -2 -2.83301 -2.83301 -4.5 -2.5s-2.83398 1.5 -3.50098 3.5
c-2 7.33301 -3.16699 16.166 -3.5 26.499s2.83398 19.5 9.50098 27.5c-33.333 9.33301 -62.666 24.833 -87.999 46.5s-46.5 48 -63.5 79s-30 65.5 -39 103.5s-13.5 78.333 -13.5 121c0 50 6.16699 96.833 18.5 140.5s30.333 81.834 54 114.501s52.834 58.5 87.501 77.5
s74.667 28.5 120 28.5h1c45.333 0 85.333 -9.5 120 -28.5s63.834 -44.833 87.501 -77.5s41.667 -70.834 54 -114.501s18.5 -90.5 18.5 -140.5c0 -43.333 -4.66699 -84.5 -14 -123.5s-23 -74 -41 -105s-40.333 -57.333 -67 -79s-57.334 -36.834 -92.001 -45.501
c29.333 -8 60.166 -19.333 92.499 -34l98.5 -45c33.333 -15.333 66.666 -29.166 99.999 -41.499s65.666 -19.833 96.999 -22.5c22 -2 41 -2.16699 57 -0.5s29.667 4.33398 41 8.00098s20.5 7.83398 27.5 12.501s12.5 9 16.5 13zM280.998 18
c21.333 0 40.001 4.99707 56.001 14.9971s29.667 23.333 41 40s20.666 36 27.999 58s13.166 44.833 17.499 68.5s7.33301 47.5 9 71.5s2.5 46.667 2.5 68c-0.666992 30 -2.66699 62.333 -6 97s-9.66602 67.667 -18.999 99c-5.33301 -6 -11.833 -10.167 -19.5 -12.5
s-15.167 -3.5 -22.5 -3.5s-14.333 0.5 -21 1.5s-11.667 1.83301 -15 2.5c-4.66699 1.33301 -5.33398 3 -2.00098 5c15.333 20.667 23.833 39.334 25.5 56.001s-0.833008 30.5 -7.5 41.5s-16.334 19.5 -29.001 25.5s-25.334 9 -38.001 9l-1 -1v1
c-32 0 -58.167 -10.833 -78.5 -32.5s-36 -48.5 -47 -80.5s-18.5 -66.667 -22.5 -104s-6 -72 -6 -104c0 -30 1.83301 -62.333 5.5 -97s10.167 -67.667 19.5 -99c4.66699 6 10.834 10.167 18.501 12.5s15.334 3.5 23.001 3.5s14.834 -0.666992 21.501 -2l15 -3
c1.33301 0 2.33301 -0.5 3 -1.5s0.333984 -1.83301 -0.999023 -2.5c-16 -21.333 -24.833 -40.166 -26.5 -56.499s1 -30.166 8 -41.499s16.667 -19.833 29 -25.5s25.166 -8.5 38.499 -8.5h1z" />
    <glyph glyph-name="R" unicode="R" horiz-adv-x="701" 
d="M671 -85c1.33301 0 2.50195 -0.334961 3.50195 -1.00195s1.16699 -1.66699 0.5 -3c-1.33301 -3.33301 -3.33301 -7.5 -6 -12.5s-6.66699 -10 -12 -15s-12 -9.5 -20 -13.5s-18 -6.33301 -30 -7c-30.667 -2 -55.667 1.83301 -75 11.5s-35 23 -47 40
s-21.167 36.667 -27.5 59s-12 45 -17 68l-15 67c-5 21.667 -12.333 40.334 -22 56.001s-22.334 27.334 -38.001 35.001s-36.5 9.16699 -62.5 4.5c-10 -3.33301 -20.167 -6.33301 -30.5 -9l-32.5 -8v-108c0 -3.33301 0.5 -8.33301 1.5 -15s3.5 -13.5 7.5 -20.5
s10.333 -13.5 19 -19.5s20.667 -9.33301 36 -10c2.66699 0 3.33398 -1.33301 2.00098 -4c-4 -6.66699 -10.667 -12.834 -20 -18.501s-19.833 -9.5 -31.5 -11.5s-23.834 -1.83301 -36.501 0.5s-24.334 8.5 -35.001 18.5l-3 3
c-1.33301 -1.33301 -2.66602 -2.33301 -3.99902 -3c-11.333 -10 -23.166 -16.167 -35.499 -18.5s-24.333 -2.5 -36 -0.5s-22.167 5.83301 -31.5 11.5s-16 11.834 -20 18.501c-1.33301 2.66699 -0.666016 4 2.00098 4c15.333 0.666992 27.333 4 36 10s15 12.5 19 19.5
s6.5 13.833 7.5 20.5s1.5 11.667 1.5 15v309c-27.333 4 -50.5 15.833 -69.5 35.5s-32.5 42.834 -40.5 69.501s-9.83301 55.167 -5.5 85.5s16.166 58.166 35.499 83.499s46.666 46.333 81.999 63s80.333 25 135 25c36 0 72 -5.33301 108 -16s68.333 -26.5 97 -47.5
s52 -47.5 70 -79.5s27 -69.333 27 -112c0 -30.667 -5 -59.334 -15 -86.001s-23.5 -51 -40.5 -73s-37.333 -41.833 -61 -59.5s-48.834 -33.167 -75.501 -46.5c40.667 2.66699 73.5 -3.66602 98.5 -18.999s45 -35.333 60 -60s26.833 -51.5 35.5 -80.5s17.5 -55.667 26.5 -80
s19.667 -44 32 -59s29.833 -20.5 52.5 -16.5zM265.002 577.998c12.667 -8 22.165 -19.833 28.498 -35.5s8.83301 -32.5 7.5 -50.5s-7 -35.5 -17 -52.5s-24.667 -30.167 -44 -39.5v-92v-29v-33v-16v-7c64.667 22.667 114 59.167 148 109.5s50.667 108.833 50 175.5
c0 26 -4.16699 51 -12.5 75s-20.666 45.333 -36.999 64s-36.666 33.5 -60.999 44.5s-52.833 16.5 -85.5 16.5c-20.667 0 -40.5 -3 -59.5 -9s-35.667 -14.833 -50 -26.5s-25.833 -25.834 -34.5 -42.501s-13 -35.334 -13 -56.001c0 -19.333 4.33301 -36 13 -50
s19.5 -24.833 32.5 -32.5s27.167 -12 42.5 -13s29.5 1.83301 42.5 8.5s23.667 17.334 32 32.001s12.5 33.667 12.5 57c0 2.66699 1.66699 3.33398 5 2.00098z" />
    <glyph glyph-name="S" unicode="S" horiz-adv-x="542" 
d="M131 544c2.66699 -20 14.3301 -37.6631 34.9971 -52.9961s45.834 -30.5 75.501 -45.5l94.5 -47c33.333 -16.333 63.833 -35.5 91.5 -57.5s50.167 -47.5 67.5 -76.5s24.333 -63.5 21 -103.5c-2 -31.333 -10.167 -58.333 -24.5 -81s-32.5 -41.667 -54.5 -57
s-46.833 -26.666 -74.5 -33.999s-56.5 -11 -86.5 -11c-59.333 0 -108.333 8.16699 -147 24.5s-68.334 36.166 -89.001 59.499s-33 48.166 -37 74.499s-1.33301 49.666 8 69.999s24.666 35.333 45.999 45s47.333 9.5 78 -0.5c3.33301 -1.33301 4.33301 -3.33301 3 -6
c-16 -26.667 -24.833 -53.5 -26.5 -80.5s3.66602 -51.5 15.999 -73.5s31.166 -39.833 56.499 -53.5s57 -20.5 95 -20.5c19.333 0 37.333 2.66699 54 8s31.167 13.333 43.5 24s21.833 23.667 28.5 39s9.66699 33 9 53c-0.666992 24.667 -10.667 46 -30 64
s-43.333 34.667 -72 50s-59.667 30.666 -93 45.999s-64.166 32.666 -92.499 51.999s-51.833 41.333 -70.5 66s-27.667 54.667 -27 90c0.666992 28.667 6.83398 55 18.501 79s27.834 44.5 48.501 61.5s45.5 30 74.5 39s61.167 13.167 96.5 12.5
c3.33301 -0.666992 6.33301 -1 9 -1h8h1c2 0 8 -0.333008 18 -1s22.333 -1.16699 37 -1.5s30.5 -0.5 47.5 -0.5s33.167 0.333008 48.5 1s28.833 2 40.5 4s19.5 4.66699 23.5 8c0 0.666992 0.166992 0.833984 0.5 0.500977s0.5 -0.833008 0.5 -1.5
c0 -3.33301 -0.666992 -8.66602 -2 -15.999s-4.16602 -14.833 -8.49902 -22.5s-10.666 -14.667 -18.999 -21s-19.5 -9.83301 -33.5 -10.5c16 -17.333 26.667 -36 32 -56s5.83301 -38.5 1.5 -55.5s-12.833 -31 -25.5 -42s-28.334 -16.5 -47.001 -16.5
c-8 0 -17 1.83301 -27 5.5s-17.333 8.83398 -22 15.501c-3.33301 3.33301 -2.66602 7 2.00098 11c15.333 9.33301 26 22.666 32 39.999s6.16699 34.833 0.5 52.5s-18 33.167 -37 46.5s-45.833 20.333 -80.5 21c-18 0 -35.667 -2.33301 -53 -7
s-32.666 -11.834 -45.999 -21.501s-23.5 -21.834 -30.5 -36.501s-9.16699 -32 -6.5 -52z" />
    <glyph glyph-name="T" unicode="T" horiz-adv-x="983" 
d="M783 651c30 -1.33301 51.6709 2.83594 65.0039 12.5029s22.333 20.5 27 32.5c5.33301 14 6.66602 30.333 3.99902 49c16 2 30.167 -0.166992 42.5 -6.5s21.666 -14.833 27.999 -25.5s8.83301 -22.334 7.5 -35.001s-7.33301 -24.334 -18 -35.001s-27 -19.334 -49 -26.001
s-50.667 -8.66699 -86 -6c-30 2 -62 4.83301 -96 8.5s-69.667 8.16699 -107 13.5v-554c0 -3.33301 0.5 -8.33301 1.5 -15s3.5 -13.5 7.5 -20.5s10.333 -13.5 19 -19.5s20.667 -9.33301 36 -10c2.66699 0 3.33398 -1.33301 2.00098 -4
c-4 -6.66699 -10.667 -12.834 -20 -18.501s-19.833 -9.5 -31.5 -11.5s-23.834 -1.83301 -36.501 0.5s-24.334 8.5 -35.001 18.5c-1.33301 1.33301 -2.66602 2.33301 -3.99902 3l-3 -3c-11.333 -10 -23.166 -16.167 -35.499 -18.5s-24.333 -2.5 -36 -0.5
s-22.167 5.83301 -31.5 11.5s-16 11.834 -20 18.501c-1.33301 2.66699 -0.666016 4 2.00098 4c15.333 0.666992 27.333 4 36 10s15 12.5 19 19.5s6.5 13.833 7.5 20.5s1.5 11.667 1.5 15v565v3v3c-32 4 -63 7.5 -93 10.5s-58.667 4.5 -86 4.5c-48 0 -88.333 -9 -121 -27
s-57.834 -40.5 -75.501 -67.5s-28 -56.333 -31 -88s0.5 -61 10.5 -88s26.5 -49.5 49.5 -67.5s52.167 -27 87.5 -27c18.667 0 36.667 3.16699 54 9.5s31.833 15.666 43.5 27.999s19.5 27.5 23.5 45.5s2.33301 38.333 -5 61c-0.666992 1.33301 -0.5 2.33301 0.5 3
s2.16699 1 3.5 1c23.333 -2.66699 40.666 -12 51.999 -28s17.666 -34.667 18.999 -56c2 -24.667 -1.5 -46.5 -10.5 -65.5s-21.5 -35.167 -37.5 -48.5s-34.833 -23.666 -56.5 -30.999s-43.834 -11.333 -66.501 -12c-42 -1.33301 -78.667 5 -110 19s-57 32.667 -77 56
s-34.5 50.166 -43.5 80.499s-12.167 61.5 -9.5 93.5s10.667 63.167 24 93.5s32.5 57.166 57.5 80.499s55.667 42 92 56s78.5 20.333 126.5 19c42 -1.33301 87 -4.66602 135 -9.99902s96.333 -11.666 145 -18.999c41.333 -5.33301 77.5 -10.333 108.5 -15s62.167 -8 93.5 -10
z" />
    <glyph glyph-name="U" unicode="U" horiz-adv-x="628" 
d="M1 668c4 6.66699 10.666 12.8311 19.999 18.498s19.833 9.5 31.5 11.5s23.834 1.83301 36.501 -0.5s24.667 -8.5 36 -18.5l3 -3l3 3c11.333 10 23.333 16.167 36 18.5s24.834 2.5 36.501 0.5s22.167 -5.83301 31.5 -11.5s16 -11.834 20 -18.501
c1.33301 -2.66699 0.333008 -4 -3 -4c-15.333 -0.666992 -27.166 -3.83398 -35.499 -9.50098s-14.5 -12 -18.5 -19s-6.5 -14 -7.5 -21s-1.5 -12.167 -1.5 -15.5v-354c0 -37.333 2 -69.666 6 -96.999s10.833 -50.166 20.5 -68.499s22.5 -32.5 38.5 -42.5
s35.667 -16.333 59 -19c21.333 -2.66699 43.5 -1.33398 66.5 3.99902s43.833 16.333 62.5 33s34 40.334 46 71.001s18 70.334 18 119.001v358c0 7.33301 -0.5 15.666 -1.5 24.999s-3.33301 18 -7 26s-9 14.167 -16 18.5s-16.833 5.16602 -29.5 2.49902c-3.33301 0 -4 1 -2 3
c2.66699 2.66699 6.66699 6 12 10s11.5 7.16699 18.5 9.5s14.333 3 22 2s15.5 -4.83301 23.5 -11.5c8 6.66699 15.833 10.5 23.5 11.5s15 0.333008 22 -2s13.167 -5.5 18.5 -9.5s9.33301 -7.33301 12 -10c2 -2 1.33301 -3 -2 -3
c-12.667 2.66699 -22.5 1.83398 -29.5 -2.49902s-12.333 -10.5 -16 -18.5s-6 -16.667 -7 -26s-1.5 -17.666 -1.5 -24.999v-358c0 -50 -5.66699 -92 -17 -126s-27.333 -61.5 -48 -82.5s-45.667 -36 -75 -45s-62.333 -13.5 -99 -13.5c-37.333 0 -70.833 4.5 -100.5 13.5
s-54.834 24 -75.501 45s-36.5 48.5 -47.5 82.5s-16.5 76 -16.5 126v354c0 3.33301 -0.5 8.5 -1.5 15.5s-3.5 14 -7.5 21s-10.333 13.333 -19 19s-20.334 8.83398 -35.001 9.50098c-3.33301 0 -4.33301 1.33301 -3 4z" />
    <glyph glyph-name="V" unicode="V" horiz-adv-x="624" 
d="M4 664c-3.33301 0 -4.32812 1.33398 -2.99512 4.00098c4 6.66699 10.667 12.834 20 18.501s19.833 9.5 31.5 11.5s23.834 1.83301 36.501 -0.5s24.667 -8.5 36 -18.5l3 -3l3 3c11.333 10 23.333 16.167 36 18.5s24.834 2.5 36.501 0.5s22.167 -5.83301 31.5 -11.5
s16 -11.834 20 -18.501c1.33301 -2.66699 0.333008 -4 -3 -4c-15.333 -0.666992 -26.5 -3.5 -33.5 -8.5s-11.833 -10.833 -14.5 -17.5s-3.5 -13.667 -2.5 -21s2.16699 -13.333 3.5 -18l3 -8l137 -536l152 582c1.33301 9.33301 0.666016 19 -2.00098 29s-10 16 -22 18
c-1.33301 0.666992 -2.33301 1.66699 -3 3s-0.333984 2.66602 0.999023 3.99902c6.66699 3.33301 15.167 6.16602 25.5 8.49902s20.166 -1.16699 29.499 -10.5l2 -1c2.66699 2.66699 6.66699 5.33398 12 8.00098s11.333 4 18 4s13.5 -1.66699 20.5 -5
s13.5 -9.66602 19.5 -18.999c1.33301 -4 0 -6.33301 -4 -7c-3.33301 0 -7.83301 -0.5 -13.5 -1.5s-11.334 -3.16699 -17.001 -6.5s-11 -7.83301 -16 -13.5s-8.83301 -13.167 -11.5 -22.5l-143 -546c-1.33301 -3.33301 -2.5 -8.5 -3.5 -15.5s-0.5 -14 1.5 -21
s6.33301 -13.333 13 -19s17 -8.83398 31 -9.50098c2.66699 0 3.33398 -1.33301 2.00098 -4c-4 -6.66699 -10.667 -12.834 -20 -18.501s-19.833 -9.5 -31.5 -11.5s-23.834 -1.83301 -36.501 0.5s-24.334 8.5 -35.001 18.5c-0.666992 0.666992 -1.33398 1.16699 -2.00098 1.5
s-1.33398 0.833008 -2.00098 1.5l-3 -3c-11.333 -10 -23.166 -16.167 -35.499 -18.5s-24.333 -2.5 -36 -0.5s-22.167 5.83301 -31.5 11.5s-16 11.834 -20 18.501c-1.33301 2.66699 -0.666016 4 2.00098 4c8 0.666992 14.333 2.5 19 5.5s8 6.83301 10 11.5
s3.16699 9.66699 3.5 15s0.166016 10.333 -0.500977 15l-128 478c-6 22.667 -13 43 -21 61c-7.33301 15.333 -16.333 29.5 -27 42.5s-23.334 20.167 -38.001 21.5z" />
    <glyph glyph-name="W" unicode="W" horiz-adv-x="964" 
d="M938 676c2 -3.33301 1.00195 -5.66797 -2.99805 -7.00098c-4 0 -8.66699 -0.5 -14 -1.5s-10.833 -3.16699 -16.5 -6.5s-11 -7.83301 -16 -13.5s-8.83301 -13.167 -11.5 -22.5l-143 -546c-1.33301 -3.33301 -2.5 -8.5 -3.5 -15.5s-0.5 -14 1.5 -21
s6.16699 -13.333 12.5 -19s16.5 -8.83398 30.5 -9.50098c3.33301 0 4.33301 -1.33301 3 -4c-4 -6.66699 -10.667 -12.834 -20 -18.501s-19.833 -9.5 -31.5 -11.5s-23.834 -1.83301 -36.501 0.5s-24.667 8.5 -36 18.5l-3 3l-3 -3c-11.333 -10 -23.333 -16.167 -36 -18.5
s-24.834 -2.5 -36.501 -0.5s-22.167 5.83301 -31.5 11.5s-16 11.834 -20 18.501c-1.33301 2.66699 -0.333008 4 3 4c15.333 0.666992 24.666 6.33398 27.999 17.001s4.33301 20.667 3 30l-84 316l-81 -298c-1.33301 -3.33301 -2.5 -8.5 -3.5 -15.5s-0.5 -14 1.5 -21
s6.33301 -13.333 13 -19s17 -8.83398 31 -9.50098c2.66699 0 3.33398 -1.33301 2.00098 -4c-4 -6.66699 -10.667 -12.834 -20 -18.501s-19.833 -9.5 -31.5 -11.5s-23.834 -1.83301 -36.501 0.5s-24.334 8.5 -35.001 18.5c-0.666992 0.666992 -1.33398 1.16699 -2.00098 1.5
s-1.33398 0.833008 -2.00098 1.5l-3 -3c-11.333 -10 -23.166 -16.167 -35.499 -18.5s-24.333 -2.5 -36 -0.5s-22.167 5.83301 -31.5 11.5s-16 11.834 -20 18.501c-1.33301 2.66699 -0.666016 4 2.00098 4c8 0.666992 14.333 2.5 19 5.5s8 6.83301 10 11.5
s3.16699 9.66699 3.5 15s0.166016 10.333 -0.500977 15l-128 498l-10 40l-1 2l-5.5 16c-2.33301 6.66699 -6.33301 13.334 -12 20.001s-13.167 12.667 -22.5 18s-21 8.33301 -35 9c-3.33301 0 -4.33301 1.33301 -3 4c4 6.66699 10.667 12.834 20 18.501
s19.833 9.5 31.5 11.5s23.834 1.83301 36.501 -0.5s24.667 -8.5 36 -18.5l3 -3l3 3c11.333 10 23.333 16.167 36 18.5s24.834 2.5 36.501 0.5s22.167 -5.83301 31.5 -11.5s16 -11.834 20 -18.501c1.33301 -2.66699 0.333008 -4 -3 -4
c-15.333 -0.666992 -26.5 -3.5 -33.5 -8.5s-11.833 -10.833 -14.5 -17.5s-3.5 -13.667 -2.5 -21s2.16699 -13.333 3.5 -18l3 -8l137 -536l108 401l-22 103l-11 40v2l-5.5 16c-2.33301 6.66699 -6.33301 13.334 -12 20.001s-13.167 12.667 -22.5 18s-21 8.33301 -35 9
c-3.33301 0 -4.33301 1.33301 -3 4c4 6.66699 10.667 12.834 20 18.501s19.833 9.5 31.5 11.5s23.667 1.83301 36 -0.5s24.166 -8.5 35.499 -18.5c1.33301 -0.666992 2.66602 -1.66699 3.99902 -3l3 3c10.667 10 22.334 16.167 35.001 18.5s24.834 2.5 36.501 0.5
s22.167 -5.83301 31.5 -11.5s16 -11.834 20 -18.501c1.33301 -1.33301 1.66602 -2.33301 0.999023 -3s-1.66699 -1 -3 -1c-15.333 -0.666992 -26.666 -3.5 -33.999 -8.5s-12.166 -10.833 -14.499 -17.5s-3 -13.667 -2 -21s2.16699 -13.333 3.5 -18l2 -8l138 -536l151 582
c1.33301 9.33301 0.666016 19 -2.00098 29s-10 16 -22 18c-1.33301 0.666992 -2.16602 1.66699 -2.49902 3s0.166992 2.66602 1.5 3.99902c6 3.33301 14.333 6.16602 25 8.49902s20.667 -1.16699 30 -10.5l2 -1c2.66699 2.66699 6.5 5.33398 11.5 8.00098s10.833 4 17.5 4
s13.5 -1.66699 20.5 -5s13.5 -9.66602 19.5 -18.999z" />
    <glyph glyph-name="X" unicode="X" horiz-adv-x="590" 
d="M562 14c2.66699 0 3.33008 -1.33203 1.99707 -3.99902c-4 -6.66699 -10.667 -12.834 -20 -18.501s-19.833 -9.5 -31.5 -11.5s-23.834 -1.83301 -36.501 0.5s-24.334 8.5 -35.001 18.5l-3 3c-1.33301 -1.33301 -2.66602 -2.33301 -3.99902 -3
c-11.333 -10 -23.166 -16.167 -35.499 -18.5s-24.333 -2.5 -36 -0.5s-22.167 5.83301 -31.5 11.5s-16 11.834 -20 18.501c-1.33301 2.66699 -0.666016 4 2.00098 4c15.333 0.666992 25.5 4 30.5 10s7.5 12.833 7.5 20.5s-1.66699 15 -5 22s-5.66602 12.5 -6.99902 16.5
l-33.5 68.5l-52.5 109.5l-129 -215l-2 -4c-5.33301 -10 -7 -20 -5 -30s8.66699 -16 20 -18c1.33301 -0.666992 2.16602 -1.66699 2.49902 -3s-0.166992 -2.33301 -1.5 -3c-6 -4 -14.333 -7.16699 -25 -9.5s-20.667 1.16699 -30 10.5l-2 1
c-2 -2.66699 -5.66699 -5.33398 -11 -8.00098s-11.333 -4 -18 -4s-13.5 1.66699 -20.5 5s-13.5 9.66602 -19.5 18.999c-1.33301 1.33301 -1.5 2.83301 -0.5 4.5s2.16699 2.5 3.5 2.5c6.66699 0.666992 16 3 28 7s22.667 12.667 32 26l157 263l-43 89.5l-43 89.5l-46 97
l-5 10c-3.33301 6 -7.5 13 -12.5 21s-11.333 15.833 -19 23.5s-16.5 14.167 -26.5 19.5s-21 8.33301 -33 9c-3.33301 0 -4.33301 1.33301 -3 4c4 6.66699 10.667 12.834 20 18.501s19.833 9.5 31.5 11.5s23.834 1.83301 36.501 -0.5s24.667 -8.5 36 -18.5l3 -3l3 3
c11.333 10 23.333 16.167 36 18.5s24.834 2.5 36.501 0.5s22.167 -5.83301 31.5 -11.5s16 -11.834 20 -18.501c1.33301 -2.66699 0.333008 -4 -3 -4c-15.333 -0.666992 -25.5 -4 -30.5 -10s-7.33301 -12.667 -7 -20s2.16602 -14.666 5.49902 -21.999
s5.66602 -13 6.99902 -17l31 -64.5l50 -103.5l123 206l2 3c5.33301 10 7 20.167 5 30.5s-8.66699 16.166 -20 17.499c-1.33301 0.666992 -2.16602 1.66699 -2.49902 3s0.166992 2.66602 1.5 3.99902c6 3.33301 14.167 6.16602 24.5 8.49902s20.5 -1.16699 30.5 -10.5l1 -1
c2.66699 2.66699 6.66699 5.33398 12 8.00098s11.333 4 18 4s13.5 -1.66699 20.5 -5s13.5 -9.66602 19.5 -18.999c2 -3.33301 1 -5.66602 -3 -6.99902c-6.66699 0 -16 -2.16699 -28 -6.5s-22.667 -12.833 -32 -25.5l-151 -254l44 -92l45 -93l48 -100
c0.666992 -2 1.33398 -3.83301 2.00098 -5.5s1.66699 -3.5 3 -5.5c2.66699 -6 6.66699 -13 12 -21s11.833 -15.833 19.5 -23.5s16.5 -14.167 26.5 -19.5s21 -8.33301 33 -9z" />
    <glyph glyph-name="Y" unicode="Y" horiz-adv-x="516" 
d="M490 676c2 -3.33301 0.998047 -5.66992 -3.00195 -7.00293c-6.66699 0 -15.5 -1.83301 -26.5 -5.5s-20.167 -12.167 -27.5 -25.5l-4 -12c-0.666992 0 -1 -0.333008 -1 -1l-117 -292v-65c0 -28 -0.166992 -55.667 -0.5 -83s-0.5 -51.166 -0.5 -71.499v-31.5v-3
c0 -3.33301 0.5 -8.33301 1.5 -15s3.66699 -13.5 8 -20.5s10.666 -13.5 18.999 -19.5s20.166 -9.33301 35.499 -10c3.33301 0 4.33301 -1.33301 3 -4c-4.66699 -6.66699 -11.667 -12.834 -21 -18.501s-19.833 -9.5 -31.5 -11.5s-23.834 -1.83301 -36.501 0.5
s-24.334 8.5 -35.001 18.5l-3 3c-1.33301 -1.33301 -2.66602 -2.33301 -3.99902 -3c-11.333 -10 -23.166 -16.167 -35.499 -18.5s-24.333 -2.5 -36 -0.5s-22.167 5.83301 -31.5 11.5s-16 11.834 -20 18.501c-1.33301 2.66699 -0.333008 4 3 4
c14.667 0.666992 26.334 4 35.001 10s15 12.5 19 19.5s6.5 13.833 7.5 20.5s1.5 11.667 1.5 15v3v247l-18.5 46.5l-25 63l-28.5 72.5l-30 75c-1.33301 4 -3 8 -5 12s-3.66699 7.66699 -5 11c-2.66699 6 -6 12 -10 18s-8.83301 11.667 -14.5 17s-12.5 9.83301 -20.5 13.5
s-17.333 5.83398 -28 6.50098c-3.33301 0 -4.33301 1.33301 -3 4c4 6.66699 10.667 12.834 20 18.501s19.833 9.5 31.5 11.5s23.834 1.83301 36.501 -0.5s24.667 -8.5 36 -18.5l3 -3l3 3c11.333 10 23.333 16.167 36 18.5s24.834 2.5 36.501 0.5s22.167 -5.83301 31.5 -11.5
s16 -11.834 20 -18.501c1.33301 -2.66699 0.333008 -4 -3 -4c-13.333 -0.666992 -23.333 -3.16699 -30 -7.5s-11.167 -9.5 -13.5 -15.5s-3.16602 -12.167 -2.49902 -18.5s1.66699 -11.833 3 -16.5c0.666992 -2 1.66699 -4.33301 3 -7l45 -112.5l36 -90.5l96 238l1 3
c4 11.333 3.66699 22 -1 32s-12.667 15 -24 15c-1.33301 0 -2.16602 0.833008 -2.49902 2.5s0.166992 3.16699 1.5 4.5c6 3.33301 14.167 6.16602 24.5 8.49902s20.166 -1.16699 29.499 -10.5l2 -1c2.66699 2.66699 6.66699 5.33398 12 8.00098s11.333 4 18 4
s13.5 -1.66699 20.5 -5s13.5 -9.66602 19.5 -18.999z" />
    <glyph glyph-name="Z" unicode="Z" horiz-adv-x="590" 
d="M3 717c7.33301 -3.33301 16.333 -6.33301 27 -9c9.33301 -2 20.833 -3.83301 34.5 -5.5s29.834 -2.5 48.501 -2.5h264c9.33301 0 19 -1.5 29 -4.5s19.333 -8.5 28 -16.5c1.33301 -0.666992 2.66602 -1.66699 3.99902 -3l3 3c10.667 10 22.334 16.167 35.001 18.5
s24.834 2.5 36.501 0.5s22.167 -5.83301 31.5 -11.5s16 -11.834 20 -18.501c1.33301 -2.66699 0.666016 -4 -2.00098 -4c-12 -0.666992 -23 -3.66699 -33 -9s-18.833 -11.833 -26.5 -19.5s-14.167 -15.5 -19.5 -23.5s-9.33301 -15 -12 -21
c-1.33301 -2 -2.33301 -3.83301 -3 -5.5s-1.33398 -3.16699 -2.00098 -4.5l-25 -52l-44.5 -93l-54 -112.5l-53 -110.5l-42 -87.5l-20.5 -42.5c-1.33301 -4 -3.5 -9.5 -6.5 -16.5s-4.33301 -14.167 -4 -21.5s3.33301 -13.666 9 -18.999s16.167 -8 31.5 -8h70
c34 0 58.667 6.16699 74 18.5s24.5 26.166 27.5 41.499s0.833008 30.333 -6.5 45s-17 24.334 -29 29.001c-2.66699 1.33301 -2.83398 2.66602 -0.500977 3.99902s4.83301 2.33301 7.5 3c22.667 4.66699 43.5 4 62.5 -2s33.5 -15.667 43.5 -29s14.5 -29.333 13.5 -48
s-9.83301 -38.334 -26.5 -59.001c13.333 -1.33301 24.666 -4.33301 33.999 -9c8 -4 15 -10 21 -18s7.33301 -19 4 -33c-7.33301 2.66699 -16.333 5.33398 -27 8.00098c-9.33301 2 -20.666 4 -33.999 6s-29.333 3 -48 3h-253
c-9.33301 -0.666992 -19.166 0.666016 -29.499 3.99902s-20.166 9 -29.499 17l-3 3l-3 -3c-11.333 -10 -23.333 -16.167 -36 -18.5s-24.834 -2.5 -36.501 -0.5s-22.167 5.83301 -31.5 11.5s-16 11.834 -20 18.501c-1.33301 2.66699 -0.333008 4 3 4
c12 0.666992 23 3.66699 33 9s18.833 11.833 26.5 19.5s14 15.5 19 23.5s9.16699 15 12.5 21c1.33301 2 2.16602 3.83301 2.49902 5.5s1.16602 3.5 2.49902 5.5l25 52l45 93l54 112.5l53 110.5l42 87l20 42l5.5 16.5c2.33301 7 3 14.167 2 21.5s-4.5 13.666 -10.5 18.999
s-16.667 8 -32 8h-47c-33.333 0 -59.333 -6.16699 -78 -18.5s-31.167 -26.166 -37.5 -41.499s-7.5 -30.333 -3.5 -45s12 -24.334 24 -29.001c3.33301 -1.33301 3.83301 -2.66602 1.5 -3.99902s-5.16602 -2.33301 -8.49902 -3c-23.333 -4.66699 -44.333 -4 -63 2
s-33 15.667 -43 29s-14.333 29.333 -13 48s10.333 38.667 27 60c-13.333 0.666992 -24.666 3.33398 -33.999 8.00098c-8 4 -15.167 10 -21.5 18s-7.83301 19 -4.5 33z" />
    <glyph glyph-name="bracketleft" unicode="[" horiz-adv-x="309" 
d="M264 -127c5.33301 0 10.002 -2.00391 14.002 -6.00391s6 -8.66699 6 -14s-2 -10 -6 -14s-8.66699 -6 -14 -6h-104c-16 1.33301 -30.667 8 -44 20l-3 3l-3 -3c-10 -10 -20.5 -16.167 -31.5 -18.5s-21.667 -2.33301 -32 0s-19.5 6.33301 -27.5 12s-14 11.834 -18 18.501
c-0.666992 0.666992 -0.666992 1.33398 0 2.00098s1.66699 1 3 1c13.333 0.666992 23.666 4 30.999 10s12.833 12.5 16.5 19.5s6 14 7 21s1.5 12.167 1.5 15.5v2v661v2c0 3.33301 -0.5 8.5 -1.5 15.5s-3.33301 14 -7 21s-9.16699 13.333 -16.5 19
s-17.666 8.83398 -30.999 9.50098c-3.33301 0 -4.33301 1.33301 -3 4c4 6.66699 10 12.834 18 18.501s17.167 9.5 27.5 11.5s21 1.83301 32 -0.5s21.5 -8.5 31.5 -18.5l3 -3l3 3c7.33301 7.33301 14.666 12.5 21.999 15.5s14.666 4.83301 21.999 5.5h104
c5.33301 0 10 -2 14 -6s6 -8.66699 6 -14s-2 -10 -6 -14s-8.66699 -6 -14 -6h-21c-27.333 0 -46.833 -5 -58.5 -15s-17.5 -30.667 -17.5 -62v-2v-629v-3c0 -15.333 1.5 -28 4.5 -38s7.5 -17.833 13.5 -23.5s13.833 -9.5 23.5 -11.5s21.167 -3 34.5 -3h21v0z" />
    <glyph glyph-name="backslash" unicode="\" horiz-adv-x="384" 
d="M1 677c-2 6 -1.16699 11.333 2.5 16s8.5 7 14.5 7h74c9.33301 0 15 -4.33301 17 -13l249 -831c2 -6 1.16699 -11.333 -2.5 -16s-8.5 -7 -14.5 -7h-75c-8 0 -13.667 4 -17 12z" />
    <glyph glyph-name="bracketright" unicode="]" horiz-adv-x="309" 
d="M40 -127c13.333 0 24.835 1.00391 34.502 3.00391s17.667 5.83301 24 11.5s11 13.5 14 23.5s4.5 22.667 4.5 38v3v629v2c0 31.333 -6.16699 52 -18.5 62s-31.833 15 -58.5 15h-20c-5.33301 0 -10 2 -14 6s-6 8.66699 -6 14s2 10 6 14s8.66699 6 14 6h104
c7.33301 -0.666992 14.666 -2.5 21.999 -5.5s14.666 -8.16699 21.999 -15.5l3 -3l3 3c10 10 20.5 16.167 31.5 18.5s21.667 2.5 32 0.5s19.5 -5.83301 27.5 -11.5s14 -11.834 18 -18.501c1.33301 -2.66699 0.333008 -4 -3 -4
c-13.333 -0.666992 -23.666 -3.83398 -30.999 -9.50098s-12.833 -12 -16.5 -19s-6 -14 -7 -21s-1.5 -12.167 -1.5 -15.5v-2v-661v-2c0 -3.33301 0.5 -8.5 1.5 -15.5s3.33301 -14 7 -21s9.16699 -13.5 16.5 -19.5s17.666 -9.33301 30.999 -10
c1.33301 0 2.33301 -0.333008 3 -1s0.666992 -1.33398 0 -2.00098c-4 -6.66699 -10 -12.834 -18 -18.501s-17.167 -9.66699 -27.5 -12s-21 -2.33301 -32 0s-21.5 8.5 -31.5 18.5l-3 3l-3 -3c-13.333 -12 -28 -18.667 -44 -20h-104c-5.33301 0 -10 2 -14 6s-6 8.66699 -6 14
s2 10 6 14s8.66699 6 14 6h20z" />
    <glyph glyph-name="asciicircum" unicode="^" horiz-adv-x="251" 
d="M224 558c1.33301 -2.66699 1.99707 -4.66699 1.99707 -6v-38c0 -6.66699 -2.66699 -10 -8 -10c-2.66699 0 -4.66699 1.33301 -6 4l-95 127c-1.33301 2 -2.66602 3 -3.99902 3s-3 -1 -5 -3l-94 -127c-2.66699 -2.66699 -4.66699 -4 -6 -4c-5.33301 0 -8 3.33301 -8 10v38
c0 1.33301 0.666992 3.33301 2 6l95 129c6.66699 8.66699 12.334 13 17.001 13c2.66699 0 5.33398 -1.33301 8.00098 -4l102 -138v0z" />
    <glyph glyph-name="underscore" unicode="_" horiz-adv-x="723" 
d="M662 -51c0 1.33301 1.00195 2.00098 3.00195 2.00098c6.66699 -2.66699 12.834 -7 18.501 -13s9.66699 -12.667 12 -20s2.33301 -15.166 0 -23.499s-8.5 -15.833 -18.5 -22.5c-0.666992 -0.666992 -1.16699 -1 -1.5 -1s-0.833008 -0.333008 -1.5 -1
c1.33301 -1.33301 2.33301 -2 3 -2c10 -7.33301 16.167 -15 18.5 -23s2.33301 -15.667 0 -23s-6.33301 -14 -12 -20s-11.834 -10.333 -18.501 -13c-2 -2 -3 -1.33301 -3 2c-1.33301 9.33301 -4.83301 16.666 -10.5 21.999s-12 9.33301 -19 12s-14 4.33398 -21 5.00098
s-12.167 1 -15.5 1h-2h-490h-2c-3.33301 0 -8.5 -0.333008 -15.5 -1s-14 -2.33398 -21 -5.00098s-13.333 -6.66699 -19 -12s-8.83398 -12.666 -9.50098 -21.999c-1.33301 -2.66699 -2.66602 -3.33398 -3.99902 -2.00098c-6.66699 2.66699 -12.834 7 -18.501 13
s-9.66699 12.667 -12 20s-2.33301 15 0 23s8.5 15.667 18.5 23c1.33301 0 2.66602 0.666992 3.99902 2c-0.666992 0.666992 -1.33398 1 -2.00098 1s-1.33398 0.333008 -2.00098 1c-10 6.66699 -16.167 14.167 -18.5 22.5s-2.33301 16.166 0 23.499s6.33301 14 12 20
s11.834 10.333 18.501 13c2 0 3.33301 -0.666992 4 -2c0.666992 -10 3.83398 -17.667 9.50098 -23s12 -9.16602 19 -11.499s14 -3.83301 21 -4.5s12.167 -1 15.5 -1h2h490h2c3.33301 0 8.5 0.333008 15.5 1s14 2.16699 21 4.5s13.333 6.16602 19 11.499s9.16699 13 10.5 23z
" />
    <glyph glyph-name="a" unicode="a" horiz-adv-x="571" 
d="M542 14c3.33301 0 4.33887 -1.33008 3.00586 -3.99707c-4 -6.66699 -10.667 -12.834 -20 -18.501s-19.833 -9.5 -31.5 -11.5s-23.834 -1.83301 -36.501 0.5s-24.667 8.5 -36 18.5l-3 3l-3 -3c-11.333 -10 -23.333 -16.167 -36 -18.5s-24.834 -2.5 -36.501 -0.5
s-22.167 5.83301 -31.5 11.5s-16 11.834 -20 18.501c-1.33301 2.66699 -0.333008 4 3 4c11.333 0.666992 20.333 2.66699 27 6s11.667 7.5 15 12.5s5.33301 10.167 6 15.5s0.666992 10.333 0 15c-18 22.667 -37.333 43.667 -58 63c-17.333 16.667 -37.666 33 -60.999 49
s-47.666 27.667 -72.999 35l-26 -89l-19 -68c-1.33301 -4 -2.33301 -9.16699 -3 -15.5s-0.333984 -12.5 0.999023 -18.5s3.83301 -11.333 7.5 -16s9.16699 -7.66699 16.5 -9c1.33301 -0.666992 2.16602 -1.66699 2.49902 -3s-0.166992 -2.33301 -1.5 -3
c-6 -4 -14.333 -7.16699 -25 -9.5s-20.667 1.5 -30 11.5h-2c-1.33301 -1.33301 -4.83301 -3.33301 -10.5 -6s-12 -4.5 -19 -5.5s-14.167 0 -21.5 3s-13.666 9.83301 -18.999 20.5c-0.666992 1.33301 -0.5 3 0.5 5s2.16699 2.66699 3.5 2c9.33301 -2.66699 19.5 -2 30.5 2
s19.833 17 26.5 39l21 71l27 96c-20.667 1.33301 -40.667 -3 -60 -13c-3.33301 -2 -5 -0.666992 -5 4c0 6 1.66699 13 5 21s8.33301 15.5 15 22.5s15.167 13 25.5 18s22.833 7.83301 37.5 8.5l48 166l5 17c0.666992 4.66699 1.16699 9.66699 1.5 15
s-0.833984 10.5 -3.50098 15.5s-7 9.16699 -13 12.5s-14.667 5.33301 -26 6c-2.66699 0 -3.33398 1.33301 -2.00098 4c4 6.66699 10.667 12.834 20 18.501s19.833 9.5 31.5 11.5s23.667 1.83301 36 -0.5s24.166 -8.5 35.499 -18.5
c1.33301 -1.33301 2.66602 -2.33301 3.99902 -3l3 3c10.667 10 22.334 16.167 35.001 18.5s24.834 2.5 36.501 0.5s22.167 -5.83301 31.5 -11.5s16 -11.834 20 -18.501c1.33301 -2.66699 0.666016 -4 -2.00098 -4c-9.33301 -0.666992 -16.5 -2.66699 -21.5 -6
s-8.5 -7.5 -10.5 -12.5s-3 -10.333 -3 -16s0.666992 -10.834 2 -15.501l109 -381c1.33301 -4 3.33301 -9.5 6 -16.5s6.66699 -13.833 12 -20.5s12.666 -12.834 21.999 -18.501s21.666 -8.83398 36.999 -9.50098zM168.006 273.003c11.333 -4.66699 24 -11.8311 38 -21.498
s28 -20.834 42 -33.501s27.5 -26.334 40.5 -41.001s24.5 -29 34.5 -43l-97 339z" />
    <glyph glyph-name="b" unicode="b" horiz-adv-x="512" 
d="M385 298c28 -11.333 52.001 -29.002 72.001 -53.002s30 -56.667 30 -98c0 -33.333 -6.33301 -61 -19 -83s-28.834 -39.333 -48.501 -52s-41.5 -21.5 -65.5 -26.5s-47.667 -7.5 -71 -7.5h-97c-20.667 0 -39 7 -55 21l-3 3l-3 -3c-11.333 -10 -23.333 -16.167 -36 -18.5
s-24.834 -2.5 -36.501 -0.5s-22.167 5.83301 -31.5 11.5s-16 11.834 -20 18.501c-1.33301 2.66699 -0.333008 4 3 4c14.667 0.666992 26.334 4 35.001 10s15 12.5 19 19.5s6.5 13.833 7.5 20.5s1.5 11.667 1.5 15v366c0 3.33301 -0.5 8.33301 -1.5 15s-3.5 13.5 -7.5 20.5
s-10.333 13.333 -19 19s-20.334 9.16699 -35.001 10.5c-3.33301 0 -4.33301 1.33301 -3 4c4 6.66699 10.667 12.834 20 18.501s19.833 9.5 31.5 11.5s23.834 1.83301 36.501 -0.5s24.667 -8.5 36 -18.5l3 -3l3 3c9.33301 8.66699 19.5 14.5 30.5 17.5
s21.833 3.83301 32.5 2.5h88h8c17.333 0 35.333 -2 54 -6s35.667 -11 51 -21s28 -23.667 38 -41s15 -39.333 15 -66c0 -30 -6 -54 -18 -72s-27 -31.667 -45 -41zM189.001 318.998h93c20.667 0 37.334 8.16699 50.001 24.5s19 38.833 19 67.5s-6.33301 51 -19 67
s-29.334 24.333 -50.001 25h-26c-17.333 0 -30.5 -2.33301 -39.5 -7s-15.5 -10.334 -19.5 -17.001s-6.33301 -13.167 -7 -19.5s-1 -11.166 -1 -14.499v-126zM278.001 18.998c16 0 29.833 3.33203 41.5 9.99902s21.167 15.834 28.5 27.501s12.833 25.167 16.5 40.5
s5.5 32 5.5 50c0 38.667 -7.16699 69.834 -21.5 93.501s-39.166 35.5 -74.499 35.5h-1l-84 1v-198c0 -3.33301 0.5 -8.33301 1.5 -15s3.5 -13.334 7.5 -20.001s10.167 -12.5 18.5 -17.5s20.166 -7.5 35.499 -7.5h26z" />
    <glyph glyph-name="c" unicode="c" horiz-adv-x="460" 
d="M357 198c9.33301 0 19 -1.66309 29 -4.99609s18.667 -8.66602 26 -15.999s13.166 -16.833 17.499 -28.5s5.83301 -25.834 4.5 -42.501c-2 -22.667 -9.5 -42 -22.5 -58s-28.667 -29.167 -47 -39.5s-38.166 -17.833 -59.499 -22.5s-41.333 -7 -60 -7
c-36.667 0 -70 6.16699 -100 18.5s-55.833 30.5 -77.5 54.5s-38.334 53.667 -50.001 89s-17.5 75.666 -17.5 120.999s5.83301 85.666 17.5 120.999s28.334 65 50.001 89s47.5 42.167 77.5 54.5s63.333 18.5 100 18.5c18.667 0 38.667 -2.33301 60 -7s41.166 -12 59.499 -22
s34 -23 47 -39s20.5 -35.333 22.5 -58c1.33301 -16.667 -0.166992 -30.834 -4.5 -42.501s-10.166 -21.334 -17.499 -29.001s-16 -13 -26 -16s-19.667 -4.5 -29 -4.5c-11.333 0 -21.5 2.66699 -30.5 8s-16.167 10.333 -21.5 15c-1.33301 1.33301 -1.66602 2 -0.999023 2
c12 6 21.167 17.333 27.5 34s8 33.834 5 51.501s-11.667 33.334 -26 47.001s-36.166 20.5 -65.499 20.5c-20.667 0 -38.667 -5.83301 -54 -17.5s-28.166 -28.334 -38.499 -50.001s-18.166 -47.334 -23.499 -77.001s-8 -62.5 -8 -98.5s2.66699 -68.833 8 -98.5
s13.166 -55.334 23.499 -77.001s23.166 -38.334 38.499 -50.001s33.333 -17.5 54 -17.5c29.333 0 51.166 6.83301 65.499 20.5s23 29.334 26 47.001s1.33301 34.834 -5 51.501s-15.5 28 -27.5 34c-0.666992 0 -0.333984 0.666992 0.999023 2
c5.33301 4.66699 12.5 9.66699 21.5 15s19.167 8.33301 30.5 9z" />
    <glyph glyph-name="d" unicode="d" horiz-adv-x="530" 
d="M505 262c-0.666992 -92 -22.667 -162.335 -66 -211.002s-102 -73 -176 -73h-77c-20.667 0 -39 7 -55 21l-3 3l-3 -3c-11.333 -10 -23.333 -16.167 -36 -18.5s-24.834 -2.5 -36.501 -0.5s-22.167 5.83301 -31.5 11.5s-16 11.834 -20 18.501
c-1.33301 2.66699 -0.333008 4 3 4c14.667 0.666992 26.334 4 35.001 10s15 12.5 19 19.5s6.5 13.833 7.5 20.5s1.5 11.667 1.5 15v366c0 3.33301 -0.5 8.33301 -1.5 15s-3.5 13.5 -7.5 20.5s-10.333 13.333 -19 19s-20.334 9.16699 -35.001 10.5
c-3.33301 0 -4.33301 1.33301 -3 4c4 6.66699 10.667 12.834 20 18.501s19.833 9.5 31.5 11.5s23.834 1.83301 36.501 -0.5s24.667 -8.5 36 -18.5l3 -3l3 3c9.33301 8.66699 19.5 14.5 30.5 17.5s21.833 3.83301 32.5 2.5h69c74 0 132.667 -24.333 176 -73
s65.333 -118.667 66 -210zM263 18.998c41.333 3.33301 72.001 26.5029 92.001 69.5029s30 100.833 30 173.5c0 72 -10.167 129.667 -30.5 173s-50.833 66.666 -91.5 69.999h-7c-17.333 0 -30.5 -2.5 -39.5 -7.5s-15.5 -10.833 -19.5 -17.5s-6.33301 -13.334 -7 -20.001
s-1 -11.667 -1 -15v-366c0 -3.33301 0.5 -8.33301 1.5 -15s3.5 -13.334 7.5 -20.001s10.167 -12.5 18.5 -17.5s20.166 -7.5 35.499 -7.5h11z" />
    <glyph glyph-name="e" unicode="e" horiz-adv-x="511" 
d="M425 21c13.333 -1.33301 24.6699 -4.32617 34.0029 -8.99316c8 -4 14.833 -10 20.5 -18s7.16699 -19 4.5 -33c-7.33301 2.66699 -16.333 5.33398 -27 8.00098c-9.33301 2 -20.833 4 -34.5 6s-29.834 3 -48.501 3h-193c-17.333 0 -34 7 -50 21l-3 3l-3 -3
c-11.333 -10 -23.333 -16.167 -36 -18.5s-24.834 -2.5 -36.501 -0.5s-22.167 5.83301 -31.5 11.5s-16 11.834 -20 18.501c-1.33301 2.66699 -0.333008 4 3 4c14.667 0.666992 26.334 3.83398 35.001 9.50098s15 12 19 19s6.5 14 7.5 21s1.5 12.167 1.5 15.5v365
c0 3.33301 -0.5 8.33301 -1.5 15s-3.5 13.5 -7.5 20.5s-10.333 13.333 -19 19s-20.334 9.16699 -35.001 10.5c-3.33301 0 -4.33301 1.33301 -3 4c4 6.66699 10.667 12.834 20 18.501s19.833 9.5 31.5 11.5s23.834 1.83301 36.501 -0.5s24.667 -8.5 36 -18.5l3 -3l3 3
c16 14 32.667 21 50 21h193c18.667 0 34.834 0.833008 48.501 2.5s25.167 3.5 34.5 5.5c10.667 2.66699 19.667 5.66699 27 9c2.66699 -14 1.16699 -25 -4.5 -33s-12.5 -14 -20.5 -18c-9.33301 -4.66699 -20.666 -7.66699 -33.999 -9
c2.66699 -3.33301 5.16699 -6.83301 7.5 -10.5l6.5 -10.5c6.66699 -12.667 9 -25.334 7 -38.001s-7 -23.5 -15 -32.5s-18.333 -15.333 -31 -19s-25.667 -2.83398 -39 2.49902c4.66699 9.33301 6.83398 20.333 6.50098 33s-3.83301 24.834 -10.5 36.501
s-16.834 21.5 -30.501 29.5s-31.5 12 -53.5 12h-23c-13.333 0 -24 -1.66699 -32 -5s-14.167 -7.83301 -18.5 -13.5s-7.16602 -12.334 -8.49902 -20.001s-2 -15.834 -2 -24.501v-60v-105c4.66699 4.66699 11.167 10.667 19.5 18s17.666 14.333 27.999 21
s21.666 12.5 33.999 17.5s24.833 7.5 37.5 7.5c20.667 0 35.834 -5 45.501 -15s14.667 -21.333 15 -34s-3.83398 -24.834 -12.501 -36.501s-21 -18.834 -37 -21.501c-3.33301 0 -4.33301 1.66699 -3 5c5.33301 12 4.66602 21.667 -2.00098 29s-16.834 11.166 -30.501 11.499
s-29 -3.33398 -46 -11.001s-33.167 -20.167 -48.5 -37.5v-90v-60c0 -8.66699 0.666992 -16.834 2 -24.501s4.16602 -14.334 8.49902 -20.001s10.5 -10.167 18.5 -13.5s18.667 -5 32 -5h23c22 0 39.833 4 53.5 12s23.834 17.667 30.501 29s10.167 23.5 10.5 36.5
s-1.83398 24.167 -6.50098 33.5c13.333 5.33301 26.333 6.16602 39 2.49902s23 -10 31 -19s13 -19.833 15 -32.5s-0.333008 -25.334 -7 -38.001l-6.5 -10.5c-2.33301 -3.66699 -4.83301 -7.16699 -7.5 -10.5z" />
    <glyph glyph-name="f" unicode="f" horiz-adv-x="511" 
d="M484 563c2.66699 -14 1.16699 -24.9951 -4.5 -32.9951s-12.5 -14 -20.5 -18c-9.33301 -4.66699 -20.666 -7.66699 -33.999 -9c2.66699 -3.33301 5.16699 -6.83301 7.5 -10.5l6.5 -10.5c6.66699 -12.667 9 -25.334 7 -38.001s-7 -23.5 -15 -32.5s-18.333 -15.333 -31 -19
s-25.667 -2.83398 -39 2.49902c4.66699 9.33301 6.83398 20.333 6.50098 33s-3.83301 24.834 -10.5 36.501s-16.834 21.5 -30.501 29.5s-31.5 12 -53.5 12h-23c-13.333 0 -24 -1.66699 -32 -5s-14.167 -7.83301 -18.5 -13.5s-7.16602 -12.334 -8.49902 -20.001
s-2 -15.834 -2 -24.501v-168v-4c4.66699 5.33301 11.167 11.5 19.5 18.5s17.666 13.833 27.999 20.5s21.333 12.167 33 16.5s23.834 6.5 36.501 6.5c20.667 0 35.834 -5 45.501 -15s14.5 -21.333 14.5 -34s-4.33301 -24.834 -13 -36.501s-21 -18.834 -37 -21.501
c-2.66699 0 -3.33398 1.66699 -2.00098 5c5.33301 12 4.66602 21.5 -2.00098 28.5s-16.5 10.833 -29.5 11.5s-28 -2.5 -45 -9.5s-33.167 -18.833 -48.5 -35.5v-147c0 -3.33301 0.5 -8.33301 1.5 -15s3.5 -13.5 7.5 -20.5s10.167 -13.5 18.5 -19.5
s20.166 -9.33301 35.499 -10c3.33301 0 4.33301 -1.33301 3 -4c-4 -6.66699 -10.667 -12.834 -20 -18.501s-19.833 -9.5 -31.5 -11.5s-23.834 -1.83301 -36.501 0.5s-24.667 8.5 -36 18.5l-3 3l-3 -3c-11.333 -10 -23.333 -16.167 -36 -18.5s-24.834 -2.5 -36.501 -0.5
s-22.167 5.83301 -31.5 11.5s-16 11.834 -20 18.501c-1.33301 2.66699 -0.333008 4 3 4c14.667 0.666992 26.334 4 35.001 10s15 12.5 19 19.5s6.5 13.833 7.5 20.5s1.5 11.667 1.5 15v366c0 3.33301 -0.5 8.5 -1.5 15.5s-3.5 14 -7.5 21s-10.333 13.167 -19 18.5
s-20.334 8.66602 -35.001 9.99902c-3.33301 0 -4.33301 1.33301 -3 4c4 6.66699 10.667 12.834 20 18.501s19.833 9.5 31.5 11.5s23.834 1.83301 36.501 -0.5s24.667 -8.5 36 -18.5l3 -3l3 3c16 14 32.667 21 50 21h193c18.667 0 34.834 0.833008 48.501 2.5
s25.167 3.5 34.5 5.5c10.667 2.66699 19.667 5.66699 27 9z" />
    <glyph glyph-name="g" unicode="g" horiz-adv-x="526" 
d="M498 14c2.66699 0 3.33203 -1.32422 1.99902 -3.99121c-4 -6.66699 -10.667 -12.834 -20 -18.501s-19.833 -9.5 -31.5 -11.5s-23.834 -1.83301 -36.501 0.5s-24.334 8.5 -35.001 18.5c-1.33301 0.666992 -2.66602 1.66699 -3.99902 3l-2 2c-2 2 -3.33301 4 -4 6
c-19.333 -11.333 -39.666 -19.333 -60.999 -24s-41.666 -7 -60.999 -7c-36.667 0 -70 6.16699 -100 18.5s-55.833 30.5 -77.5 54.5s-38.334 53.667 -50.001 89s-17.5 75.666 -17.5 120.999s5.83301 85.666 17.5 120.999s28.334 65 50.001 89s47.5 42.167 77.5 54.5
s63.333 18.5 100 18.5c18.667 0 38.667 -2.33301 60 -7s41.166 -12 59.499 -22s34 -23 47 -39s20.5 -35.333 22.5 -58c1.33301 -16.667 -0.166992 -30.834 -4.5 -42.501s-10.166 -21.334 -17.499 -29.001s-16 -13 -26 -16s-19.667 -4.5 -29 -4.5
c-11.333 0 -21.666 2.83301 -30.999 8.5s-16.333 10.5 -21 14.5c-1.33301 0.666992 -1.33301 1.66699 0 3c12 6 21.167 17.333 27.5 34s7.83301 33.834 4.5 51.501s-12.333 33.167 -27 46.5s-36.334 20 -65.001 20c-20.667 0 -38.667 -5.83301 -54 -17.5
s-28.166 -28.334 -38.499 -50.001s-18.166 -47.334 -23.499 -77.001s-8 -62.5 -8 -98.5s2.66699 -68.833 8 -98.5s13.166 -55.334 23.499 -77.001s23.166 -38.334 38.499 -50.001s33.333 -17.5 54 -17.5c14.667 0 26.5 2 35.5 6s15.833 9.16699 20.5 15.5
s7.83398 13.666 9.50098 21.999s2.5 17.166 2.5 26.499v72c0 3.33301 -0.5 8.5 -1.5 15.5s-3.5 14 -7.5 21s-10.333 13.333 -19 19s-20.667 8.83398 -36 9.50098c-2.66699 1.33301 -3.33398 2.66602 -2.00098 3.99902c4 6.66699 10.667 12.834 20 18.501
s19.833 9.66699 31.5 12s23.667 2.33301 36 0s24.166 -8.5 35.499 -18.5c0.666992 -1.33301 1.66699 -2.66602 3 -3.99902l4 4c10.667 10 22.334 16.167 35.001 18.5s24.834 2.33301 36.501 0s22.167 -6.33301 31.5 -12s16 -11.834 20 -18.501
c1.33301 -1.33301 0.666016 -2.66602 -2.00098 -3.99902c-15.333 -0.666992 -27.333 -3.83398 -36 -9.50098s-15 -12 -19 -19s-6.5 -14 -7.5 -21s-1.5 -12.167 -1.5 -15.5v-82c0 -3.33301 0.5 -8.33301 1.5 -15s3.5 -13.5 7.5 -20.5s10.333 -13.5 19 -19.5
s20.667 -9.33301 36 -10z" />
    <glyph glyph-name="h" unicode="h" horiz-adv-x="576" 
d="M548 14c2.66699 0 3.33398 -1.33301 2.00098 -4c-4 -6.66699 -10.667 -12.834 -20 -18.501s-19.833 -9.5 -31.5 -11.5s-23.834 -1.83301 -36.501 0.5s-24.334 8.5 -35.001 18.5c-0.666992 0.666992 -1.33398 1.16699 -2.00098 1.5s-1.33398 0.833008 -2.00098 1.5l-3 -3
c-11.333 -10 -23.166 -16.167 -35.499 -18.5s-24.333 -2.5 -36 -0.5s-22.167 5.83301 -31.5 11.5s-16 11.834 -20 18.501c-1.33301 2.66699 -0.666016 4 2.00098 4c15.333 0.666992 27.333 4 36 10s15 12.5 19 19.5s6.5 13.833 7.5 20.5s1.5 11.667 1.5 15v163h-174v-163
c0 -3.33301 0.5 -8.33301 1.5 -15s3.5 -13.5 7.5 -20.5s10.167 -13.5 18.5 -19.5s20.166 -9.33301 35.499 -10c3.33301 0 4.33301 -1.33301 3 -4c-4 -6.66699 -10.667 -12.834 -20 -18.501s-19.833 -9.5 -31.5 -11.5s-23.834 -1.83301 -36.501 0.5s-24.667 8.5 -36 18.5
l-3 3l-3 -3c-11.333 -10 -23.333 -16.167 -36 -18.5s-24.834 -2.5 -36.501 -0.5s-22.167 5.83301 -31.5 11.5s-16 11.834 -20 18.501c-1.33301 2.66699 -0.333008 4 3 4c14.667 0.666992 26.334 4 35.001 10s15 12.5 19 19.5s6.5 13.833 7.5 20.5s1.5 11.667 1.5 15v366
c0 3.33301 -0.5 8.33301 -1.5 15s-3.5 13.5 -7.5 20.5s-10.333 13.333 -19 19s-20.334 9.16699 -35.001 10.5c-3.33301 0 -4.33301 1.33301 -3 4c4 6.66699 10.667 12.834 20 18.501s19.833 9.5 31.5 11.5s23.834 1.83301 36.501 -0.5s24.667 -8.5 36 -18.5l3 -3l3 3
c11.333 10 23.333 16.167 36 18.5s24.834 2.5 36.501 0.5s22.167 -5.83301 31.5 -11.5s16 -11.834 20 -18.501c1.33301 -2.66699 0.333008 -4 -3 -4c-15.333 -1.33301 -27.166 -4.83301 -35.499 -10.5s-14.5 -12 -18.5 -19s-6.5 -13.833 -7.5 -20.5s-1.5 -11.667 -1.5 -15
v-163h174v163c0 3.33301 -0.5 8.33301 -1.5 15s-3.5 13.5 -7.5 20.5s-10.333 13.333 -19 19s-20.667 9.16699 -36 10.5c-2.66699 0 -3.33398 1.33301 -2.00098 4c4 6.66699 10.667 12.834 20 18.501s19.833 9.5 31.5 11.5s23.667 1.83301 36 -0.5s24.166 -8.5 35.499 -18.5
l3 -3c0.666992 0.666992 1.33398 1.16699 2.00098 1.5s1.33398 0.833008 2.00098 1.5c10.667 10 22.334 16.167 35.001 18.5s24.834 2.5 36.501 0.5s22.167 -5.83301 31.5 -11.5s16 -11.834 20 -18.501c1.33301 -2.66699 0.666016 -4 -2.00098 -4
c-15.333 -1.33301 -27.333 -4.83301 -36 -10.5s-15 -12 -19 -19s-6.5 -13.833 -7.5 -20.5s-1.5 -11.667 -1.5 -15v-366c0 -3.33301 0.5 -8.33301 1.5 -15s3.5 -13.5 7.5 -20.5s10.333 -13.5 19 -19.5s20.667 -9.33301 36 -10z" />
    <glyph glyph-name="i" unicode="i" 
d="M252 14c3.33301 0 4.33301 -1.33301 3 -4c-4 -6.66699 -10.667 -12.834 -20 -18.501s-19.833 -9.5 -31.5 -11.5s-23.834 -1.83301 -36.501 0.5s-24.667 8.5 -36 18.5l-3 3l-3 -3c-11.333 -10 -23.333 -16.167 -36 -18.5s-24.834 -2.5 -36.501 -0.5
s-22.167 5.83301 -31.5 11.5s-16 11.834 -20 18.501c-1.33301 2.66699 -0.333008 4 3 4c14.667 0.666992 26.334 4 35.001 10s15 12.5 19 19.5s6.5 13.833 7.5 20.5s1.5 11.667 1.5 15v366c0 3.33301 -0.5 8.33301 -1.5 15s-3.5 13.5 -7.5 20.5s-10.333 13.333 -19 19
s-20.334 9.16699 -35.001 10.5c-3.33301 0 -4.33301 1.33301 -3 4c4 6.66699 10.667 12.834 20 18.501s19.833 9.5 31.5 11.5s23.834 1.83301 36.501 -0.5s24.667 -8.5 36 -18.5l3 -3l3 3c11.333 10 23.333 16.167 36 18.5s24.834 2.5 36.501 0.5
s22.167 -5.83301 31.5 -11.5s16 -11.834 20 -18.501c1.33301 -2.66699 0.333008 -4 -3 -4c-15.333 -1.33301 -27.166 -4.83301 -35.499 -10.5s-14.5 -12 -18.5 -19s-6.5 -13.833 -7.5 -20.5s-1.5 -11.667 -1.5 -15v-366c0 -3.33301 0.5 -8.33301 1.5 -15
s3.5 -13.5 7.5 -20.5s10.167 -13.5 18.5 -19.5s20.166 -9.33301 35.499 -10z" />
    <glyph glyph-name="j" unicode="j" horiz-adv-x="489" 
d="M463 514c1.33301 -2.66699 0.666992 -3.99902 -2 -3.99902c-15.333 -1.33301 -27.333 -4.83301 -36 -10.5s-15 -12 -19 -19s-6.5 -13.833 -7.5 -20.5s-1.5 -11.667 -1.5 -15v-232c0 -45.333 -5 -83 -15 -113s-24 -54 -42 -72s-39.833 -30.833 -65.5 -38.5
s-54.5 -11.5 -86.5 -11.5c-42 0.666992 -78.333 7.33398 -109 20.001s-54.667 35.667 -72 69c-4.66699 10.667 -7 19.667 -7 27c0 20 4 35.667 12 47s17.833 19.333 29.5 24s23.5 6.66699 35.5 6s22 -3.33398 30 -8.00098c5.33301 -2.66699 7 -5.33398 5 -8.00098
c-12.667 -18.667 -18.667 -36.667 -18 -54s5.5 -32.5 14.5 -45.5s20.667 -22.833 35 -29.5s29.166 -9 44.499 -7s28.666 6.5 39.999 13.5s20.5 17.833 27.5 32.5s12.167 34 15.5 58s5 54 5 90v232c0 3.33301 -0.5 8.33301 -1.5 15s-3.5 13.5 -7.5 20.5
s-10.333 13.333 -19 19s-20.667 9.16699 -36 10.5c-2.66699 0 -3.33398 1.33301 -2.00098 4c4 6.66699 10.667 12.834 20 18.501s19.833 9.5 31.5 11.5s23.667 1.83301 36 -0.5s24.166 -8.5 35.499 -18.5l3 -3c0.666992 0.666992 1.33398 1.16699 2.00098 1.5
s1.33398 0.833008 2.00098 1.5c10.667 10 22.334 16.167 35.001 18.5s24.834 2.5 36.501 0.5s22.167 -5.83301 31.5 -11.5s16 -11.834 20 -18.501z" />
    <glyph glyph-name="k" unicode="k" horiz-adv-x="561" 
d="M532 14c3.33301 0 4.33203 -1.33301 2.99902 -4c-4 -6.66699 -10.667 -12.834 -20 -18.501s-19.833 -9.5 -31.5 -11.5s-23.834 -1.83301 -36.501 0.5s-24.667 8.5 -36 18.5l-3 3l-3 -3c-11.333 -10 -23.333 -16.167 -36 -18.5s-24.834 -2.5 -36.501 -0.5
s-22.167 5.83301 -31.5 11.5s-16 11.834 -20 18.501c-1.33301 2.66699 -0.333008 4 3 4c19.333 1.33301 30 6.5 32 15.5s1 18.167 -3 27.5l-92 162l-32 -41v-99c0 -3.33301 0.5 -8.33301 1.5 -15s3.5 -13.5 7.5 -20.5s10.167 -13.5 18.5 -19.5s20.166 -9.33301 35.499 -10
c3.33301 0 4.33301 -1.33301 3 -4c-4 -6.66699 -10.667 -12.834 -20 -18.501s-19.833 -9.5 -31.5 -11.5s-23.834 -1.83301 -36.501 0.5s-24.667 8.5 -36 18.5l-3 3l-3 -3c-11.333 -10 -23.333 -16.167 -36 -18.5s-24.834 -2.5 -36.501 -0.5s-22.167 5.83301 -31.5 11.5
s-16 11.834 -20 18.501c-1.33301 2.66699 -0.333008 4 3 4c14.667 0.666992 26.334 4 35.001 10s15 12.5 19 19.5s6.5 13.833 7.5 20.5s1.5 11.667 1.5 15v366c0 3.33301 -0.5 8.33301 -1.5 15s-3.5 13.5 -7.5 20.5s-10.333 13.333 -19 19s-20.334 9.16699 -35.001 10.5
c-3.33301 0 -4.33301 1.33301 -3 4c4 6.66699 10.667 12.834 20 18.501s19.833 9.5 31.5 11.5s23.834 1.83301 36.501 -0.5s24.667 -8.5 36 -18.5l3 -3l3 3c11.333 10 23.333 16.167 36 18.5s24.834 2.5 36.501 0.5s22.167 -5.83301 31.5 -11.5s16 -11.834 20 -18.501
c1.33301 -2.66699 0.333008 -4 -3 -4c-15.333 -1.33301 -27.166 -4.83301 -35.499 -10.5s-14.5 -12 -18.5 -19s-6.5 -13.833 -7.5 -20.5s-1.5 -11.667 -1.5 -15v-202l169 215l17 22c3.33301 5.33301 6.33301 10.833 9 16.5s3.83398 10.5 3.50098 14.5s-2.33301 7 -6 9
s-10.167 2.33301 -19.5 1c-3.33301 -1.33301 -4 -0.333008 -2 3c2.66699 2.66699 6.66699 6 12 10s11.5 7 18.5 9s14.333 2.5 22 1.5s15.5 -4.83301 23.5 -11.5c8 6.66699 15.833 10.5 23.5 11.5s15 0.5 22 -1.5s13.167 -5 18.5 -9s9.33301 -7.33301 12 -10
c2 -3.33301 1.33301 -4.33301 -2 -3c-11.333 2 -23 -0.333008 -35 -7s-23.333 -14.667 -34 -24c-12 -10.667 -24 -22.667 -36 -36l-103 -131l143 -252c2.66699 -4.66699 6.33398 -10.167 11.001 -16.5s10.5 -12.333 17.5 -18s15.333 -10.667 25 -15
s20.834 -6.83301 33.501 -7.5z" />
    <glyph glyph-name="l" unicode="l" horiz-adv-x="511" 
d="M484 -39c-7.33301 2.66699 -16.3311 5.33594 -26.998 8.00293c-9.33301 2 -20.833 4 -34.5 6s-29.834 3 -48.501 3h-193c-17.333 0 -34 7 -50 21l-3 3l-3 -3c-11.333 -10 -23.333 -16.167 -36 -18.5s-24.834 -2.5 -36.501 -0.5s-22.167 5.83301 -31.5 11.5
s-16 11.834 -20 18.501c-1.33301 2.66699 -0.333008 4 3 4c14.667 0.666992 26.334 4 35.001 10s15 12.5 19 19.5s6.5 13.833 7.5 20.5s1.5 11.667 1.5 15v366c0 3.33301 -0.5 8.33301 -1.5 15s-3.5 13.5 -7.5 20.5s-10.333 13.333 -19 19s-20.334 9.16699 -35.001 10.5
c-3.33301 0 -4.33301 1.33301 -3 4c4 6.66699 10.667 12.834 20 18.501s19.833 9.5 31.5 11.5s23.834 1.83301 36.501 -0.5s24.667 -8.5 36 -18.5l3 -3l3 3c11.333 10 23.333 16.167 36 18.5s25 2.5 37 0.5s22.667 -5.83301 32 -11.5s16 -11.834 20 -18.501
c1.33301 -2.66699 0.333008 -4 -3 -4c-15.333 -1.33301 -27.166 -4.83301 -35.499 -10.5s-14.5 -12 -18.5 -19s-6.5 -13.833 -7.5 -20.5s-1.5 -11.667 -1.5 -15l-1 -364c0 -8.66699 0.666992 -16.834 2 -24.501s4.16602 -14.334 8.49902 -20.001s10.5 -10.167 18.5 -13.5
s18.667 -5 32 -5h23c22 0 39.833 4 53.5 12s23.834 17.667 30.501 29s10.167 23.5 10.5 36.5s-1.83398 24.167 -6.50098 33.5c13.333 5.33301 26.333 6.16602 39 2.49902s23 -10 31 -19s13 -19.833 15 -32.5s-0.333008 -25.334 -7 -38.001l-6.5 -10.5
c-2.33301 -3.66699 -4.83301 -7.16699 -7.5 -10.5c13.333 -1.33301 24.666 -4.33301 33.999 -9c8 -4 14.833 -10 20.5 -18s7.16699 -19 4.5 -33z" />
    <glyph glyph-name="m" unicode="m" horiz-adv-x="667" 
d="M638 14c3.33301 0 4.3291 -1.33398 2.99609 -4.00098c-4 -6.66699 -10.667 -12.834 -20 -18.501s-19.833 -9.5 -31.5 -11.5s-23.834 -1.83301 -36.501 0.5s-24.667 8.5 -36 18.5l-3 3l-3 -3c-11.333 -10 -23.333 -16.167 -36 -18.5s-24.834 -2.5 -36.501 -0.5
s-22.167 5.83301 -31.5 11.5s-16 11.834 -20 18.501c-1.33301 2.66699 -0.333008 4 3 4c14.667 0.666992 26.334 4 35.001 10s15 12.5 19 19.5s6.5 13.833 7.5 20.5s1.5 11.667 1.5 15v290l-59 -205l-48 -165c-2 -6 -5.5 -11 -10.5 -15s-10.833 -6 -17.5 -6l-81 1
c-6.66699 0 -12.667 1.83301 -18 5.5s-8.66602 8.83398 -9.99902 15.501l-45 154l-67 235v-156v-17v-140c0 -7.33301 0.5 -15.666 1.5 -24.999s3.33301 -18 7 -26s9 -14.167 16 -18.5s16.833 -5.5 29.5 -3.5c3.33301 0 4 -1 2 -3c-2.66699 -2.66699 -6.66699 -6 -12 -10
s-11.5 -7 -18.5 -9s-14.333 -2.66699 -22 -2s-15.5 4.66699 -23.5 12c-8 -7.33301 -15.833 -11.333 -23.5 -12s-15 0 -22 2s-13.167 5 -18.5 9s-9.33301 7.33301 -12 10c-2 2 -1.33301 3 2 3c12.667 -2 22.5 -0.833008 29.5 3.5s12.333 10.5 16 18.5s6 16.667 7 26
s1.5 17.666 1.5 24.999v140v17v220c0 15.333 -5 28.333 -15 39s-22.333 16.667 -37 18h-1c-3.33301 0 -4.33301 1.33301 -3 4c4 6.66699 10.667 12.834 20 18.501s19.833 9.5 31.5 11.5s23.834 1.83301 36.501 -0.5s24.667 -8.5 36 -18.5l3 -3l3 3
c11.333 10 23.333 16.167 36 18.5s24.834 2.5 36.501 0.5s22.167 -5.83301 31.5 -11.5s16 -11.834 20 -18.501c1.33301 -2.66699 0.333008 -4 -3 -4c-15.333 -1.33301 -26.333 -4.66602 -33 -9.99902s-11.167 -11.5 -13.5 -18.5s-3 -13.833 -2 -20.5
s2.16699 -11.334 3.5 -14.001l113 -396l102 352l13 44c4 15.333 1.5 29.333 -7.5 42s-21.167 19.667 -36.5 21h-1c-3.33301 0 -4.33301 1.33301 -3 4c4 6.66699 10.667 12.834 20 18.501s19.833 9.5 31.5 11.5s23.834 1.83301 36.501 -0.5s24.667 -8.5 36 -18.5l3 -3l3 3
c11.333 10 23.333 16.167 36 18.5s24.834 2.5 36.501 0.5s22.167 -5.83301 31.5 -11.5s16 -11.834 20 -18.501c1.33301 -2.66699 0.333008 -4 -3 -4c-15.333 -1.33301 -27.166 -4.83301 -35.499 -10.5s-14.5 -12 -18.5 -19s-6.5 -13.833 -7.5 -20.5s-1.5 -11.667 -1.5 -15
v-366c0 -3.33301 0.5 -8.33301 1.5 -15s3.5 -13.5 7.5 -20.5s10.167 -13.5 18.5 -19.5s20.166 -9.33301 35.499 -10z" />
    <glyph glyph-name="n" unicode="n" horiz-adv-x="557" 
d="M529 3c3.33301 0 4 -0.999023 2 -2.99902c-2.66699 -2.66699 -6.66699 -6 -12 -10s-11.5 -7 -18.5 -9s-14.333 -2.66699 -22 -2s-15.5 4.66699 -23.5 12c-8 -7.33301 -15.833 -11.333 -23.5 -12s-15 0 -22 2s-13.167 5 -18.5 9s-9.33301 7.33301 -12 10
c-2 2 -1.33301 3 2 3c12.667 -2 22.5 -0.833008 29.5 3.5s12.333 10.5 16 18.5s6 16.667 7 26s1.5 17.666 1.5 24.999v44l-338 286v-330c0 -7.33301 0.5 -15.666 1.5 -24.999s3.33301 -18 7 -26s9 -14.167 16 -18.5s16.833 -5.5 29.5 -3.5c3.33301 0 4 -1 2 -3
c-2.66699 -2.66699 -6.66699 -6 -12 -10s-11.5 -7 -18.5 -9s-14.333 -2.66699 -22 -2s-15.5 4.66699 -23.5 12c-8 -7.33301 -15.833 -11.333 -23.5 -12s-15 0 -22 2s-13.167 5 -18.5 9s-9.33301 7.33301 -12 10c-2 2 -1.33301 3 2 3c12.667 -2 22.5 -0.833008 29.5 3.5
s12.333 10.5 16 18.5s6 16.667 7 26s1.5 17.666 1.5 24.999v372c0 7.33301 -0.5 15.666 -1.5 24.999s-3.33301 18 -7 26s-9 14.167 -16 18.5s-16.833 5.5 -29.5 3.5c-3.33301 -1.33301 -4 -0.333008 -2 3c2.66699 2.66699 6.66699 6 12 10s11.5 7 18.5 9s14.333 2.5 22 1.5
s15.5 -4.83301 23.5 -11.5c6 6.66699 12.333 10.5 19 11.5s13.5 0 20.5 -3s14 -7 21 -12s13.167 -9.83301 18.5 -14.5l279 -236v169c0 7.33301 -0.5 15.666 -1.5 24.999s-3.33301 18 -7 26s-9 14.167 -16 18.5s-16.833 5.5 -29.5 3.5c-3.33301 -1.33301 -4 -0.333008 -2 3
c2.66699 2.66699 6.66699 6 12 10s11.5 7 18.5 9s14.333 2.5 22 1.5s15.5 -4.83301 23.5 -11.5c8 6.66699 15.833 10.5 23.5 11.5s15 0.5 22 -1.5s13.167 -5 18.5 -9s9.33301 -7.33301 12 -10c2 -3.33301 1.33301 -4.33301 -2 -3c-12.667 2 -22.5 0.833008 -29.5 -3.5
s-12.333 -10.5 -16 -18.5s-6 -16.667 -7 -26s-1.5 -17.666 -1.5 -24.999v-372c0 -7.33301 0.5 -15.666 1.5 -24.999s3.33301 -18 7 -26s9 -14.167 16 -18.5s16.833 -5.5 29.5 -3.5z" />
    <glyph glyph-name="o" unicode="o" horiz-adv-x="504" 
d="M479 261c0 -45.333 -5.66699 -85.5 -17 -120.5s-27.333 -64.5 -48 -88.5s-45.834 -42.333 -75.501 -55s-62.5 -19 -98.5 -19c-36.667 0 -69.667 6.33301 -99 19s-54.5 31 -75.5 55s-37.167 53.5 -48.5 88.5s-17 75.167 -17 120.5v1c0 45.333 5.66699 85.5 17 120.5
s27.5 64.5 48.5 88.5s46.167 42.333 75.5 55s62.333 19 99 19c36 0 68.833 -6.33301 98.5 -19s54.834 -31 75.501 -55s36.667 -53.5 48 -88.5s17 -75.167 17 -120.5v-1zM240 19c20 0 37.5 5.83301 52.5 17.5s27.5 28.334 37.5 50.001s17.5 47.334 22.5 77.001
s7.5 62.5 7.5 98.5s-2.5 68.833 -7.5 98.5s-12.5 55.167 -22.5 76.5s-22.5 37.833 -37.5 49.5s-32.5 17.5 -52.5 17.5s-37.5 -5.83301 -52.5 -17.5s-27.667 -28.167 -38 -49.5s-18 -46.833 -23 -76.5s-7.5 -62.5 -7.5 -98.5s2.5 -68.833 7.5 -98.5
s12.5 -55.334 22.5 -77.001s22.5 -38.334 37.5 -50.001s32.833 -17.5 53.5 -17.5z" />
    <glyph glyph-name="p" unicode="p" horiz-adv-x="509" 
d="M484 354c0 -32.667 -5.66406 -60.832 -16.9971 -84.499s-27.333 -43.334 -48 -59.001s-45.667 -27.5 -75 -35.5s-62.333 -12 -99 -12h-56v-84c0 -3.33301 0.5 -8.33301 1.5 -15s3.5 -13.5 7.5 -20.5s10.167 -13.5 18.5 -19.5s20.166 -9.33301 35.499 -10
c3.33301 0 4.33301 -1.33301 3 -4c-4 -6.66699 -10.667 -12.834 -20 -18.501s-19.833 -9.5 -31.5 -11.5s-23.834 -1.83301 -36.501 0.5s-24.667 8.5 -36 18.5l-3 3l-3 -3c-11.333 -10 -23.333 -16.167 -36 -18.5s-24.834 -2.5 -36.501 -0.5s-22.167 5.83301 -31.5 11.5
s-16 11.834 -20 18.501c-1.33301 2.66699 -0.333008 4 3 4c14.667 0.666992 26.334 4 35.001 10s15 12.5 19 19.5s6.5 13.833 7.5 20.5s1.5 11.667 1.5 15v129v21v216c0 3.33301 -0.5 8.33301 -1.5 15s-3.5 13.5 -7.5 20.5s-10.333 13.333 -19 19
s-20.334 9.16699 -35.001 10.5c-3.33301 0 -4.33301 1.33301 -3 4c4 6.66699 10.667 12.834 20 18.501s19.833 9.5 31.5 11.5s23.834 1.83301 36.501 -0.5s24.667 -8.5 36 -18.5l3 -3l3 3c8.66699 7.33301 17.667 12.5 27 15.5s18.666 4.5 27.999 4.5h59
c36.667 0 69.667 -3.83301 99 -11.5s54.333 -19.334 75 -35.001s36.667 -35.5 48 -59.5s17 -52.333 17 -85zM227.003 203.002c40.667 0 73.834 12.165 99.501 36.498s38.5 62.5 38.5 114.5c0 51.333 -9.66699 89.166 -29 113.499s-49 36.833 -89 37.5
c-15.333 -0.666992 -26.833 -3.66699 -34.5 -9s-13.334 -11.166 -17.001 -17.499s-5.66699 -12.666 -6 -18.999s-0.5 -11.166 -0.5 -14.499v-216v-21v-5h38z" />
    <glyph glyph-name="q" unicode="q" horiz-adv-x="500" 
d="M675 -147c0 -7.33301 -0.832031 -16.165 -2.49902 -26.498s-5.83398 -20 -12.501 -29s-16.667 -16.667 -30 -23s-31 -9.5 -53 -9.5c-28 0 -53.333 5.16699 -76 15.5s-43.667 23.333 -63 39s-37.333 32.667 -54 51s-33.167 35.333 -49.5 51s-32.5 29 -48.5 40
s-33 16.833 -51 17.5h-3h-1c-70.667 2 -126.834 27.333 -168.501 76s-62.5 117.667 -62.5 207c0 45.333 5.66699 85.666 17 120.999s27.5 65 48.5 89s46.167 42.167 75.5 54.5s62.333 18.5 99 18.5c36 0 68.833 -6.16699 98.5 -18.5s54.834 -30.5 75.501 -54.5
s36.667 -53.667 48 -89s17 -75.666 17 -120.999c0 -76.667 -15.333 -138.334 -46 -185.001s-73 -76.667 -127 -90c20.667 -12.667 41.334 -28.167 62.001 -46.5s42.167 -36 64.5 -53s45.5 -31.5 69.5 -43.5s49.667 -18 77 -18c20.667 0 37.667 3.66699 51 11
s23.666 14.666 30.999 21.999c2.66699 2.66699 5.66699 3.16699 9 1.5s5 -4.16699 5 -7.5zM119.001 262.001c0 -36 2.5 -68.833 7.5 -98.5s12.5 -55.334 22.5 -77.001s22.5 -38.334 37.5 -50.001s32.833 -17.5 53.5 -17.5c20 0 37.5 5.83301 52.5 17.5
s27.5 28.334 37.5 50.001s17.5 47.334 22.5 77.001s7.5 62.5 7.5 98.5s-2.5 68.833 -7.5 98.5s-12.5 55.334 -22.5 77.001s-22.5 38.334 -37.5 50.001s-32.5 17.5 -52.5 17.5s-37.5 -5.83301 -52.5 -17.5s-27.667 -28.334 -38 -50.001s-18 -47.334 -23 -77.001
s-7.5 -62.5 -7.5 -98.5z" />
    <glyph glyph-name="r" unicode="r" horiz-adv-x="514" 
d="M485 24c3.33301 0 4.67188 -1.83105 4.00488 -5.49805s-1.66699 -6.83398 -3 -9.50098c-2 -3.33301 -4.83301 -7.16602 -8.5 -11.499s-8.66699 -8.5 -15 -12.5s-14.5 -7.33301 -24.5 -10s-22 -4 -36 -4c-22.667 0 -40.834 4.33301 -54.501 13s-24.5 19.667 -32.5 33
s-14.333 28 -19 44l-13.5 45c-4.33301 14 -9.5 26.333 -15.5 37s-14.667 17.334 -26 20.001h-52v-84c0 -3.33301 0.5 -8.33301 1.5 -15s3.5 -13.5 7.5 -20.5s10.167 -13.5 18.5 -19.5s20.166 -9.33301 35.499 -10c3.33301 0 4.33301 -1.33301 3 -4
c-4 -6.66699 -10.667 -12.834 -20 -18.501s-19.833 -9.5 -31.5 -11.5s-23.834 -1.83301 -36.501 0.5s-24.667 8.5 -36 18.5l-3 3l-3 -3c-11.333 -10 -23.333 -16.167 -36 -18.5s-24.834 -2.5 -36.501 -0.5s-22.167 5.83301 -31.5 11.5s-16 11.834 -20 18.501
c-1.33301 2.66699 -0.333008 4 3 4c14.667 0.666992 26.334 4 35.001 10s15 12.5 19 19.5s6.5 13.833 7.5 20.5s1.5 11.667 1.5 15v366c0 3.33301 -0.5 8.33301 -1.5 15s-3.5 13.5 -7.5 20.5s-10.333 13.333 -19 19s-20.334 9.16699 -35.001 10.5
c-3.33301 0 -4.33301 1.33301 -3 4c4 6.66699 10.667 12.834 20 18.501s19.833 9.5 31.5 11.5s23.834 1.83301 36.501 -0.5s24.667 -8.5 36 -18.5l3 -3l3 3c8.66699 7.33301 17.667 12.5 27 15.5s18.666 4.83301 27.999 5.5h59c36.667 0 69.667 -4 99 -12
s54.333 -19.833 75 -35.5s36.667 -35.334 48 -59.001s17 -51.834 17 -84.501v-1c0 -51.333 -13.667 -91.833 -41 -121.5s-65 -49.834 -113 -60.501c15.333 -4 28 -10.833 38 -20.5s18.333 -20.334 25 -32.001s12.667 -23.5 18 -35.5s11.166 -22.833 17.499 -32.5
s13.833 -17.167 22.5 -22.5s20 -7 34 -5zM227.006 203.002c40.667 0 73.834 12.3301 99.501 36.9971s38.5 62.667 38.5 114c0 100.667 -39.333 151 -118 151c-15.333 -0.666992 -26.833 -3.66699 -34.5 -9s-13.334 -11.166 -17.001 -17.499s-5.66699 -12.666 -6 -18.999
s-0.5 -11.166 -0.5 -14.499v-242h38z" />
    <glyph glyph-name="s" unicode="s" horiz-adv-x="466" 
d="M131 450c-2 -20 4.16699 -38.1689 18.5 -54.502s32.833 -31.833 55.5 -46.5s47.5 -29.167 74.5 -43.5s52.167 -29.666 75.5 -45.999s42.833 -34.166 58.5 -53.499s23.5 -41.666 23.5 -66.999c0 -26 -6.16699 -49.167 -18.5 -69.5s-28.5 -37.166 -48.5 -50.499
s-42.833 -23.5 -68.5 -30.5s-51.834 -10.5 -78.501 -10.5c-46.667 0 -85.167 5.83301 -115.5 17.5s-54 26.167 -71 43.5s-27.833 36 -32.5 56s-4.33398 38.667 0.999023 56s15 31.833 29 43.5s31.333 17.5 52 17.5c14.667 0 26.334 -4.16699 35.001 -12.5
s14.667 -15.833 18 -22.5c0 -1.33301 -0.333008 -2 -1 -2c-15.333 -4.66699 -26.333 -13.334 -33 -26.001s-10 -26.667 -10 -42c0 -18 5.5 -33.5 16.5 -46.5s24.833 -23 41.5 -30s34.667 -11 54 -12s37.333 1.5 54 7.5s30.5 15.667 41.5 29s16.5 30.333 16.5 51
c0 18.667 -7.16699 35.334 -21.5 50.001s-32.333 28.667 -54 42s-45 26.5 -70 39.5s-48.333 27.333 -70 43s-39.667 33 -54 52s-21.5 41.5 -21.5 67.5s5.33301 48.333 16 67s24.834 34 42.501 46s37.5 21 59.5 27s44 9 66 9c31.333 0 57.5 -3.83301 78.5 -11.5
s39.333 -16 55 -25l41 -23c11.667 -6.33301 24.167 -8.5 37.5 -6.5c3.33301 0.666992 6.16602 1.16699 8.49902 1.5s4.5 1.16602 6.5 2.49902c0.666992 0.666992 1 0 1 -2c0 -2.66699 -0.5 -6.66699 -1.5 -12s-3.16699 -10.833 -6.5 -16.5s-7.83301 -10.334 -13.5 -14.001
s-12.5 -5.16699 -20.5 -4.5c2.66699 -12 2.33398 -22.833 -0.999023 -32.5s-9 -17.667 -17 -24s-17.5 -10.833 -28.5 -13.5s-22.5 -2.66699 -34.5 0c-1.33301 1.33301 -1.66602 2.66602 -0.999023 3.99902c6.66699 13.333 9.66699 27.833 9 43.5
s-5.16699 30.334 -13.5 44.001s-20.833 25.167 -37.5 34.5s-37.334 14 -62.001 14c-22 0 -40.5 -4.83301 -55.5 -14.5s-23.5 -24.167 -25.5 -43.5z" />
    <glyph glyph-name="t" unicode="t" horiz-adv-x="642" 
d="M615 562c2.66699 -14 0.993164 -24.834 -5.00684 -32.501s-13 -13.5 -21 -17.5c-9.33301 -4.66699 -20.666 -7.66699 -33.999 -9c6 -7.33301 11 -14.333 15 -21c6.66699 -12.667 9 -25.334 7 -38.001s-7 -23.667 -15 -33s-18.333 -15.833 -31 -19.5
s-25.667 -2.83398 -39 2.49902c4.66699 9.33301 7.5 20.333 8.5 33s-1.16699 24.834 -6.5 36.501s-14.166 21.5 -26.499 29.5s-29.5 12 -51.5 12c-10.667 0 -19 -1.5 -25 -4.5s-10.667 -7.16699 -14 -12.5s-5.5 -11.5 -6.5 -18.5s-1.5 -14.5 -1.5 -22.5v-368
c0 -3.33301 0.5 -8.5 1.5 -15.5s3.5 -14 7.5 -21s10.333 -13.333 19 -19s20.667 -8.83398 36 -9.50098c2.66699 -1.33301 3.33398 -2.66602 2.00098 -3.99902c-5.33301 -8.66699 -14.333 -16.167 -27 -22.5s-26.667 -9.5 -42 -9.5c-9.33301 0 -18.666 1.5 -27.999 4.5
s-18 8.16699 -26 15.5c-1.33301 0.666992 -2.66602 1.66699 -3.99902 3l-3 -3c-8 -7.33301 -16.667 -12.5 -26 -15.5s-18.666 -4.5 -27.999 -4.5c-15.333 0 -29.333 3.16699 -42 9.5s-21.667 13.833 -27 22.5c-2 0.666992 -1.33301 2 2 4
c15.333 0.666992 27.333 3.83398 36 9.50098s15 12 19 19s6.5 14 7.5 21s1.5 12.167 1.5 15.5v368c0 8 -0.5 15.5 -1.5 22.5s-3.16699 13.167 -6.5 18.5s-8 9.5 -14 12.5s-14.333 4.5 -25 4.5c-22 0 -39.167 -4 -51.5 -12s-21.166 -17.833 -26.499 -29.5
s-7.5 -23.834 -6.5 -36.501s3.83301 -23.667 8.5 -33c-13.333 -5.33301 -26.333 -6.16602 -39 -2.49902s-23 10.167 -31 19.5s-13.167 20.333 -15.5 33s0.166992 25.334 7.5 38.001l6.5 10.5c2.33301 3.66699 4.83301 7.16699 7.5 10.5
c-13.333 1.33301 -24.666 4.33301 -33.999 9c-8 4 -15 9.83301 -21 17.5s-7.33301 18.5 -4 32.5c7.33301 -3.33301 16.333 -6.33301 27 -9c9.33301 -2 20.833 -3.83301 34.5 -5.5s29.834 -2.5 48.501 -2.5h144c17.333 0 33.666 -6.66699 48.999 -20l3 -3
c1.33301 1.33301 2.66602 2.33301 3.99902 3c15.333 13.333 31.666 20 48.999 20h144c18.667 0 34.834 0.833008 48.501 2.5s25.167 3.5 34.5 5.5c10.667 2.66699 19.667 5.66699 27 9z" />
    <glyph glyph-name="u" unicode="u" horiz-adv-x="567" 
d="M1 514c4 6.66699 10.6641 12.834 19.9971 18.501s19.833 9.5 31.5 11.5s23.834 1.83301 36.501 -0.5s24.667 -8.5 36 -18.5l3 -3l3 3c11.333 10 23.333 16.167 36 18.5s24.834 2.5 36.501 0.5s22.167 -5.83301 31.5 -11.5s16 -11.834 20 -18.501
c1.33301 -2.66699 0.333008 -4 -3 -4c-15.333 -1.33301 -27.166 -4.83301 -35.499 -10.5s-14.5 -12 -18.5 -19s-6.5 -13.833 -7.5 -20.5s-1.5 -11.667 -1.5 -15v-232c0 -36 1.66699 -66 5 -90s8.5 -43.333 15.5 -58s16 -25.5 27 -32.5s24.167 -11.5 39.5 -13.5
c18 -2.66699 36.833 -3 56.5 -1s37.834 9.33301 54.501 22s30.5 32.667 41.5 60s16.5 65 16.5 113v235c0 7.33301 -0.5 15.666 -1.5 24.999s-3.16699 18 -6.5 26s-8.5 14.167 -15.5 18.5s-16.833 5.5 -29.5 3.5c-3.33301 -1.33301 -4 -0.333008 -2 3
c2 2.66699 5.66699 6 11 10s11.5 7 18.5 9s14.333 2.5 22 1.5s15.5 -4.83301 23.5 -11.5c8 6.66699 16 10.5 24 11.5s15.5 0.5 22.5 -1.5s13.167 -5 18.5 -9s9 -7.33301 11 -10c2 -3.33301 1.33301 -4.33301 -2 -3c-12.667 2 -22.5 0.833008 -29.5 -3.5
s-12.333 -10.5 -16 -18.5s-6 -16.667 -7 -26s-1.5 -17.666 -1.5 -24.999v-235c0 -45.333 -4.83301 -83 -14.5 -113s-23.667 -54 -42 -72s-40.333 -30.833 -66 -38.5s-54.5 -11.5 -86.5 -11.5s-60.833 3.83301 -86.5 11.5s-47.5 20.5 -65.5 38.5s-32 42 -42 72
s-15 67.667 -15 113v232c0 3.33301 -0.5 8.33301 -1.5 15s-3.5 13.5 -7.5 20.5s-10.333 13.333 -19 19s-20.334 9.16699 -35.001 10.5c-3.33301 0 -4.33301 1.33301 -3 4z" />
    <glyph glyph-name="v" unicode="v" horiz-adv-x="571" 
d="M4 510c-3.33301 0 -4.33496 1.33398 -3.00195 4.00098c4 6.66699 10.667 12.834 20 18.501s19.833 9.5 31.5 11.5s23.834 1.83301 36.501 -0.5s24.667 -8.5 36 -18.5l3 -3l3 3c11.333 10 23.333 16.167 36 18.5s24.834 2.5 36.501 0.5s22.167 -5.83301 31.5 -11.5
s16 -11.834 20 -18.501c1.33301 -2.66699 0.333008 -4 -3 -4c-15.333 -1.33301 -26.333 -4.66602 -33 -9.99902s-11.167 -11.5 -13.5 -18.5s-3 -13.833 -2 -20.5s2.16699 -11.334 3.5 -14.001l113 -396l102 352l19 68c1.33301 4 2.33301 9.16699 3 15.5s0.5 12.5 -0.5 18.5
s-3.33301 11.333 -7 16s-9.16699 7.66699 -16.5 9c-2 0 -3.16699 0.666992 -3.5 2s0.166992 2.66602 1.5 3.99902c6 3.33301 14.333 6.16602 25 8.49902s20.667 -1.16699 30 -10.5h2l10.5 5c5.66699 2.66699 12 4.5 19 5.5s14.167 0 21.5 -3s13.666 -9.83301 18.999 -20.5
c0.666992 -1.33301 0.5 -2.83301 -0.5 -4.5s-2.16699 -2.16699 -3.5 -1.5c-9.33301 2.66699 -19.5 2 -30.5 -2s-19.833 -17 -26.5 -39l-21 -71l-93 -324l-5 -16c-1.33301 -5.33301 -2 -10.666 -2 -15.999s1.33301 -10.333 4 -15s7 -8.66699 13 -12s14.667 -5.33301 26 -6
c2.66699 0 3.33398 -1.33301 2.00098 -4c-4 -6.66699 -10.667 -12.834 -20 -18.501s-19.833 -9.5 -31.5 -11.5s-23.834 -1.83301 -36.501 0.5s-24.334 8.5 -35.001 18.5c-1.33301 1.33301 -2.66602 2.33301 -3.99902 3l-3 -3c-11.333 -10 -23.166 -16.167 -35.499 -18.5
s-24.333 -2.5 -36 -0.5s-22.167 5.83301 -31.5 11.5s-16 11.834 -20 18.501c-1.33301 2.66699 -0.666016 4 2.00098 4c9.33301 0.666992 16.5 2.66699 21.5 6s8.5 7.5 10.5 12.5s2.83301 10.333 2.5 16s-0.833008 10.834 -1.5 15.501l-109 381
c-1.33301 4 -3.33301 9.33301 -6 16s-6.66699 13.5 -12 20.5s-12.833 13.167 -22.5 18.5s-21.834 8.66602 -36.501 9.99902z" />
    <glyph glyph-name="w" unicode="w" horiz-adv-x="860" 
d="M834 521c0.666992 -1.33301 0.665039 -2.83301 -0.00195312 -4.5s-1.66699 -2.16699 -3 -1.5c-9.33301 2.66699 -19.5 2 -30.5 -2s-20.167 -17 -27.5 -39l-114 -395l-5 -16c-1.33301 -5.33301 -2 -10.666 -2 -15.999s1.33301 -10.333 4 -15s7 -8.66699 13 -12
s14.667 -5.33301 26 -6c3.33301 0 4.33301 -1.33301 3 -4c-4 -6.66699 -10.667 -12.834 -20 -18.501s-19.833 -9.5 -31.5 -11.5s-23.834 -1.83301 -36.501 0.5s-24.667 8.5 -36 18.5l-3 3c-1.33301 -1.33301 -2.66602 -2.33301 -3.99902 -3
c-11.333 -10 -23.166 -16.167 -35.499 -18.5s-24.333 -2.5 -36 -0.5s-22.167 5.83301 -31.5 11.5s-16 11.834 -20 18.501c-1.33301 2.66699 -0.333008 4 3 4c9.33301 0.666992 16.5 2.66699 21.5 6s8.5 7.5 10.5 12.5s2.66699 10.333 2 16s-1.33398 10.834 -2.00098 15.501
l-57 198l-52 -183l-5 -16c-1.33301 -5.33301 -2 -10.666 -2 -15.999s1.16699 -10.333 3.5 -15s6.5 -8.66699 12.5 -12s14.667 -5.33301 26 -6c3.33301 0 4.33301 -1.33301 3 -4c-4 -6.66699 -10.667 -12.834 -20 -18.501s-19.833 -9.5 -31.5 -11.5
s-23.834 -1.83301 -36.501 0.5s-24.334 8.5 -35.001 18.5c-1.33301 0.666992 -2.66602 1.66699 -3.99902 3l-3 -3c-11.333 -10 -23.166 -16.167 -35.499 -18.5s-24.333 -2.5 -36 -0.5s-22.167 5.83301 -31.5 11.5s-16 11.834 -20 18.501
c-1.33301 1.33301 -1.66602 2.33301 -0.999023 3s1.66699 1 3 1c9.33301 0.666992 16.5 2.66699 21.5 6s8.5 7.5 10.5 12.5s2.83301 10.333 2.5 16s-0.833008 10.834 -1.5 15.501l-109 381c-1.33301 4 -3.33301 9.33301 -6 16s-6.66699 13.5 -12 20.5
s-12.833 13.167 -22.5 18.5s-21.834 8.66602 -36.501 9.99902c-3.33301 0 -4.33301 1.33301 -3 4c4 6.66699 10.667 12.834 20 18.501s19.833 9.5 31.5 11.5s23.834 1.83301 36.501 -0.5s24.667 -8.5 36 -18.5l3 -3l3 3c11.333 10 23.333 16.167 36 18.5
s24.834 2.5 36.501 0.5s22.167 -5.83301 31.5 -11.5s16 -11.834 20 -18.501c1.33301 -2.66699 0.333008 -4 -3 -4c-15.333 -1.33301 -26.333 -4.66602 -33 -9.99902s-11.167 -11.5 -13.5 -18.5s-3 -13.833 -2 -20.5s1.83301 -11.334 2.5 -14.001l114 -396l82 284l-32 110
l-5.5 16c-2.33301 6.66699 -6.33301 13.5 -12 20.5s-13.167 13.167 -22.5 18.5s-21.666 8.66602 -36.999 9.99902c-2.66699 0 -3.33398 1.33301 -2.00098 4c4 6.66699 10.667 12.834 20 18.501s19.833 9.5 31.5 11.5s23.667 1.83301 36 -0.5s24.166 -8.5 35.499 -18.5l3 -3
c1.33301 1.33301 2.66602 2.33301 3.99902 3c10.667 10 22.334 16.167 35.001 18.5s24.834 2.5 36.501 0.5s22.167 -5.83301 31.5 -11.5s16 -11.834 20 -18.501c1.33301 -2.66699 0.666016 -4 -2.00098 -4c-15.333 -1.33301 -26.5 -4.66602 -33.5 -9.99902
s-11.5 -11.5 -13.5 -18.5s-2.5 -13.833 -1.5 -20.5s1.83301 -11.334 2.5 -14.001l113 -396l120 420c0.666992 4 1.33398 9.16699 2.00098 15.5s0.5 12.5 -0.5 18.5s-3.33301 11.333 -7 16s-9.16699 7.66699 -16.5 9c-1.33301 0 -2.16602 0.666992 -2.49902 2
s0.166992 2.66602 1.5 3.99902c6 3.33301 14.5 6.16602 25.5 8.49902s21.167 -1.16699 30.5 -10.5h2l10.5 5c5.66699 2.66699 12 4.5 19 5.5s14.167 0 21.5 -3s13.666 -9.83301 18.999 -20.5z" />
    <glyph glyph-name="x" unicode="x" horiz-adv-x="555" 
d="M527 3c3.33301 1.33301 4.00293 0.333984 2.00293 -2.99902c-2.66699 -2.66699 -6.66699 -6 -12 -10s-11.5 -7 -18.5 -9s-14.333 -2.66699 -22 -2s-15.5 4.66699 -23.5 12c-8 -7.33301 -15.833 -11.333 -23.5 -12s-15 0 -22 2s-13.167 5 -18.5 9s-9.33301 7.33301 -12 10
c-1.33301 2 -0.666016 3 2.00098 3c8.66699 -1.33301 15 -1.16602 19 0.500977s6.16699 4.5 6.5 8.5s-0.666992 8.66699 -3 14s-5.16602 10.666 -8.49902 15.999l-99 143l-59 -118c-2 -5.33301 -3.66699 -10.833 -5 -16.5s-1.33301 -11.167 0 -16.5
s4.33301 -9.83301 9 -13.5s12 -5.83398 22 -6.50098c3.33301 0 4.33301 -1.33301 3 -4c-4 -6.66699 -10.667 -12.834 -20 -18.501s-19.833 -9.5 -31.5 -11.5s-23.834 -1.83301 -36.501 0.5s-24.667 8.5 -36 18.5l-3 3l-3 -3c-11.333 -10 -23.333 -16.167 -36 -18.5
s-24.834 -2.5 -36.501 -0.5s-22.167 5.83301 -31.5 11.5s-16 11.834 -20 18.501c-1.33301 2.66699 -0.333008 4 3 4c14.667 0.666992 27.5 3.83398 38.5 9.50098s20.333 12 28 19s13.667 14 18 21s7.16602 12.167 8.49902 15.5l109 220l-107 155
c-1.33301 1.33301 -5.5 6 -12.5 14s-15.5 16.167 -25.5 24.5s-21 15.666 -33 21.999s-23.333 8.5 -34 6.5c-3.33301 0 -4 1 -2 3c2.66699 2.66699 6.66699 6 12 10s11.5 7 18.5 9s14.333 2.5 22 1.5s15.5 -4.83301 23.5 -11.5c8 6.66699 15.833 10.5 23.5 11.5
s15 0.5 22 -1.5s13.167 -5 18.5 -9s9.33301 -7.33301 12 -10c2 -2 1.33301 -3 -2 -3c-8.66699 1.33301 -14.834 1.16602 -18.501 -0.500977s-5.83398 -4.33398 -6.50098 -8.00098s0 -8 2 -13s4.66699 -10.167 8 -15.5l99 -144l58 117c2 4.66699 3.66699 10 5 16
s1.5 11.667 0.5 17s-4 9.83301 -9 13.5s-12.5 5.83398 -22.5 6.50098c-2.66699 0 -3.33398 1.33301 -2.00098 4c4 6.66699 10.667 12.834 20 18.501s19.833 9.5 31.5 11.5s23.667 1.83301 36 -0.5s24.166 -8.5 35.499 -18.5l3 -3
c0.666992 0.666992 1.33398 1.16699 2.00098 1.5s1.33398 0.833008 2.00098 1.5c10.667 10 22.334 16.167 35.001 18.5s24.834 2.5 36.501 0.5s22.167 -5.83301 31.5 -11.5s16 -11.834 20 -18.501c1.33301 -2.66699 0.666016 -4 -2.00098 -4
c-15.333 -1.33301 -28.5 -4.66602 -39.5 -9.99902s-20.333 -11.5 -28 -18.5s-13.5 -14 -17.5 -21l-9 -15.5l-108 -219l110 -158l14.5 -17.5c7 -8.33301 15.167 -16.5 24.5 -24.5s19.666 -14.667 30.999 -20s22.333 -6.33301 33 -3z" />
    <glyph glyph-name="y" unicode="y" horiz-adv-x="499" 
d="M473 521c1.33301 -4 0.338867 -6 -2.99414 -6c-7.33301 -0.666992 -17.833 -4 -31.5 -10s-24.834 -17 -33.501 -33l-1 -4h-1l-108 -218v-171c0 -3.33301 0.5 -8.33301 1.5 -15s3.5 -13.5 7.5 -20.5s10.167 -13.5 18.5 -19.5s20.166 -9.33301 35.499 -10
c3.33301 0 4.33301 -1.33301 3 -4c-4 -6.66699 -10.667 -12.834 -20 -18.501s-19.833 -9.5 -31.5 -11.5s-23.834 -1.83301 -36.501 0.5s-24.667 8.5 -36 18.5l-3 3l-3 -3c-11.333 -10 -23.333 -16.167 -36 -18.5s-24.834 -2.5 -36.501 -0.5s-22.167 5.83301 -31.5 11.5
s-16 11.834 -20 18.501c-1.33301 2.66699 -0.333008 4 3 4c14.667 0.666992 26.334 4 35.001 10s15 12.5 19 19.5s6.5 13.833 7.5 20.5s1.5 11.667 1.5 15v171h1l-100 198v1c-2.66699 4.66699 -6.16699 10.334 -10.5 17.001s-9.5 13.167 -15.5 19.5
s-12.833 11.833 -20.5 16.5s-15.834 7.33398 -24.501 8.00098c-2.66699 0 -3.33398 1.33301 -2.00098 4c3.33301 6.66699 8.83301 12.834 16.5 18.501s16.334 9.5 26.001 11.5s19.667 1.83301 30 -0.5s20.166 -8.5 29.499 -18.5c1.33301 -1.33301 2 -2.33301 2 -3l3 3
c9.33301 10 19.166 16.167 29.499 18.5s20.333 2.5 30 0.5s18.334 -5.83301 26.001 -11.5s13.167 -11.834 16.5 -18.501c1.33301 -2.66699 0.666016 -4 -2.00098 -4c-8.66699 -2 -13.5 -6 -14.5 -12s-0.5 -12.667 1.5 -20l85 -168l84 169c2 4.66699 3.5 9.66699 4.5 15
s1 10.5 0 15.5s-3 9.33301 -6 13s-7.83301 6.16699 -14.5 7.5c-1.33301 0 -2.16602 0.666992 -2.49902 2s0.166992 2.66602 1.5 3.99902c6 3.33301 14.167 6.16602 24.5 8.49902s20.166 -1.16699 29.499 -10.5h2l10 5c5.33301 2.66699 11.5 4.5 18.5 5.5s14.333 0 22 -3
s14.167 -9.83301 19.5 -20.5z" />
    <glyph glyph-name="z" unicode="z" horiz-adv-x="535" 
d="M449 21c13.333 -1.33301 24.668 -4.33301 34.001 -9c8 -4 15 -10 21 -18s7.33301 -19 4 -33c-7.33301 2.66699 -16.333 5.33398 -27 8.00098c-9.33301 2 -20.666 4 -33.999 6s-29.333 3 -48 3h-206c-10.667 -0.666992 -21.334 0.5 -32.001 3.5s-20.667 8.83301 -30 17.5
l-3 3l-3 -3c-11.333 -10 -23.333 -16.167 -36 -18.5s-24.834 -2.5 -36.501 -0.5s-22.167 5.83301 -31.5 11.5s-16 11.834 -20 18.501c-1.33301 2.66699 -0.333008 4 3 4c14.667 0.666992 27.5 3.83398 38.5 9.50098s20.333 12 28 19s13.5 14 17.5 21l9 15.5l187 378
c4 10 4.16699 20.5 0.5 31.5s-15.5 16.5 -35.5 16.5h-36c-22 0 -39.833 -4 -53.5 -12s-23.834 -17.833 -30.501 -29.5s-10.167 -23.834 -10.5 -36.501s1.83398 -23.667 6.50098 -33c-13.333 -5.33301 -26.333 -6.16602 -39 -2.49902s-23 10.167 -31 19.5
s-13.167 20.333 -15.5 33s0.166992 25.334 7.5 38.001l6.5 10.5c2.33301 3.66699 4.83301 7.16699 7.5 10.5c-13.333 1.33301 -24.666 4.33301 -33.999 9c-8 4 -15 9.83301 -21 17.5s-7.33301 18.5 -4 32.5c7.33301 -3.33301 16.333 -6.33301 27 -9
c9.33301 -2 20.833 -3.83301 34.5 -5.5s29.834 -2.5 48.501 -2.5h205c10 1.33301 20.5 0.5 31.5 -2.5s21.167 -8.83301 30.5 -17.5l3 -3c1.33301 1.33301 2.66602 2.33301 3.99902 3c10.667 10 22.334 16.167 35.001 18.5s24.834 2.5 36.501 0.5s22.167 -5.83301 31.5 -11.5
s16 -11.834 20 -18.501c1.33301 -2.66699 0.666016 -4 -2.00098 -4c-15.333 -1.33301 -28.5 -4.83301 -39.5 -10.5s-20.333 -12 -28 -19s-13.5 -13.833 -17.5 -20.5l-9 -15l-187 -379c-2 -4.66699 -3.66699 -9.5 -5 -14.5s-1.5 -9.83301 -0.5 -14.5
s3.5 -8.83398 7.5 -12.501s11 -5.83398 21 -6.50098h48c22 0 40 4 54 12s24.167 17.833 30.5 29.5s9.66602 23.834 9.99902 36.501s-1.83398 24 -6.50098 34c13.333 5.33301 26.333 6.16602 39 2.49902s23 -10.167 31 -19.5s13 -20.333 15 -33s-0.333008 -25.334 -7 -38.001
l-6 -10.5c-2 -3.66699 -4.66699 -7.16699 -8 -10.5z" />
    <glyph glyph-name="braceleft" unicode="{" horiz-adv-x="309" 
d="M264 -128c5.33301 0 10 -2.00391 14 -6.00391s6 -8.66699 6 -14s-2 -10 -6 -14s-8.66699 -6 -14 -6h-104v1c-7.33301 0.666992 -14.666 2.33398 -21.999 5.00098s-14.666 7.66699 -21.999 15l-3 3l-3 -3c-10 -10 -20.5 -16.167 -31.5 -18.5s-21.667 -2.5 -32 -0.5
s-19.5 5.83301 -27.5 11.5s-14 11.834 -18 18.501c-1.33301 2.66699 -0.333008 4 3 4c13.333 0.666992 23.666 4 30.999 10s12.833 12.5 16.5 19.5s6 13.833 7 20.5s1.5 11.667 1.5 15v3v236c0 14 -2.5 25.5 -7.5 34.5s-10.667 16.667 -17 23s-12 12.333 -17 18
s-7.5 11.834 -7.5 18.501s2.5 12.834 7.5 18.501s10.667 11.667 17 18s12 14 17 23s7.5 20.5 7.5 34.5v237v2c0 3.33301 -0.5 8.5 -1.5 15.5s-3.33301 14 -7 21s-9.16699 13.333 -16.5 19s-17.666 8.83398 -30.999 9.50098c-3.33301 0 -4.33301 1.33301 -3 4
c4 6.66699 10 12.834 18 18.501s17.167 9.5 27.5 11.5s21 1.83301 32 -0.5s21.5 -8.5 31.5 -18.5l3 -3l3 3c7.33301 7.33301 14.666 12.5 21.999 15.5s14.666 4.83301 21.999 5.5h104c5.33301 0 10 -2 14 -6s6 -8.66699 6 -14s-2 -10 -6 -14s-8.66699 -6 -14 -6h-21
c-27.333 0 -46.833 -5 -58.5 -15s-17.5 -30.667 -17.5 -62v-2v-214c0 -14.667 -5.33301 -26.834 -16 -36.501s-22.334 -18.167 -35.001 -25.5l-36 -20c-11.333 -6 -17.333 -12.333 -18 -19c0.666992 -6.66699 6.66699 -13 18 -19l36 -20
c12.667 -7.33301 24.334 -15.833 35.001 -25.5s16 -21.834 16 -36.501v-214v-2c0 -31.333 5.83301 -52 17.5 -62s31.167 -15 58.5 -15h21v0z" />
    <glyph glyph-name="bar" unicode="|" horiz-adv-x="188" 
d="M2 664c-1.33301 0 -1.99902 1.33301 -1.99902 4c2.66699 6.66699 7 12.834 13 18.501s12.667 9.5 20 11.5s15 1.83301 23 -0.5s15.667 -8.5 23 -18.5c0.666992 -0.666992 1 -1.16699 1 -1.5s0.333008 -0.833008 1 -1.5c0.666992 0.666992 1 1.16699 1 1.5
s0.333008 0.833008 1 1.5c6.66699 10 14.167 16.167 22.5 18.5s16.166 2.5 23.499 0.5s14 -5.83301 20 -11.5s10.333 -11.834 13 -18.501c1.33301 -2.66699 0.666016 -4 -2.00098 -4c-9.33301 -0.666992 -16.666 -3.83398 -21.999 -9.50098s-9.33301 -12 -12 -19
s-4.33398 -14 -5.00098 -21s-1 -12.167 -1 -15.5v-2v-661v-2c0 -3.33301 0.333008 -8.5 1 -15.5s2.33398 -14 5.00098 -21s6.66699 -13.5 12 -19.5s12.666 -9.33301 21.999 -10c3.33301 0 4 -1 2 -3c-2.66699 -6.66699 -7 -12.834 -13 -18.501s-12.667 -9.66699 -20 -12
s-15.166 -2.33301 -23.499 0s-15.833 8.5 -22.5 18.5c-0.666992 0.666992 -1 1.16699 -1 1.5s-0.333008 0.833008 -1 1.5c-0.666992 -0.666992 -1 -1.16699 -1 -1.5s-0.333008 -0.833008 -1 -1.5c-7.33301 -10 -15 -16.167 -23 -18.5s-15.667 -2.33301 -23 0
s-14 6.33301 -20 12s-10.333 11.834 -13 18.501c0 2 0.666992 3 2 3c9.33301 0.666992 16.666 4 21.999 10s9.33301 12.5 12 19.5s4.33398 14 5.00098 21s1 12.167 1 15.5v2v661v2c0 3.33301 -0.333008 8.5 -1 15.5s-2.33398 14 -5.00098 21s-6.66699 13.333 -12 19
s-12.666 8.83398 -21.999 9.50098z" />
    <glyph glyph-name="braceright" unicode="}" horiz-adv-x="309" 
d="M40 -128c26.667 0 46.167 5.00391 58.5 15.0039s18.5 30.667 18.5 62v2v214c0 14.667 5.33301 26.834 16 36.501s22.334 18.167 35.001 25.5l35.5 20c11 6 17.167 12.333 18.5 19c-1.33301 6.66699 -7.5 13 -18.5 19l-35.5 20
c-12.667 7.33301 -24.334 15.833 -35.001 25.5s-16 21.834 -16 36.501v214v2c0 31.333 -6.16699 52 -18.5 62s-31.833 15 -58.5 15h-20c-5.33301 0 -10 2 -14 6s-6 8.66699 -6 14s2 10 6 14s8.66699 6 14 6h104c7.33301 -0.666992 14.666 -2.5 21.999 -5.5
s14.666 -8.16699 21.999 -15.5l3 -3l3 3c10 10 20.5 16.167 31.5 18.5s21.667 2.5 32 0.5s19.5 -5.83301 27.5 -11.5s14 -11.834 18 -18.501c1.33301 -2.66699 0.333008 -4 -3 -4c-13.333 -0.666992 -23.666 -3.83398 -30.999 -9.50098s-12.833 -12 -16.5 -19s-6 -14 -7 -21
s-1.5 -12.167 -1.5 -15.5v-2v-237c0 -14 2.5 -25.5 7.5 -34.5s10.667 -16.667 17 -23s12 -12.333 17 -18s7.5 -11.834 7.5 -18.501s-2.5 -12.834 -7.5 -18.501s-10.667 -11.667 -17 -18s-12 -14 -17 -23s-7.5 -20.5 -7.5 -34.5v-236v-3c0 -3.33301 0.5 -8.33301 1.5 -15
s3.33301 -13.5 7 -20.5s9.16699 -13.5 16.5 -19.5s17.666 -9.33301 30.999 -10c3.33301 0 4.33301 -1.33301 3 -4c-4 -6.66699 -10 -12.834 -18 -18.501s-17.167 -9.5 -27.5 -11.5s-21 -1.83301 -32 0.5s-21.5 8.5 -31.5 18.5l-3 3l-3 -3
c-7.33301 -7.33301 -14.666 -12.333 -21.999 -15s-14.666 -4.33398 -21.999 -5.00098v-1h-104c-5.33301 0 -10 2 -14 6s-6 8.66699 -6 14s2 10 6 14s8.66699 6 14 6h20z" />
    <glyph glyph-name="asciitilde" unicode="~" horiz-adv-x="494" 
d="M3 244l-1.00391 2.00098c0 0.666992 -0.166992 1.33398 -0.5 2.00098s-0.5 1.66699 -0.5 3s-0.166992 2.66602 -0.5 3.99902s-0.166016 2.66602 0.500977 3.99902c0 4 1 8 3 12c0.666992 4 3.33398 8.33301 8.00098 13l3 3l3 3c2.66699 2.66699 5 4.66699 7 6
c5.33301 3.33301 10.833 6.33301 16.5 9s11.5 4.66699 17.5 6c12.667 4 26.334 7 41.001 9c7.33301 0.666992 14.833 1.16699 22.5 1.5s15.167 0.5 22.5 0.5c15.333 0.666992 31 0.333984 47 -0.999023s31.667 -3 47 -5l24 -4l23 -4l22 -4l22 -4l21 -4l20 -4
c6.66699 -1.33301 12.834 -2.33301 18.501 -3s11.167 -1.66699 16.5 -3c5.33301 -0.666992 10.5 -1.16699 15.5 -1.5s9.5 -0.166016 13.5 0.500977c3.33301 0 7 0.666992 11 2l9 3l6 6c0.666992 0.666992 1 1.16699 1 1.5s0.333008 0.833008 1 1.5s1 1.16699 1 1.5
s0.333008 0.833008 1 1.5c0 1.33301 0.666992 2.66602 2 3.99902v1l1 -1c0 -2 0.333008 -3.66699 1 -5v-9c0 -3.33301 -1 -7.33301 -3 -12c-0.666992 -2.66699 -3.33398 -7 -8.00098 -13l-3 -3l-3 -3c-0.666992 -0.666992 -3 -2.33398 -7 -5.00098
c-5.33301 -3.33301 -10.833 -6.33301 -16.5 -9s-11.5 -5 -17.5 -7c-6.66699 -2 -13.5 -3.5 -20.5 -4.5s-14.167 -2.16699 -21.5 -3.5c-14 -2 -28.667 -3 -44 -3c-8 0 -15.833 0.166992 -23.5 0.5s-15.5 0.833008 -23.5 1.5l-24 2c-8 0.666992 -16 1.66699 -24 3
c-7.33301 1.33301 -15 2.5 -23 3.5s-15.667 2.16699 -23 3.5s-14.666 2.83301 -21.999 4.5s-14.666 3.16699 -21.999 4.5l-21 4l-20 4c-6.66699 1.33301 -12.834 2.33301 -18.501 3l-16.5 2c-5.33301 1.33301 -10.5 2 -15.5 2h-13.5c-3.33301 0 -7 -0.666992 -11 -2
s-7 -2.66602 -9 -3.99902c-1.33301 -0.666992 -3.33301 -2.33398 -6 -5.00098c-0.666992 -0.666992 -1 -1.16699 -1 -1.5s-0.333008 -0.833008 -1 -1.5s-1 -1.16699 -1 -1.5s-0.333008 -0.833008 -1 -1.5l-2 -4v-2v0z" />
    <glyph glyph-name="exclamdown" unicode="&#xa1;" 
d="M128 583c-16 0 -29.667 5.66699 -41 17s-17 25 -17 41c0 16.667 5.66699 30.667 17 42s25 17 41 17s29.833 -5.66699 41.5 -17s17.5 -25.333 17.5 -42c0 -16 -5.83301 -29.667 -17.5 -41s-25.5 -17 -41.5 -17zM255 -135c-4 -6.66699 -10.665 -12.834 -19.998 -18.501
s-19.833 -9.66699 -31.5 -12s-23.834 -2.33301 -36.501 0s-24.667 8.5 -36 18.5l-3 3l-3 -3c-11.333 -10 -23.333 -16.167 -36 -18.5s-24.834 -2.33301 -36.501 0s-22.167 6.33301 -31.5 12s-16 11.834 -20 18.501c-0.666992 0.666992 -0.666992 1.33398 0 2.00098
s1.66699 1 3 1c14.667 0.666992 26.334 4 35.001 10s15 12.5 19 19.5s6.5 14 7.5 21s1.5 12.167 1.5 15.5l40 599c0 6 2.16699 11 6.5 15s9.5 6 15.5 6s11.167 -2 15.5 -6s6.5 -9 6.5 -15l38 -599c0 -3.33301 0.5 -8.5 1.5 -15.5s3.5 -14 7.5 -21s10.167 -13.5 18.5 -19.5
s20.166 -9.33301 35.499 -10c1.33301 0 2.33301 -0.333008 3 -1s0.666992 -1.33398 0 -2.00098z" />
    <glyph glyph-name="cent" unicode="&#xa2;" horiz-adv-x="460" 
d="M357 198c9.33301 0 19 -1.66797 29 -5.00098s18.667 -8.66602 26 -15.999s13.166 -16.833 17.499 -28.5s5.83301 -25.834 4.5 -42.501c-2 -21.333 -8.83301 -39.833 -20.5 -55.5s-26 -28.667 -43 -39s-35.5 -18.166 -55.5 -23.499s-39.333 -8.33301 -58 -9v-89
c0 -8.66699 -4.33301 -13 -13 -13h-15c-3.33301 0 -6.16602 1.33301 -8.49902 4s-3.5 5.66699 -3.5 9v90c-32.667 3.33301 -62.334 11.833 -89.001 25.5s-49.5 32.5 -68.5 56.5s-33.667 52.667 -44 86s-15.5 71.333 -15.5 114s5.16699 80.667 15.5 114s25 62 44 86
s41.833 42.833 68.5 56.5s56.334 22.167 89.001 25.5v93c0 3.33301 1.16699 6.16602 3.5 8.49902s5.16602 3.5 8.49902 3.5h15c3.33301 0 6.33301 -1.16699 9 -3.5s4 -5.16602 4 -8.49902v-92c18.667 -1.33301 38 -4.5 58 -9.5s38.5 -12.667 55.5 -23
s31.333 -23.166 43 -38.499s18.5 -33.666 20.5 -54.999c1.33301 -16.667 -0.166992 -30.834 -4.5 -42.501s-10.166 -21.334 -17.499 -29.001s-16 -13 -26 -16s-19.667 -4.5 -29 -4.5c-11.333 0 -21.5 2.66699 -30.5 8s-16.167 10.333 -21.5 15
c-1.33301 1.33301 -1.66602 2 -0.999023 2c12 6 21.167 16.833 27.5 32.5s8.33301 32 6 49s-9.83301 32.5 -22.5 46.5s-32 22 -58 24v-484c26 2 45.333 10 58 24s20.167 29.5 22.5 46.5s0.333008 33.333 -6 49s-15.5 26.5 -27.5 32.5
c-0.666992 0 -0.333984 0.666992 0.999023 2c5.33301 4.66699 12.5 9.66699 21.5 15s19.167 8.33301 30.5 9zM121 261.999c0 -63.333 8 -116.331 24 -158.998s40 -69.334 72 -80.001v478c-32 -10.667 -56 -37.334 -72 -80.001s-24 -95.667 -24 -159z" />
    <glyph glyph-name="sterling" unicode="&#xa3;" horiz-adv-x="584" 
d="M558 -2c0.666992 -4.66699 0.667969 -9.99805 0.000976562 -15.998c0 -2 -0.333008 -3.66699 -1 -5v-3l-1 -2c0 -4 -1 -7.33301 -3 -10c-1.33301 -3.33301 -3 -7 -5 -11s-4.33301 -7.66699 -7 -11c-2 -2 -3.33301 -3.66699 -4 -5c-1.33301 -0.666992 -3 -2 -5 -4
s-3.83301 -3.66699 -5.5 -5s-3.5 -2.66602 -5.5 -3.99902c-4 -3.33301 -8 -6 -12 -8s-8.33301 -4 -13 -6c-9.33301 -4 -18.666 -7 -27.999 -9c-9.33301 -2.66699 -18.833 -4.5 -28.5 -5.5s-19.5 -1.83301 -29.5 -2.5s-20 -1 -30 -1s-20 0.666992 -30 2
c-20 0.666992 -40 2.66699 -60 6c-10 1.33301 -19.833 3 -29.5 5l-28.5 6l-27.5 6c-9 2 -18.167 3.66699 -27.5 5l-25.5 6c-8.33301 2 -16.5 3.66699 -24.5 5l-22 4c-7.33301 1.33301 -14.333 2.33301 -21 3c-13.333 2 -24.666 2 -33.999 0
c-1.33301 0 -2.33301 -0.166992 -3 -0.5s-1.66699 -0.5 -3 -0.5c-0.666992 -0.666992 -1.33398 -1 -2.00098 -1h-1c-0.666992 -0.666992 -1.66699 -1 -3 -1c-4 -2 -7.33301 -4.33301 -10 -7c-1.33301 -1.33301 -2.33301 -2.66602 -3 -3.99902l-2 -2
c0 -0.666992 -0.166992 -1 -0.5 -1s-0.5 -0.333008 -0.5 -1c-1.33301 -2 -2.66602 -4.33301 -3.99902 -7c-0.666992 -0.666992 -1 -1.16699 -1 -1.5s-0.333008 -0.833008 -1 -1.5v-2c-0.666992 -0.666992 -1 -1.33398 -1 -2.00098l-1 2v2
c-0.666992 0.666992 -1 1.66699 -1 3c-0.666992 0.666992 -1 2 -1 4v3v3c-0.666992 2 -0.333984 6.33301 0.999023 13c0.666992 2.66699 1.66699 5.33398 3 8.00098l4 8c3.33301 5.33301 8.33301 10.666 15 15.999c6 4 13 8 21 12c0.666992 0 2.33398 0.666992 5.00098 2
c1.33301 0.666992 2.33301 1 3 1s1.66699 0.333008 3 1c5.33301 1.33301 9.33301 2.66602 12 3.99902h2v245h-64c-4.66699 0 -8.66699 1.66699 -12 5s-5 7.66602 -5 12.999v36c0 4.66699 1.66699 8.66699 5 12s7.33301 5 12 5h64v129c0 50 6.16699 92 18.5 126
s29.166 61.5 50.499 82.5s46.666 36 75.999 45s61 13.5 95 13.5c44.667 0 82 -7.33301 112 -22s53.5 -33.167 70.5 -55.5s27.5 -46.333 31.5 -72s2.5 -49.667 -4.5 -72s-19.333 -40.833 -37 -55.5s-39.834 -22 -66.501 -22c-15.333 0 -28.166 3.33301 -38.499 10
s-18.166 14.5 -23.499 23.5s-7.83301 18.5 -7.5 28.5s3.16602 18 8.49902 24c0.666992 1.33301 1.83398 1.5 3.50098 0.5s3.16699 -1.5 4.5 -1.5c13.333 0 24.666 4.33301 33.999 13s16.166 19.334 20.499 32.001s6 26.667 5 42s-5.5 29.333 -13.5 42
s-19.667 23.334 -35 32.001s-34.666 13 -57.999 13c-47.333 0 -80 -17.333 -98 -52s-27 -85.667 -27 -153v-151h83c5.33301 0 9.5 -1.66699 12.5 -5s4.5 -7.33301 4.5 -12v-36c0 -5.33301 -1.5 -9.66602 -4.5 -12.999s-7.16699 -5 -12.5 -5h-83v-238
c7.33301 -0.666992 14.5 -1.16699 21.5 -1.5s14.167 -1.16602 21.5 -2.49902l28.5 -4l29.5 -4c9.33301 -1.33301 18.666 -2.83301 27.999 -4.5s18.666 -3.16699 27.999 -4.5s18.333 -2.5 27 -3.5s17.334 -2.16699 26.001 -3.5c15.333 -2.66699 31.333 -4 48 -4
c14 -1.33301 26.667 -0.333008 38 3s20.333 7.66602 27 12.999c3.33301 3.33301 6.33301 6.83301 9 10.5s5 7.5 7 11.5c0.666992 1.33301 1.16699 2.16602 1.5 2.49902s0.833008 1.16602 1.5 2.49902c0 2 0.666992 3.66699 2 5c0 1.33301 0.166992 2.16602 0.5 2.49902
s0.5 1.16602 0.5 2.49902c0.666992 0.666992 1 1.16699 1 1.5s0.333008 0.833008 1 1.5c0 1.33301 0.166992 2.33301 0.5 3s0.5 1.33398 0.5 2.00098s0.333008 1.33398 1 2.00098l1 -1v-3c0.666992 0 1 -0.333008 1 -1s0.333008 -1.33398 1 -2.00098
c0 -1.33301 0.333008 -2.66602 1 -3.99902c0 -0.666992 0.166992 -1.33398 0.5 -2.00098s0.5 -1.33398 0.5 -2.00098c0 -1.33301 0.166992 -2.33301 0.5 -3s0.5 -1.66699 0.5 -3c0 -0.666992 0.166992 -1.16699 0.5 -1.5s0.5 -0.833008 0.5 -1.5v-2v-2v0z" />
    <glyph glyph-name="yen" unicode="&#xa5;" horiz-adv-x="516" 
d="M490 676c2 -3.33301 0.998047 -5.66895 -3.00195 -7.00195c-6.66699 0 -15.5 -1.83301 -26.5 -5.5s-20.167 -12.167 -27.5 -25.5l-4 -12c-0.666992 0 -1 -0.333008 -1 -1l-117 -292v-48h53c5.33301 0 10 -2 14 -6s6 -8.66699 6 -14s-2 -10 -6 -14s-8.66699 -6 -14 -6h-53
v-36h53c5.33301 0 10 -2 14 -6s6 -8.66699 6 -14s-2 -10 -6 -14s-8.66699 -6 -14 -6h-53c0 -23.333 -0.166992 -43.5 -0.5 -60.5s-0.5 -25.833 -0.5 -26.5v-3c0 -3.33301 0.5 -8.33301 1.5 -15s3.66699 -13.5 8 -20.5s10.666 -13.5 18.999 -19.5s20.166 -9.33301 35.499 -10
c3.33301 0 4.33301 -1.33301 3 -4c-4.66699 -6.66699 -11.667 -12.834 -21 -18.501s-19.833 -9.5 -31.5 -11.5s-23.834 -1.83301 -36.501 0.5s-24.334 8.5 -35.001 18.5l-3 3c-1.33301 -1.33301 -2.66602 -2.33301 -3.99902 -3c-11.333 -10 -23.166 -16.167 -35.499 -18.5
s-24.333 -2.5 -36 -0.5s-22.167 5.83301 -31.5 11.5s-16 11.834 -20 18.501c-1.33301 2.66699 -0.333008 4 3 4c14.667 0.666992 26.334 4 35.001 10s15 12.5 19 19.5s6.5 13.833 7.5 20.5s1.5 11.667 1.5 15v3v87h-61c-5.33301 0 -10 2 -14 6s-6 8.66699 -6 14s2 10 6 14
s8.66699 6 14 6h61v36h-61c-5.33301 0 -10 2 -14 6s-6 8.66699 -6 14s2 10 6 14s8.66699 6 14 6h61v44l-18.5 46.5l-25 63l-28.5 72.5l-30 75c-1.33301 4 -3 8 -5 12s-3.66699 7.66699 -5 11c-2.66699 6 -6 12 -10 18s-8.83301 11.667 -14.5 17s-12.5 9.83301 -20.5 13.5
s-17.333 5.83398 -28 6.50098c-3.33301 0 -4.33301 1.33301 -3 4c4 6.66699 10.667 12.834 20 18.501s19.833 9.5 31.5 11.5s23.834 1.83301 36.501 -0.5s24.667 -8.5 36 -18.5l3 -3l3 3c11.333 10 23.333 16.167 36 18.5s24.834 2.5 36.501 0.5s22.167 -5.83301 31.5 -11.5
s16 -11.834 20 -18.501c1.33301 -2.66699 0.333008 -4 -3 -4c-13.333 -0.666992 -23.333 -3.16699 -30 -7.5s-11.167 -9.5 -13.5 -15.5s-3.16602 -12.167 -2.49902 -18.5s1.66699 -11.833 3 -16.5c0.666992 -2 1.66699 -4.33301 3 -7l45 -112.5l36 -90.5l96 238l1 3
c4 11.333 3.66699 22 -1 32s-12.667 15 -24 15c-1.33301 0 -2.16602 0.833008 -2.49902 2.5s0.166992 3.16699 1.5 4.5c6 3.33301 14.167 6.16602 24.5 8.49902s20.166 -1.16699 29.499 -10.5l2 -1c2.66699 2.66699 6.66699 5.33398 12 8.00098s11.333 4 18 4
s13.5 -1.66699 20.5 -5s13.5 -9.66602 19.5 -18.999z" />
    <glyph glyph-name="section" unicode="&#xa7;" horiz-adv-x="466" 
d="M437 290c0 -34 -9.5 -62.499 -28.5 -85.499s-43.5 -40.833 -73.5 -53.5c28 -17.333 52 -36.666 72 -57.999s30 -46.666 30 -75.999c0 -26 -6.16699 -49 -18.5 -69s-28.5 -36.833 -48.5 -50.5s-42.833 -23.834 -68.5 -30.501s-51.834 -10 -78.501 -10
c-46.667 0 -85.167 5.83301 -115.5 17.5s-54 26 -71 43s-27.833 35.667 -32.5 56s-4.33398 39 0.999023 56s15 31.333 29 43s31.333 17.5 52 17.5c14.667 0 26.334 -4.16699 35.001 -12.5s14.667 -15.833 18 -22.5c0 -0.666992 -0.333008 -1.33398 -1 -2.00098
c-15.333 -4.66699 -26.333 -13.334 -33 -26.001s-10 -26.667 -10 -42c0 -18 5.5 -33.5 16.5 -46.5s24.833 -23 41.5 -30s34.667 -11 54 -12s37.333 1.66699 54 8s30.5 16 41.5 29s16.5 30.167 16.5 51.5c0 18.667 -7.16699 35.167 -21.5 49.5s-32.333 28.166 -54 41.499
s-45 26.5 -70 39.5s-48.333 27.333 -70 43s-39.667 33 -54 52s-21.5 41.5 -21.5 67.5c0 36 9.83301 65 29.5 87s43.5 38 71.5 48c-27.333 17.333 -51 37 -71 59s-30 48.333 -30 79c0 26 5.33301 48.333 16 67s24.834 34 42.501 46s37.5 21 59.5 27s44 9 66 9
c31.333 0 57.5 -3.83301 78.5 -11.5s39.333 -16 55 -25l41 -23c11.667 -6.33301 24.167 -8.5 37.5 -6.5c3.33301 0.666992 6.16602 1.16699 8.49902 1.5s4.5 1.16602 6.5 2.49902c0.666992 0.666992 1 0 1 -2c0 -2.66699 -0.5 -6.66699 -1.5 -12
s-3.16699 -10.833 -6.5 -16.5s-7.83301 -10.334 -13.5 -14.001s-12.5 -5.16699 -20.5 -4.5c2.66699 -12 2.33398 -22.833 -0.999023 -32.5s-9 -17.667 -17 -24s-17.5 -10.833 -28.5 -13.5s-22.5 -2.66699 -34.5 0c-1.33301 1.33301 -1.66602 2.66602 -0.999023 3.99902
c6.66699 13.333 9.66699 27.833 9 43.5s-5.16699 30.334 -13.5 44.001s-20.833 25.167 -37.5 34.5s-37.334 14 -62.001 14c-22 0 -40.5 -4.83301 -55.5 -14.5s-23.5 -24.167 -25.5 -43.5c-2 -20 4.16699 -38.167 18.5 -54.5s32.833 -31.833 55.5 -46.5
s47.5 -29.167 74.5 -43.5s52.167 -29.666 75.5 -45.999s42.833 -34.166 58.5 -53.499s23.5 -41.666 23.5 -66.999zM131 328.001c-1.33301 -15.333 1.83301 -29.333 9.5 -42s18.5 -24.667 32.5 -36s30 -22.333 48 -33l56 -32c12.667 7.33301 22.834 16.833 30.501 28.5
s11.5 26.167 11.5 43.5c0 13.333 -3.83301 25.666 -11.5 36.999s-17.834 22 -30.501 32s-27.334 19.667 -44.001 29l-51 28c-14 -3.33301 -25.667 -9.66602 -35 -18.999s-14.666 -21.333 -15.999 -36z" />
    <glyph glyph-name="copyright" unicode="&#xa9;" horiz-adv-x="519" 
d="M322 318c14 -1.33301 22 -5.66602 24 -12.999s2.66699 -12.666 2 -15.999c-1.33301 -1.33301 -2 -1.33301 -2 0c-2.66699 2.66699 -6.83398 4.16699 -12.501 4.5s-11.167 0.5 -16.5 0.5s-15.333 -0.833008 -30 -2.5s-29.334 -2.5 -44.001 -2.5h-3
c-22 0 -41.333 4.33301 -58 13s-30.834 20.334 -42.501 35.001s-20.5 32 -26.5 52s-9 41.333 -9 64s3 43.834 9 63.501s14.833 36.834 26.5 51.501s25.834 26.334 42.501 35.001s36 13 58 13h3c14.667 0 29.334 -0.833008 44.001 -2.5s24.667 -2.5 30 -2.5
s10.833 0.166992 16.5 0.5s9.83398 1.83301 12.501 4.5c0 1.33301 0.666992 1.33301 2 0c0.666992 -3.33301 0 -8.66602 -2 -15.999s-10 -11.666 -24 -12.999c6.66699 -8.66699 10.5 -17.834 11.5 -27.501s-0.833008 -18.334 -5.5 -26.001s-11.334 -13.5 -20.001 -17.5
s-19 -4.66699 -31 -2c-1.33301 0 -2.5 0.333008 -3.5 1s-0.833008 1.66699 0.5 3c7.33301 6 12.166 13.5 14.499 22.5s2.16602 17.667 -0.500977 26s-8 15.666 -16 21.999s-18.667 9.5 -32 9.5c-15.333 0 -27.833 -4.83301 -37.5 -14.5s-17.167 -21.834 -22.5 -36.501
s-9 -30.5 -11 -47.5s-3 -32.5 -3 -46.5c0 -14.667 1 -30.5 3 -47.5s5.66699 -32.833 11 -47.5s12.833 -26.834 22.5 -36.501s22.167 -14.5 37.5 -14.5c13.333 0 24 3.16699 32 9.5s13.333 13.666 16 21.999s2.83398 17 0.500977 26s-7.16602 16.5 -14.499 22.5
c-1.33301 1.33301 -1.5 2.33301 -0.5 3s2.16699 1 3.5 1c12 2.66699 22.333 2 31 -2s15.334 -9.83301 20.001 -17.5s6.5 -16.334 5.5 -26.001s-4.83301 -18.834 -11.5 -27.501zM247 206c-33.333 0 -65 6.16699 -95 18.5s-56.667 30.166 -80 53.499s-41.166 50 -53.499 80
s-18.5 61.667 -18.5 95c0 32.667 6.16699 64 18.5 94s30.166 56.667 53.499 80s50 41.166 80 53.499s61.667 18.5 95 18.5s64.833 -6.16699 94.5 -18.5s56.167 -30.166 79.5 -53.499s41.333 -50 54 -80s19 -61.333 19 -94c0 -33.333 -6.33301 -65 -19 -95
s-30.667 -56.667 -54 -80s-49.833 -41.166 -79.5 -53.499s-61.167 -18.5 -94.5 -18.5zM247 679c-31.333 0 -60.833 -5.83301 -88.5 -17.5s-51.667 -27.834 -72 -48.501s-36.5 -44.667 -48.5 -72s-18 -56.666 -18 -87.999s6 -60.833 18 -88.5s28.167 -51.834 48.5 -72.501
s44.333 -36.834 72 -48.501s57.167 -17.5 88.5 -17.5s60.833 5.83301 88.5 17.5s51.667 27.834 72 48.501s36.5 44.834 48.5 72.501s18 57.167 18 88.5s-6 60.666 -18 87.999s-28.167 51.333 -48.5 72s-44.333 36.834 -72 48.501s-57.167 17.5 -88.5 17.5z" />
    <glyph glyph-name="ordfeminine" unicode="&#xaa;" horiz-adv-x="272" 
d="M245 416c0.666992 0 1.16895 -0.170898 1.50195 -0.503906s0.166016 -0.5 -0.500977 -0.5c-3.33301 -6 -10.833 -10.667 -22.5 -14s-22.834 -0.333008 -33.501 9l-1 1c-0.666992 0 -1 -0.166992 -1 -0.5s-0.333008 -0.5 -1 -0.5
c-5.33301 -4.66699 -10.833 -7.5 -16.5 -8.5s-11 -1 -16 0s-9.66699 2.66699 -14 5s-7.5 5.16602 -9.5 8.49902l2 1c10 1.33301 16.167 4.33301 18.5 9s3.5 9.33398 3.5 14.001c-8 10 -16.667 19.333 -26 28c-8 7.33301 -17.333 14.666 -28 21.999
s-21.667 12.666 -33 15.999l-12 -40l-9 -31c-1.33301 -4 -1.66602 -9.16699 -0.999023 -15.5s4.33398 -10.166 11.001 -11.499c0.666992 0 1.16699 -0.333008 1.5 -1s-0.166992 -1 -1.5 -1c-2.66699 -2 -6.33398 -3.5 -11.001 -4.5s-9 0.5 -13 4.5l-1 1
c-0.666992 -0.666992 -2.33398 -1.66699 -5.00098 -3s-5.66699 -2.16602 -9 -2.49902s-6.66602 0.166992 -9.99902 1.5s-6 4.33301 -8 9c0 2 0.666992 3 2 3c4 -1.33301 8.5 -1 13.5 1s9.16699 8 12.5 18l9 32l13 43c-10 0.666992 -19.333 -1.33301 -28 -6
c-1.33301 0 -2 0.666992 -2 2c0 5.33301 3 11.833 9 19.5s15.667 11.834 29 12.501l21 75l3 8c1.33301 4.66699 1 9.33398 -1 14.001s-8 7.33398 -18 8.00098c-2 0 -2.33301 0.666992 -1 2c4 6 11.833 10.5 23.5 13.5s22.5 0.166992 32.5 -8.5c0 -0.666992 0.333008 -1 1 -1
s1.33398 0.333008 2.00098 1c10 8.66699 20.833 11.5 32.5 8.5s19.5 -7.5 23.5 -13.5c0 -1.33301 -0.333008 -2 -1 -2c-9.33301 -0.666992 -14.5 -3.5 -15.5 -8.5s-0.833008 -9.83301 0.5 -14.5l49 -172c0.666992 -2 1.66699 -4.5 3 -7.5s3.16602 -6.16699 5.49902 -9.5
s5.66602 -6.16602 9.99902 -8.49902s9.83301 -3.83301 16.5 -4.5zM76.002 533.996c10 -4 21.833 -12.168 35.5 -24.501s25.167 -25.166 34.5 -38.499l-44 153z" />
    <glyph glyph-name="guillemotleft" unicode="&#xab;" horiz-adv-x="613" 
d="M359 545c6 0 10.001 -2.66699 12.001 -8s1 -10 -3 -14l-111.5 -108.5l-138.5 -134.5c-5.33301 -5.33301 -8 -11.333 -8 -18s2.66699 -12.667 8 -18l138.5 -134.5l111.5 -108.5c4 -4 5 -8.83301 3 -14.5s-6 -8.5 -12 -8.5h-74c-2 0 -5 1.33301 -9 4l-58 57l-77 75
l-77 74.5l-57 55.5c-5.33301 5.33301 -7.33301 12 -6 20s8.66602 18.333 21.999 31l253 247c2.66699 2 5.66699 3 9 3h74zM575.001 545c6 0 10.001 -2.66699 12.001 -8s1 -10 -3 -14l-111.5 -108.5l-138.5 -134.5c-5.33301 -5.33301 -8 -11.333 -8 -18
s2.66699 -12.667 8 -18l138.5 -134.5l111.5 -108.5c4 -4 5 -8.83301 3 -14.5s-6 -8.5 -12 -8.5h-74c-2 0 -5 1.33301 -9 4l-58 57l-77 75l-77 74.5l-57 55.5c-5.33301 5.33301 -7.33301 12 -6 20s8.66602 18.333 21.999 31l253 247c2.66699 2 5.66699 3 9 3h74z" />
    <glyph glyph-name="registered" unicode="&#xae;" horiz-adv-x="519" 
d="M391 310c0.666992 0 1.00293 -0.667969 1.00293 -2.00098c-2 -3.33301 -5.16699 -6.16602 -9.5 -8.49902s-9 -4 -14 -5s-10.5 -1 -16.5 0s-11.333 3.83301 -16 8.5l-1 1c-0.666992 0 -1 -0.166992 -1 -0.5s-0.333008 -0.5 -1 -0.5
c-5.33301 -4.66699 -10.833 -7.5 -16.5 -8.5s-11 -1 -16 0s-9.66699 2.66699 -14 5s-7.5 5.16602 -9.5 8.49902c0 1.33301 0.333008 2 1 2c6.66699 0 12 1.33301 16 4s7 5.5 9 8.5s3.16699 6 3.5 9s0.5 5.5 0.5 7.5c-1.33301 18.667 -5.5 34 -12.5 46s-21.5 15.667 -43.5 11
c-5.33301 -1.33301 -10.333 -2.66602 -15 -3.99902l-14 -4v-49c0 -3.33301 1.33301 -8.83301 4 -16.5s11 -11.834 25 -12.501c0.666992 0 1 -0.666992 1 -2c-2 -3.33301 -5.16699 -6.16602 -9.5 -8.49902s-9 -4 -14 -5s-10.5 -1 -16.5 0s-11.333 3.83301 -16 8.5
c-0.666992 0 -1 0.166992 -1 0.5s-0.333008 0.5 -1 0.5l-1 -1c-5.33301 -4.66699 -10.833 -7.5 -16.5 -8.5s-11 -1 -16 0s-9.66699 2.66699 -14 5s-7.5 5.16602 -9.5 8.49902c-1.33301 1.33301 -1 2 1 2c14 0.666992 22.333 4.83398 25 12.501s4 13.167 4 16.5v140
c-12 2 -22.333 7.5 -31 16.5s-14.834 19.5 -18.501 31.5s-4.5 24.833 -2.5 38.5s7.33301 26.167 16 37.5s21 20.833 37 28.5s36.333 11.5 61 11.5c16 0 32.167 -2.33301 48.5 -7s31 -11.834 44 -21.501s23.667 -21.667 32 -36s12.5 -31.166 12.5 -50.499
c0 -28 -8.33301 -52 -25 -72s-37.334 -36 -62.001 -48c16 0.666992 29.167 -1 39.5 -5s18.666 -9.66699 24.999 -17s10.833 -15.833 13.5 -25.5s4.66699 -19.5 6 -29.5c1.33301 -4.66699 4 -9.16699 8 -13.5s10.667 -6.83301 20 -7.5zM222.003 404.999
c29.333 10 51.6699 26.3311 67.0029 48.998s22.666 49.334 21.999 80.001c0 12 -1.83301 23.333 -5.5 34s-9.16699 20.334 -16.5 29.001s-16.5 15.5 -27.5 20.5s-23.833 7.5 -38.5 7.5c-19.333 0 -36 -5.33301 -50 -16s-21 -25.667 -21 -45
c0 -13.333 4.16699 -23.833 12.5 -31.5s17.333 -11.834 27 -12.501s18.667 2.5 27 9.5s12.5 18.5 12.5 34.5c0 2 0.666992 2.33301 2 1c6 -3.33301 10.5 -8.66602 13.5 -15.999s4.16699 -15 3.5 -23s-3.33398 -15.833 -8.00098 -23.5s-11.334 -13.5 -20.001 -17.5v-42v-13
v-15v-7v-3zM247.007 205.997c-33.333 0 -65 6.16699 -95 18.5s-56.667 30.166 -80 53.499s-41.166 50 -53.499 80s-18.5 61.667 -18.5 95c0 32.667 6.16699 64 18.5 94s30.166 56.667 53.499 80s50 41.166 80 53.499s61.667 18.5 95 18.5s64.833 -6.16699 94.5 -18.5
s56.167 -30.166 79.5 -53.499s41.333 -50 54 -80s19 -61.333 19 -94c0 -33.333 -6.33301 -65 -19 -95s-30.667 -56.667 -54 -80s-49.833 -41.166 -79.5 -53.499s-61.167 -18.5 -94.5 -18.5zM247.007 678.997c-31.333 0 -60.833 -5.83301 -88.5 -17.5
s-51.667 -27.834 -72 -48.501s-36.5 -44.667 -48.5 -72s-18 -56.666 -18 -87.999s6 -60.833 18 -88.5s28.167 -51.834 48.5 -72.501s44.333 -36.834 72 -48.501s57.167 -17.5 88.5 -17.5s60.833 5.83301 88.5 17.5s51.667 27.834 72 48.501s36.5 44.834 48.5 72.501
s18 57.167 18 88.5s-6 60.666 -18 87.999s-28.167 51.333 -48.5 72s-44.333 36.834 -72 48.501s-57.167 17.5 -88.5 17.5z" />
    <glyph glyph-name="degree" unicode="&#xb0;" horiz-adv-x="266" 
d="M241 564c0 -28 -3.5 -52.333 -10.5 -73s-16 -37.667 -27 -51s-23.833 -23.333 -38.5 -30s-29.667 -10 -45 -10s-30.333 3.33301 -45 10s-27.5 16.667 -38.5 30s-19.833 30.333 -26.5 51s-10 45 -10 73v1c-0 28 3.33301 52.167 10 72.5s15.5 37.166 26.5 50.499
s23.833 23.166 38.5 29.499s29.667 9.5 45 9.5s30.333 -3.16699 45 -9.5s27.5 -16.166 38.5 -29.499s20 -30.166 27 -50.499s10.5 -44.5 10.5 -72.5v-1zM120 418c12 0 22.167 4.66699 30.5 14s15 21.166 20 35.499s8.66699 30 11 47s3.5 33.5 3.5 49.5
s-1.16699 32.5 -3.5 49.5s-6 32.5 -11 46.5s-11.667 25.667 -20 35s-18.5 14 -30.5 14s-22 -4.66699 -30 -14s-14.667 -21 -20 -35s-9.16602 -29.5 -11.499 -46.5s-3.5 -33.5 -3.5 -49.5s1.16699 -32.5 3.5 -49.5s6.16602 -32.667 11.499 -47s12 -26.166 20 -35.499
s18 -14 30 -14z" />
    <glyph glyph-name="twosuperior" unicode="&#xb2;" horiz-adv-x="252" 
d="M227 633c0 -22 -6.66797 -41.3262 -20.001 -57.9932s-29.333 -31.667 -48 -45s-38 -26 -58 -38s-36.667 -24.333 -50 -37h119c3.33301 0 8.83301 1.5 16.5 4.5s12.167 11.167 13.5 24.5c0 0.666992 0.166992 1.16699 0.5 1.5s0.5 0.166016 0.5 -0.500977
c6 -4 10.5 -11.833 13.5 -23.5s0.166992 -22.5 -8.5 -32.5l-1 -1c0.666992 -0.666992 1 -1.33398 1 -2.00098c8.66699 -10 11.5 -20.833 8.5 -32.5s-7.5 -19.5 -13.5 -23.5l-1 1c-1.33301 14 -5.83301 22.333 -13.5 25s-13.167 4 -16.5 4h-156c-4 0 -7.33301 1.66699 -10 5
s-3.66699 6.66602 -3 9.99902c2.66699 14 9 27.333 19 40s21.5 24.667 34.5 36s26.667 22.666 41 33.999s27.5 22.666 39.5 33.999s22 23.166 30 35.499s12 25.833 12 40.5c0 25.333 -5.83301 44.166 -17.5 56.499s-27.167 18.5 -46.5 18.5
c-13.333 0 -24.333 -3.16699 -33 -9.5s-15 -14 -19 -23s-5 -18.167 -3 -27.5s7 -17.333 15 -24c2 -1.33301 2.33301 -3.33301 1 -6c-4 -7.33301 -10.167 -12.333 -18.5 -15s-16.5 -3.16699 -24.5 -1.5s-15 5.5 -21 11.5s-9 14 -9 24c0 14.667 3.33301 27.5 10 38.5
s15.334 20.167 26.001 27.5s22.667 12.833 36 16.5s27 5.5 41 5.5c37.333 0 65.5 -9.33301 84.5 -28s28.5 -40.667 28.5 -66z" />
    <glyph glyph-name="threesuperior" unicode="&#xb3;" horiz-adv-x="257" 
d="M216 705c0 -2.66699 -1.33301 -6 -4 -10l-75 -87c23.333 -5.33301 42.166 -14.166 56.499 -26.499s24.666 -26.333 30.999 -42s8.5 -31.667 6.5 -48s-7.66699 -31.333 -17 -45s-22.333 -24.834 -39 -33.501s-37 -13 -61 -13c-14 0 -27.667 1.83301 -41 5.5
s-25.333 9.16699 -36 16.5s-19.334 16.5 -26.001 27.5s-10 23.833 -10 38.5c0 10 3 18 9 24s13 10 21 12s16.167 1.66699 24.5 -1s14.5 -8 18.5 -16c2 -2 1.66699 -3.66699 -1 -5c-8 -6.66699 -13 -14.834 -15 -24.501s-1 -19 3 -28s10.333 -16.667 19 -23
s19.667 -9.5 33 -9.5c20.667 0 37 7.33301 49 22s18.667 31.834 20 51.501s-3.66699 38.834 -15 57.501s-30 32 -56 40c-7.33301 1.33301 -11 6 -11 14c0 4.66699 1.66699 8.66699 5 12l60 58h-113c-2 0 -4.5 -0.166992 -7.5 -0.5s-6.16699 -1.5 -9.5 -3.5
s-6.16602 -4.83301 -8.49902 -8.5s-3.83301 -8.83398 -4.5 -15.501c0 -2 -0.666992 -2.33301 -2 -1c-3.33301 2 -6.16602 5 -8.49902 9s-4 8.5 -5 13.5s-1 10.333 0 16s3.83301 11.167 8.5 16.5l2 2c-0.666992 0 -1 0.166992 -1 0.5s-0.333008 0.5 -1 0.5
c-9.33301 10.667 -14.166 20.5 -14.499 29.5s2.5 15.5 8.5 19.5c1.33301 0 2 -0.333008 2 -1c0.666992 -6 3 -10.5 7 -13.5s8.16699 -5.16699 12.5 -6.5s8.5 -2 12.5 -2h9h145c6 0 11 -2.16699 15 -6.5s5.33301 -9.5 4 -15.5z" />
    <glyph glyph-name="onesuperior" unicode="&#xb9;" horiz-adv-x="140" 
d="M114 416c0.666992 0 1.00098 -0.333008 1.00098 -1c-2 -3.33301 -5.16699 -6.16602 -9.5 -8.49902s-9 -4 -14 -5s-10.5 -1 -16.5 0s-11.333 3.83301 -16 8.5l-1 1c-0.666992 -0.666992 -1.33398 -1 -2.00098 -1c-5.33301 -4.66699 -10.833 -7.5 -16.5 -8.5s-11 -1 -16 0
s-9.66699 2.66699 -14 5s-7.5 5.16602 -9.5 8.49902l1 1c14 1.33301 22.333 5.83301 25 13.5s4 13.167 4 16.5v1v233v2c0 3.33301 -1.33301 8.66602 -4 15.999s-11 11.666 -25 12.999c-0.666992 0 -1 0.666992 -1 2c4 6 11.833 10.5 23.5 13.5s22.5 0.166992 32.5 -8.5
c0.666992 0 1 -0.166992 1 -0.5s0.333008 -0.5 1 -0.5l1 1c10 8.66699 20.833 11.5 32.5 8.5s19.5 -7.5 23.5 -13.5c0 -1.33301 -0.333008 -2 -1 -2c-14 -1.33301 -22.333 -5.66602 -25 -12.999s-4 -12.666 -4 -15.999v-2v-233v-1c0 -3.33301 1.33301 -8.83301 4 -16.5
s11 -12.167 25 -13.5z" />
    <glyph glyph-name="ordmasculine" unicode="&#xba;" horiz-adv-x="266" 
d="M241 564c0 -28 -3.5 -52.333 -10.5 -73s-16 -37.667 -27 -51s-23.833 -23.333 -38.5 -30s-29.667 -10 -45 -10s-30.333 3.33301 -45 10s-27.5 16.667 -38.5 30s-19.833 30.333 -26.5 51s-10 45 -10 73v1c-0 28 3.33301 52.167 10 72.5s15.5 37.166 26.5 50.499
s23.833 23.166 38.5 29.499s29.667 9.5 45 9.5s30.333 -3.16699 45 -9.5s27.5 -16.166 38.5 -29.499s20 -30.166 27 -50.499s10.5 -44.5 10.5 -72.5v-1zM120 418c12 0 22.167 4.66699 30.5 14s15 21.166 20 35.499s8.66699 30 11 47s3.5 33.5 3.5 49.5
s-1.16699 32.5 -3.5 49.5s-6 32.5 -11 46.5s-11.667 25.667 -20 35s-18.5 14 -30.5 14s-22 -4.66699 -30 -14s-14.667 -21 -20 -35s-9.16602 -29.5 -11.499 -46.5s-3.5 -33.5 -3.5 -49.5s1.16699 -32.5 3.5 -49.5s6.16602 -32.667 11.499 -47s12 -26.166 20 -35.499
s18 -14 30 -14z" />
    <glyph glyph-name="guillemotright" unicode="&#xbb;" horiz-adv-x="613" 
d="M303 545c2.66699 0 5.66797 -1 9.00098 -3l253 -247c13.333 -12.667 20.666 -23 21.999 -31s-0.666992 -14.667 -6 -20l-57 -55.5l-77 -74.5l-77 -75l-58 -57c-4 -2.66699 -7 -4 -9 -4h-74c-6 0 -10 2.83301 -12 8.5s-1 10.5 3 14.5l111.5 108.5l138.5 134.5
c5.33301 5.33301 8 11.333 8 18s-2.66699 12.667 -8 18l-138.5 134.5l-111.5 108.5c-4 4 -5 8.66699 -3 14s6 8 12 8h74zM87.001 545c2.66699 0 5.66797 -1 9.00098 -3l253 -247c13.333 -12.667 20.666 -23 21.999 -31s-0.666992 -14.667 -6 -20l-57 -55.5l-77 -74.5
l-77 -75l-58 -57c-4 -2.66699 -7 -4 -9 -4h-74c-6 0 -10 2.83301 -12 8.5s-1 10.5 3 14.5l111.5 108.5l138.5 134.5c5.33301 5.33301 8 11.333 8 18s-2.66699 12.667 -8 18l-138.5 134.5l-111.5 108.5c-4 4 -5 8.66699 -3 14s6 8 12 8h74z" />
    <glyph glyph-name="questiondown" unicode="&#xbf;" horiz-adv-x="523" 
d="M248 -167c-40.667 0 -76.5039 5.66992 -107.504 17.0029s-56.833 26.666 -77.5 45.999s-36.334 41.5 -47.001 66.5s-16 51.5 -16 79.5c0 32 5.83301 64.5 17.5 97.5s26.667 65.333 45 97s38.166 62.167 59.499 91.5l61.5 83.5l51.5 71.5
c14.667 21.333 24.334 40 29.001 56c2.66699 10.667 9.33398 16 20.001 16c6.66699 0 12.167 -2.5 16.5 -7.5s5.83301 -10.833 4.5 -17.5c-3.33301 -20.667 -10.666 -41.834 -21.999 -63.501s-24.166 -44.334 -38.499 -68.001l-45.5 -75
c-16 -26.333 -30.5 -54.333 -43.5 -84s-23.833 -61.334 -32.5 -95.001s-13 -69.834 -13 -108.501c0 -54.667 12.833 -96 38.5 -124s59.5 -42 101.5 -42c28.667 0 52.834 7 72.501 21s33.834 31 42.501 51s11 40.667 7 62s-15 39 -33 53c-3.33301 3.33301 -4 7.33301 -2 12
c9.33301 16.667 23 27.834 41 33.501s35.833 6.5 53.5 2.5s33.167 -12.667 46.5 -26s20 -30.666 20 -51.999c0 -32 -7.33301 -60.167 -22 -84.5s-33.667 -44.5 -57 -60.5s-50 -28.167 -80 -36.5s-60 -12.5 -90 -12.5h-1zM284.996 583.003c-16.667 0 -30.667 5.66699 -42 17
s-17 25.333 -17 42c0 16 5.66699 29.667 17 41s25.333 17 42 17c16 0 29.667 -5.66699 41 -17s17 -25 17 -41c0 -16.667 -5.66699 -30.667 -17 -42s-25 -17 -41 -17z" />
    <glyph glyph-name="Agrave" unicode="&#xc0;" horiz-adv-x="857" 
d="M525 882c1.33301 0 2.66699 -1 4 -3l58 -123c1.33301 -4 0 -6 -4 -6h-22c-1.33301 0 -2.66602 0.666992 -3.99902 2l-98 122c-2.66699 5.33301 -1.33398 8 3.99902 8h62zM828.001 14c3.33301 0 4.3418 -1.33398 3.00879 -4.00098
c-4 -6.66699 -10.667 -12.834 -20 -18.501s-19.833 -9.5 -31.5 -11.5s-23.834 -1.83301 -36.501 0.5s-24.667 8.5 -36 18.5l-3 3l-3 -3c-11.333 -10 -23.333 -16.167 -36 -18.5s-24.834 -2.5 -36.501 -0.5s-22.167 5.83301 -31.5 11.5s-16 11.834 -20 18.501
c-1.33301 2.66699 -0.333008 4 3 4c14.667 0.666992 25.667 3.66699 33 9s12.333 11.166 15 17.499s3.5 13 2.5 20s-2.16699 13.167 -3.5 18.5l-10 38c-4.66699 12 -11.167 27.167 -19.5 45.5s-19.5 37.166 -33.5 56.499c-42 57.333 -93 95 -153 113l-76 -290
c-1.33301 -9.33301 -0.5 -19.166 2.5 -29.499s10.167 -16.5 21.5 -18.5c1.33301 -0.666992 2.33301 -1.66699 3 -3s0.333984 -2.33301 -0.999023 -3c-6 -4 -14.333 -7.16699 -25 -9.5s-20.667 1.5 -30 11.5h-2c-2.66699 -2.66699 -6.66699 -5.33398 -12 -8.00098
s-11.333 -4 -18 -4s-13.5 1.66699 -20.5 5s-13.5 9.66602 -19.5 18.999c-1.33301 4.66699 0 7 4 7c3.33301 0 7.83301 0.666992 13.5 2s11.334 3.5 17.001 6.5s11 7.5 16 13.5s8.83301 13.667 11.5 23l75 287c-5.33301 0.666992 -10.833 1.16699 -16.5 1.5
s-11.5 0.833008 -17.5 1.5c-57.333 1.33301 -108 -8.83398 -152 -30.501s-79 -53.834 -105 -96.501c-25.333 -42 -38.666 -88 -39.999 -138s9 -96 31 -138c0.666992 -1.33301 1.16699 -2.16602 1.5 -2.49902s0.833008 -1.16602 1.5 -2.49902
c15.333 -25.333 33.666 -45.666 54.999 -60.999s43.166 -26.166 65.499 -32.499s44.166 -8.66602 65.499 -6.99902s40.333 6.66699 57 15s29.5 19.5 38.5 33.5s12.5 30.333 10.5 49c0 4.66699 2.66699 7 8 7c19.333 0 35 -6.16699 47 -18.5s18 -26.833 18 -43.5
c0 -31.333 -10.833 -56.666 -32.5 -75.999s-48.834 -31.833 -81.501 -37.5s-67.834 -3.83398 -105.501 5.49902s-72.834 26.666 -105.501 51.999s-59.834 59 -81.501 101s-32.5 93.333 -32.5 154c0 28.667 4 56.667 12 84s19.333 52.666 34 75.999
c28 46.667 65.667 82.667 113 108c52 28 112 41 180 39c7.33301 -0.666992 14.5 -1.16699 21.5 -1.5s14.167 -1.16602 21.5 -2.49902l57 219l3 15.5c1.33301 7 1 14 -1 21s-6.16699 13.333 -12.5 19s-16.5 8.83398 -30.5 9.50098c-3.33301 0 -4.33301 1.33301 -3 4
c4 6.66699 10.667 12.834 20 18.501s19.833 9.5 31.5 11.5s23.667 1.83301 36 -0.5s24.166 -8.5 35.499 -18.5c1.33301 -0.666992 2.66602 -1.66699 3.99902 -3l3 3c10.667 10 22.334 16.167 35.001 18.5s24.834 2.5 36.501 0.5s22.167 -5.83301 31.5 -11.5
s16 -11.834 20 -18.501c1.33301 -2.66699 0.666016 -4 -2.00098 -4c-16 -0.666992 -25.667 -6.16699 -29 -16.5s-4.33301 -20.5 -3 -30.5l128 -478c6 -22.667 13 -43 21 -61c7.33301 -15.333 16.166 -29.666 26.499 -42.999s23.166 -20.333 38.499 -21zM498.01 335.999
c15.333 -9.33301 29.666 -20 42.999 -32s26 -25.333 38 -40l-92 360l-66 -253c26.667 -8 52.334 -19.667 77.001 -35z" />
    <glyph glyph-name="Aacute" unicode="&#xc1;" horiz-adv-x="857" 
d="M571 882c5.33301 0 6.66602 -2.66699 3.99902 -8l-98 -122c-1.33301 -1.33301 -2.66602 -2 -3.99902 -2h-22c-4 0 -5.33301 2 -4 6l58 123c0 2 1.33301 3 4 3h62zM828 14c3.33301 0 4.3418 -1.33398 3.00879 -4.00098c-4 -6.66699 -10.667 -12.834 -20 -18.501
s-19.833 -9.5 -31.5 -11.5s-23.834 -1.83301 -36.501 0.5s-24.667 8.5 -36 18.5l-3 3l-3 -3c-11.333 -10 -23.333 -16.167 -36 -18.5s-24.834 -2.5 -36.501 -0.5s-22.167 5.83301 -31.5 11.5s-16 11.834 -20 18.501c-1.33301 2.66699 -0.333008 4 3 4
c14.667 0.666992 25.667 3.66699 33 9s12.333 11.166 15 17.499s3.5 13 2.5 20s-2.16699 13.167 -3.5 18.5l-10 38c-4.66699 12 -11.167 27.167 -19.5 45.5s-19.5 37.166 -33.5 56.499c-42 57.333 -93 95 -153 113l-76 -290c-1.33301 -9.33301 -0.5 -19.166 2.5 -29.499
s10.167 -16.5 21.5 -18.5c1.33301 -0.666992 2.33301 -1.66699 3 -3s0.333984 -2.33301 -0.999023 -3c-6 -4 -14.333 -7.16699 -25 -9.5s-20.667 1.5 -30 11.5h-2c-2.66699 -2.66699 -6.66699 -5.33398 -12 -8.00098s-11.333 -4 -18 -4s-13.5 1.66699 -20.5 5
s-13.5 9.66602 -19.5 18.999c-1.33301 4.66699 0 7 4 7c3.33301 0 7.83301 0.666992 13.5 2s11.334 3.5 17.001 6.5s11 7.5 16 13.5s8.83301 13.667 11.5 23l75 287c-5.33301 0.666992 -10.833 1.16699 -16.5 1.5s-11.5 0.833008 -17.5 1.5
c-57.333 1.33301 -108 -8.83398 -152 -30.501s-79 -53.834 -105 -96.501c-25.333 -42 -38.666 -88 -39.999 -138s9 -96 31 -138c0.666992 -1.33301 1.16699 -2.16602 1.5 -2.49902s0.833008 -1.16602 1.5 -2.49902c15.333 -25.333 33.666 -45.666 54.999 -60.999
s43.166 -26.166 65.499 -32.499s44.166 -8.66602 65.499 -6.99902s40.333 6.66699 57 15s29.5 19.5 38.5 33.5s12.5 30.333 10.5 49c0 4.66699 2.66699 7 8 7c19.333 0 35 -6.16699 47 -18.5s18 -26.833 18 -43.5c0 -31.333 -10.833 -56.666 -32.5 -75.999
s-48.834 -31.833 -81.501 -37.5s-67.834 -3.83398 -105.501 5.49902s-72.834 26.666 -105.501 51.999s-59.834 59 -81.501 101s-32.5 93.333 -32.5 154c0 28.667 4 56.667 12 84s19.333 52.666 34 75.999c28 46.667 65.667 82.667 113 108c52 28 112 41 180 39
c7.33301 -0.666992 14.5 -1.16699 21.5 -1.5s14.167 -1.16602 21.5 -2.49902l57 219l3 15.5c1.33301 7 1 14 -1 21s-6.16699 13.333 -12.5 19s-16.5 8.83398 -30.5 9.50098c-3.33301 0 -4.33301 1.33301 -3 4c4 6.66699 10.667 12.834 20 18.501s19.833 9.5 31.5 11.5
s23.667 1.83301 36 -0.5s24.166 -8.5 35.499 -18.5c1.33301 -0.666992 2.66602 -1.66699 3.99902 -3l3 3c10.667 10 22.334 16.167 35.001 18.5s24.834 2.5 36.501 0.5s22.167 -5.83301 31.5 -11.5s16 -11.834 20 -18.501c1.33301 -2.66699 0.666016 -4 -2.00098 -4
c-16 -0.666992 -25.667 -6.16699 -29 -16.5s-4.33301 -20.5 -3 -30.5l128 -478c6 -22.667 13 -43 21 -61c7.33301 -15.333 16.166 -29.666 26.499 -42.999s23.166 -20.333 38.499 -21zM498.009 335.999c15.333 -9.33301 29.666 -20 42.999 -32s26 -25.333 38 -40l-92 360
l-66 -253c26.667 -8 52.334 -19.667 77.001 -35z" />
    <glyph glyph-name="Acircumflex" unicode="&#xc2;" horiz-adv-x="857" 
d="M506 882c5.33301 0 6.66602 -2.66699 3.99902 -8l-98 -122c-1.33301 -1.33301 -2.66602 -2 -3.99902 -2h-21c-4.66699 0 -6.33398 2 -5.00098 6l58 123c0.666992 2 2.33398 3 5.00098 3h61zM640 756c1.33301 -4 -0.333008 -6 -5 -6h-21
c-1.33301 0 -2.66602 0.666992 -3.99902 2l-98 122c-2.66699 5.33301 -1.33398 8 3.99902 8h61c2 0 3.66699 -1 5 -3zM828.001 14c3.33301 0 4.3418 -1.33398 3.00879 -4.00098c-4 -6.66699 -10.667 -12.834 -20 -18.501s-19.833 -9.5 -31.5 -11.5
s-23.834 -1.83301 -36.501 0.5s-24.667 8.5 -36 18.5l-3 3l-3 -3c-11.333 -10 -23.333 -16.167 -36 -18.5s-24.834 -2.5 -36.501 -0.5s-22.167 5.83301 -31.5 11.5s-16 11.834 -20 18.501c-1.33301 2.66699 -0.333008 4 3 4c14.667 0.666992 25.667 3.66699 33 9
s12.333 11.166 15 17.499s3.5 13 2.5 20s-2.16699 13.167 -3.5 18.5l-10 38c-4.66699 12 -11.167 27.167 -19.5 45.5s-19.5 37.166 -33.5 56.499c-42 57.333 -93 95 -153 113l-76 -290c-1.33301 -9.33301 -0.5 -19.166 2.5 -29.499s10.167 -16.5 21.5 -18.5
c1.33301 -0.666992 2.33301 -1.66699 3 -3s0.333984 -2.33301 -0.999023 -3c-6 -4 -14.333 -7.16699 -25 -9.5s-20.667 1.5 -30 11.5h-2c-2.66699 -2.66699 -6.66699 -5.33398 -12 -8.00098s-11.333 -4 -18 -4s-13.5 1.66699 -20.5 5s-13.5 9.66602 -19.5 18.999
c-1.33301 4.66699 0 7 4 7c3.33301 0 7.83301 0.666992 13.5 2s11.334 3.5 17.001 6.5s11 7.5 16 13.5s8.83301 13.667 11.5 23l75 287c-5.33301 0.666992 -10.833 1.16699 -16.5 1.5s-11.5 0.833008 -17.5 1.5c-57.333 1.33301 -108 -8.83398 -152 -30.501
s-79 -53.834 -105 -96.501c-25.333 -42 -38.666 -88 -39.999 -138s9 -96 31 -138c0.666992 -1.33301 1.16699 -2.16602 1.5 -2.49902s0.833008 -1.16602 1.5 -2.49902c15.333 -25.333 33.666 -45.666 54.999 -60.999s43.166 -26.166 65.499 -32.499
s44.166 -8.66602 65.499 -6.99902s40.333 6.66699 57 15s29.5 19.5 38.5 33.5s12.5 30.333 10.5 49c0 4.66699 2.66699 7 8 7c19.333 0 35 -6.16699 47 -18.5s18 -26.833 18 -43.5c0 -31.333 -10.833 -56.666 -32.5 -75.999s-48.834 -31.833 -81.501 -37.5
s-67.834 -3.83398 -105.501 5.49902s-72.834 26.666 -105.501 51.999s-59.834 59 -81.501 101s-32.5 93.333 -32.5 154c0 28.667 4 56.667 12 84s19.333 52.666 34 75.999c28 46.667 65.667 82.667 113 108c52 28 112 41 180 39c7.33301 -0.666992 14.5 -1.16699 21.5 -1.5
s14.167 -1.16602 21.5 -2.49902l57 219l3 15.5c1.33301 7 1 14 -1 21s-6.16699 13.333 -12.5 19s-16.5 8.83398 -30.5 9.50098c-3.33301 0 -4.33301 1.33301 -3 4c4 6.66699 10.667 12.834 20 18.501s19.833 9.5 31.5 11.5s23.667 1.83301 36 -0.5s24.166 -8.5 35.499 -18.5
c1.33301 -0.666992 2.66602 -1.66699 3.99902 -3l3 3c10.667 10 22.334 16.167 35.001 18.5s24.834 2.5 36.501 0.5s22.167 -5.83301 31.5 -11.5s16 -11.834 20 -18.501c1.33301 -2.66699 0.666016 -4 -2.00098 -4c-16 -0.666992 -25.667 -6.16699 -29 -16.5
s-4.33301 -20.5 -3 -30.5l128 -478c6 -22.667 13 -43 21 -61c7.33301 -15.333 16.166 -29.666 26.499 -42.999s23.166 -20.333 38.499 -21zM498.01 335.999c15.333 -9.33301 29.666 -20 42.999 -32s26 -25.333 38 -40l-92 360l-66 -253c26.667 -8 52.334 -19.667 77.001 -35
z" />
    <glyph glyph-name="Atilde" unicode="&#xc3;" horiz-adv-x="857" 
d="M586 769c-9.33301 0 -18.499 2.00195 -27.499 6.00195s-18.167 8.33301 -27.5 13l-21.5 10c-7 3.33301 -13.833 5 -20.5 5c-3.33301 0 -6.66602 -0.5 -9.99902 -1.5s-7 -4.16699 -11 -9.5c-6.66699 -8 -13.667 -9.33301 -21 -4l-1 1
c-4.66699 3.33301 -7.33398 7.83301 -8.00098 13.5s0.666016 10.834 3.99902 15.501c12.667 16.667 28.334 25 47.001 25h1c9.33301 0 18.666 -1.83301 27.999 -5.5s18.666 -8.16699 27.999 -13.5c16 -8.66699 28.167 -13.667 36.5 -15s16.166 2.66699 23.499 12
c2.66699 3.33301 5.83398 5.66602 9.50098 6.99902s7.5 0.666016 11.5 -2.00098c5.33301 -3.33301 8.5 -7.83301 9.5 -13.5s-0.166992 -10.834 -3.5 -15.501c-13.333 -18.667 -28.666 -28 -45.999 -28h-1zM828.001 14.002c3.33301 0 4.3418 -1.33398 3.00879 -4.00098
c-4 -6.66699 -10.667 -12.834 -20 -18.501s-19.833 -9.5 -31.5 -11.5s-23.834 -1.83301 -36.501 0.5s-24.667 8.5 -36 18.5l-3 3l-3 -3c-11.333 -10 -23.333 -16.167 -36 -18.5s-24.834 -2.5 -36.501 -0.5s-22.167 5.83301 -31.5 11.5s-16 11.834 -20 18.501
c-1.33301 2.66699 -0.333008 4 3 4c14.667 0.666992 25.667 3.66699 33 9s12.333 11.166 15 17.499s3.5 13 2.5 20s-2.16699 13.167 -3.5 18.5l-10 38c-4.66699 12 -11.167 27.167 -19.5 45.5s-19.5 37.166 -33.5 56.499c-42 57.333 -93 95 -153 113l-76 -290
c-1.33301 -9.33301 -0.5 -19.166 2.5 -29.499s10.167 -16.5 21.5 -18.5c1.33301 -0.666992 2.33301 -1.66699 3 -3s0.333984 -2.33301 -0.999023 -3c-6 -4 -14.333 -7.16699 -25 -9.5s-20.667 1.5 -30 11.5h-2c-2.66699 -2.66699 -6.66699 -5.33398 -12 -8.00098
s-11.333 -4 -18 -4s-13.5 1.66699 -20.5 5s-13.5 9.66602 -19.5 18.999c-1.33301 4.66699 0 7 4 7c3.33301 0 7.83301 0.666992 13.5 2s11.334 3.5 17.001 6.5s11 7.5 16 13.5s8.83301 13.667 11.5 23l75 287c-5.33301 0.666992 -10.833 1.16699 -16.5 1.5
s-11.5 0.833008 -17.5 1.5c-57.333 1.33301 -108 -8.83398 -152 -30.501s-79 -53.834 -105 -96.501c-25.333 -42 -38.666 -88 -39.999 -138s9 -96 31 -138c0.666992 -1.33301 1.16699 -2.16602 1.5 -2.49902s0.833008 -1.16602 1.5 -2.49902
c15.333 -25.333 33.666 -45.666 54.999 -60.999s43.166 -26.166 65.499 -32.499s44.166 -8.66602 65.499 -6.99902s40.333 6.66699 57 15s29.5 19.5 38.5 33.5s12.5 30.333 10.5 49c0 4.66699 2.66699 7 8 7c19.333 0 35 -6.16699 47 -18.5s18 -26.833 18 -43.5
c0 -31.333 -10.833 -56.666 -32.5 -75.999s-48.834 -31.833 -81.501 -37.5s-67.834 -3.83398 -105.501 5.49902s-72.834 26.666 -105.501 51.999s-59.834 59 -81.501 101s-32.5 93.333 -32.5 154c0 28.667 4 56.667 12 84s19.333 52.666 34 75.999
c28 46.667 65.667 82.667 113 108c52 28 112 41 180 39c7.33301 -0.666992 14.5 -1.16699 21.5 -1.5s14.167 -1.16602 21.5 -2.49902l57 219l3 15.5c1.33301 7 1 14 -1 21s-6.16699 13.333 -12.5 19s-16.5 8.83398 -30.5 9.50098c-3.33301 0 -4.33301 1.33301 -3 4
c4 6.66699 10.667 12.834 20 18.501s19.833 9.5 31.5 11.5s23.667 1.83301 36 -0.5s24.166 -8.5 35.499 -18.5c1.33301 -0.666992 2.66602 -1.66699 3.99902 -3l3 3c10.667 10 22.334 16.167 35.001 18.5s24.834 2.5 36.501 0.5s22.167 -5.83301 31.5 -11.5
s16 -11.834 20 -18.501c1.33301 -2.66699 0.666016 -4 -2.00098 -4c-16 -0.666992 -25.667 -6.16699 -29 -16.5s-4.33301 -20.5 -3 -30.5l128 -478c6 -22.667 13 -43 21 -61c7.33301 -15.333 16.166 -29.666 26.499 -42.999s23.166 -20.333 38.499 -21zM498.01 336.001
c15.333 -9.33301 29.666 -20 42.999 -32s26 -25.333 38 -40l-92 360l-66 -253c26.667 -8 52.334 -19.667 77.001 -35z" />
    <glyph glyph-name="Adieresis" unicode="&#xc4;" horiz-adv-x="857" 
d="M466 862c15.333 0 28.5 -5.5 39.5 -16.5s16.5 -24.167 16.5 -39.5s-5.5 -28.5 -16.5 -39.5s-24.167 -16.5 -39.5 -16.5s-28.5 5.5 -39.5 16.5s-16.5 24.167 -16.5 39.5s5.5 28.5 16.5 39.5s24.167 16.5 39.5 16.5zM584 862c15.333 0 28.5 -5.5 39.5 -16.5
s16.5 -24.167 16.5 -39.5s-5.5 -28.5 -16.5 -39.5s-24.167 -16.5 -39.5 -16.5s-28.5 5.5 -39.5 16.5s-16.5 24.167 -16.5 39.5s5.5 28.5 16.5 39.5s24.167 16.5 39.5 16.5zM828 14c3.33301 0 4.3418 -1.33398 3.00879 -4.00098c-4 -6.66699 -10.667 -12.834 -20 -18.501
s-19.833 -9.5 -31.5 -11.5s-23.834 -1.83301 -36.501 0.5s-24.667 8.5 -36 18.5l-3 3l-3 -3c-11.333 -10 -23.333 -16.167 -36 -18.5s-24.834 -2.5 -36.501 -0.5s-22.167 5.83301 -31.5 11.5s-16 11.834 -20 18.501c-1.33301 2.66699 -0.333008 4 3 4
c14.667 0.666992 25.667 3.66699 33 9s12.333 11.166 15 17.499s3.5 13 2.5 20s-2.16699 13.167 -3.5 18.5l-10 38c-4.66699 12 -11.167 27.167 -19.5 45.5s-19.5 37.166 -33.5 56.499c-42 57.333 -93 95 -153 113l-76 -290c-1.33301 -9.33301 -0.5 -19.166 2.5 -29.499
s10.167 -16.5 21.5 -18.5c1.33301 -0.666992 2.33301 -1.66699 3 -3s0.333984 -2.33301 -0.999023 -3c-6 -4 -14.333 -7.16699 -25 -9.5s-20.667 1.5 -30 11.5h-2c-2.66699 -2.66699 -6.66699 -5.33398 -12 -8.00098s-11.333 -4 -18 -4s-13.5 1.66699 -20.5 5
s-13.5 9.66602 -19.5 18.999c-1.33301 4.66699 0 7 4 7c3.33301 0 7.83301 0.666992 13.5 2s11.334 3.5 17.001 6.5s11 7.5 16 13.5s8.83301 13.667 11.5 23l75 287c-5.33301 0.666992 -10.833 1.16699 -16.5 1.5s-11.5 0.833008 -17.5 1.5
c-57.333 1.33301 -108 -8.83398 -152 -30.501s-79 -53.834 -105 -96.501c-25.333 -42 -38.666 -88 -39.999 -138s9 -96 31 -138c0.666992 -1.33301 1.16699 -2.16602 1.5 -2.49902s0.833008 -1.16602 1.5 -2.49902c15.333 -25.333 33.666 -45.666 54.999 -60.999
s43.166 -26.166 65.499 -32.499s44.166 -8.66602 65.499 -6.99902s40.333 6.66699 57 15s29.5 19.5 38.5 33.5s12.5 30.333 10.5 49c0 4.66699 2.66699 7 8 7c19.333 0 35 -6.16699 47 -18.5s18 -26.833 18 -43.5c0 -31.333 -10.833 -56.666 -32.5 -75.999
s-48.834 -31.833 -81.501 -37.5s-67.834 -3.83398 -105.501 5.49902s-72.834 26.666 -105.501 51.999s-59.834 59 -81.501 101s-32.5 93.333 -32.5 154c0 28.667 4 56.667 12 84s19.333 52.666 34 75.999c28 46.667 65.667 82.667 113 108c52 28 112 41 180 39
c7.33301 -0.666992 14.5 -1.16699 21.5 -1.5s14.167 -1.16602 21.5 -2.49902l57 219l3 15.5c1.33301 7 1 14 -1 21s-6.16699 13.333 -12.5 19s-16.5 8.83398 -30.5 9.50098c-3.33301 0 -4.33301 1.33301 -3 4c4 6.66699 10.667 12.834 20 18.501s19.833 9.5 31.5 11.5
s23.667 1.83301 36 -0.5s24.166 -8.5 35.499 -18.5c1.33301 -0.666992 2.66602 -1.66699 3.99902 -3l3 3c10.667 10 22.334 16.167 35.001 18.5s24.834 2.5 36.501 0.5s22.167 -5.83301 31.5 -11.5s16 -11.834 20 -18.501c1.33301 -2.66699 0.666016 -4 -2.00098 -4
c-16 -0.666992 -25.667 -6.16699 -29 -16.5s-4.33301 -20.5 -3 -30.5l128 -478c6 -22.667 13 -43 21 -61c7.33301 -15.333 16.166 -29.666 26.499 -42.999s23.166 -20.333 38.499 -21zM498.009 335.999c15.333 -9.33301 29.666 -20 42.999 -32s26 -25.333 38 -40l-92 360
l-66 -253c26.667 -8 52.334 -19.667 77.001 -35z" />
    <glyph glyph-name="Aring" unicode="&#xc5;" horiz-adv-x="857" 
d="M533 862c15.333 0 28.5 -5.5 39.5 -16.5s16.5 -24.167 16.5 -39.5s-5.5 -28.5 -16.5 -39.5s-24.167 -16.5 -39.5 -16.5s-28.5 5.5 -39.5 16.5s-16.5 24.167 -16.5 39.5s5.5 28.5 16.5 39.5s24.167 16.5 39.5 16.5zM533 779c7.33301 0 13.666 2.66699 18.999 8
s8 11.666 8 18.999s-2.66699 13.666 -8 18.999s-11.666 8 -18.999 8s-13.666 -2.66699 -18.999 -8s-8 -11.666 -8 -18.999s2.66699 -13.666 8 -18.999s11.666 -8 18.999 -8zM828 14c3.33301 0 4.3418 -1.33398 3.00879 -4.00098c-4 -6.66699 -10.667 -12.834 -20 -18.501
s-19.833 -9.5 -31.5 -11.5s-23.834 -1.83301 -36.501 0.5s-24.667 8.5 -36 18.5l-3 3l-3 -3c-11.333 -10 -23.333 -16.167 -36 -18.5s-24.834 -2.5 -36.501 -0.5s-22.167 5.83301 -31.5 11.5s-16 11.834 -20 18.501c-1.33301 2.66699 -0.333008 4 3 4
c14.667 0.666992 25.667 3.66699 33 9s12.333 11.166 15 17.499s3.5 13 2.5 20s-2.16699 13.167 -3.5 18.5l-10 38c-4.66699 12 -11.167 27.167 -19.5 45.5s-19.5 37.166 -33.5 56.499c-42 57.333 -93 95 -153 113l-76 -290c-1.33301 -9.33301 -0.5 -19.166 2.5 -29.499
s10.167 -16.5 21.5 -18.5c1.33301 -0.666992 2.33301 -1.66699 3 -3s0.333984 -2.33301 -0.999023 -3c-6 -4 -14.333 -7.16699 -25 -9.5s-20.667 1.5 -30 11.5h-2c-2.66699 -2.66699 -6.66699 -5.33398 -12 -8.00098s-11.333 -4 -18 -4s-13.5 1.66699 -20.5 5
s-13.5 9.66602 -19.5 18.999c-1.33301 4.66699 0 7 4 7c3.33301 0 7.83301 0.666992 13.5 2s11.334 3.5 17.001 6.5s11 7.5 16 13.5s8.83301 13.667 11.5 23l75 287c-5.33301 0.666992 -10.833 1.16699 -16.5 1.5s-11.5 0.833008 -17.5 1.5
c-57.333 1.33301 -108 -8.83398 -152 -30.501s-79 -53.834 -105 -96.501c-25.333 -42 -38.666 -88 -39.999 -138s9 -96 31 -138c0.666992 -1.33301 1.16699 -2.16602 1.5 -2.49902s0.833008 -1.16602 1.5 -2.49902c15.333 -25.333 33.666 -45.666 54.999 -60.999
s43.166 -26.166 65.499 -32.499s44.166 -8.66602 65.499 -6.99902s40.333 6.66699 57 15s29.5 19.5 38.5 33.5s12.5 30.333 10.5 49c0 4.66699 2.66699 7 8 7c19.333 0 35 -6.16699 47 -18.5s18 -26.833 18 -43.5c0 -31.333 -10.833 -56.666 -32.5 -75.999
s-48.834 -31.833 -81.501 -37.5s-67.834 -3.83398 -105.501 5.49902s-72.834 26.666 -105.501 51.999s-59.834 59 -81.501 101s-32.5 93.333 -32.5 154c0 28.667 4 56.667 12 84s19.333 52.666 34 75.999c28 46.667 65.667 82.667 113 108c52 28 112 41 180 39
c7.33301 -0.666992 14.5 -1.16699 21.5 -1.5s14.167 -1.16602 21.5 -2.49902l57 219l3 15.5c1.33301 7 1 14 -1 21s-6.16699 13.333 -12.5 19s-16.5 8.83398 -30.5 9.50098c-3.33301 0 -4.33301 1.33301 -3 4c4 6.66699 10.667 12.834 20 18.501s19.833 9.5 31.5 11.5
s23.667 1.83301 36 -0.5s24.166 -8.5 35.499 -18.5c1.33301 -0.666992 2.66602 -1.66699 3.99902 -3l3 3c10.667 10 22.334 16.167 35.001 18.5s24.834 2.5 36.501 0.5s22.167 -5.83301 31.5 -11.5s16 -11.834 20 -18.501c1.33301 -2.66699 0.666016 -4 -2.00098 -4
c-16 -0.666992 -25.667 -6.16699 -29 -16.5s-4.33301 -20.5 -3 -30.5l128 -478c6 -22.667 13 -43 21 -61c7.33301 -15.333 16.166 -29.666 26.499 -42.999s23.166 -20.333 38.499 -21zM498.009 335.999c15.333 -9.33301 29.666 -20 42.999 -32s26 -25.333 38 -40l-92 360
l-66 -253c26.667 -8 52.334 -19.667 77.001 -35z" />
    <glyph glyph-name="AE" unicode="&#xc6;" horiz-adv-x="1282" 
d="M1195 21c13.333 -1.33301 24.6748 -4.33105 34.0078 -8.99805c8 -4 15 -10 21 -18s7.66699 -19 5 -33c-7.33301 2.66699 -16.333 5.33398 -27 8.00098c-9.33301 2 -20.833 4 -34.5 6s-29.834 3 -48.501 3h-272c-18.667 1.33301 -35 8.33301 -49 21
c-0.666992 0 -1 0.166992 -1 0.5s-0.333008 0.5 -1 0.5c-9.33301 -8 -21.333 -14 -36 -18c-16 -5.33301 -31.667 -5.66602 -47 -0.999023s-27.666 11 -36.999 19l-1 -1c-11.333 -10 -23.333 -16.167 -36 -18.5s-24.834 -2.5 -36.501 -0.5s-22.167 5.83301 -31.5 11.5
s-16 11.834 -20 18.501c-1.33301 2.66699 -0.333008 4 3 4c14.667 0.666992 25.667 3.66699 33 9s12.333 11.166 15 17.499s3.5 13 2.5 20s-2.16699 13.167 -3.5 18.5l-10 38c-4.66699 12 -11.167 27.167 -19.5 45.5s-19.5 37.166 -33.5 56.499c-42 57.333 -93 95 -153 113
l-76 -290c-1.33301 -9.33301 -0.5 -19.166 2.5 -29.499s10.167 -16.5 21.5 -18.5c1.33301 -0.666992 2.33301 -1.66699 3 -3s0.333984 -2.33301 -0.999023 -3c-6 -4 -14.333 -7.16699 -25 -9.5s-20.667 1.5 -30 11.5h-2c-2.66699 -2.66699 -6.66699 -5.33398 -12 -8.00098
s-11.333 -4 -18 -4s-13.5 1.66699 -20.5 5s-13.5 9.66602 -19.5 18.999c-1.33301 4.66699 0 7 4 7c3.33301 0 7.83301 0.666992 13.5 2s11.334 3.5 17.001 6.5s11 7.5 16 13.5s8.83301 13.667 11.5 23l75 287c-5.33301 0.666992 -10.833 1.16699 -16.5 1.5
s-11.5 0.833008 -17.5 1.5c-57.333 1.33301 -108 -8.83398 -152 -30.501s-79 -53.834 -105 -96.501c-25.333 -42 -38.666 -88 -39.999 -138s9 -96 31 -138c0.666992 -1.33301 1.16699 -2.16602 1.5 -2.49902s0.833008 -1.16602 1.5 -2.49902
c15.333 -25.333 33.666 -45.666 54.999 -60.999s43.166 -26.166 65.499 -32.499s44.166 -8.66602 65.499 -6.99902s40.333 6.66699 57 15s29.5 19.5 38.5 33.5s12.5 30.333 10.5 49c0 4.66699 2.66699 7 8 7c19.333 0 35 -6.16699 47 -18.5s18 -26.833 18 -43.5
c0 -31.333 -10.833 -56.666 -32.5 -75.999s-48.834 -31.833 -81.501 -37.5s-67.834 -3.83398 -105.501 5.49902s-72.834 26.666 -105.501 51.999s-59.834 59 -81.501 101s-32.5 93.333 -32.5 154c0 28.667 4 56.667 12 84s19.333 52.666 34 75.999
c28 46.667 65.667 82.667 113 108c52 28 112 41 180 39c7.33301 -0.666992 14.5 -1.16699 21.5 -1.5s14.167 -1.16602 21.5 -2.49902l57 219l3 15.5c1.33301 7 1 14 -1 21s-6.16699 13.333 -12.5 19s-16.5 8.83398 -30.5 9.50098c-3.33301 0 -4.33301 1.33301 -3 4
c4 6.66699 10.667 12.834 20 18.501s19.833 9.5 31.5 11.5s23.667 1.83301 36 -0.5s24.166 -8.5 35.499 -18.5c1.33301 -0.666992 2.66602 -1.66699 3.99902 -3l3 3c10.667 10 22.334 16.167 35.001 18.5s24.834 2.5 36.501 0.5s22.167 -5.83301 31.5 -11.5
s16 -11.834 20 -18.501c1.33301 -2.66699 0.666016 -4 -2.00098 -4c-16 -0.666992 -25.667 -6.16699 -29 -16.5s-4.33301 -20.5 -3 -30.5l128 -478c0.666992 -5.33301 2 -11 4 -17c1.33301 -5.33301 3.16602 -11.166 5.49902 -17.499s5.16602 -13.166 8.49902 -20.499v515
c0 3.33301 -0.5 8.5 -1.5 15.5s-3.5 14 -7.5 21s-10.333 13.333 -19 19s-20.667 8.83398 -36 9.50098c-2 1.33301 -2.66699 2.66602 -2 3.99902c4 6.66699 10.667 12.834 20 18.501s19.833 9.5 31.5 11.5s23.667 1.83301 36 -0.5s24.166 -8.5 35.499 -18.5l3 -3
c1.33301 0.666992 2.66602 1.66699 3.99902 3c14 12.667 30.333 19.667 49 21h272c18.667 0 34.834 0.833008 48.501 2.5s25.167 3.5 34.5 5.5c10.667 2.66699 19.667 5.66699 27 9c2.66699 -14 1 -25 -5 -33s-13 -14 -21 -18
c-9.33301 -4.66699 -20.666 -7.33398 -33.999 -8.00098c16.667 -21.333 25.667 -41.333 27 -60s-3 -34.667 -13 -48s-24.5 -23 -43.5 -29s-39.833 -6.66699 -62.5 -2c-3.33301 0.666992 -6.16602 1.66699 -8.49902 3s-1.83301 2.66602 1.5 3.99902
c12 4.66699 20 14.334 24 29.001s2.83301 29.667 -3.5 45s-18.833 29.166 -37.5 41.499s-44.667 18.5 -78 18.5h-43c-18.667 0 -33.167 -1.66699 -43.5 -5s-18 -7.83301 -23 -13.5s-8 -12.334 -9 -20.001s-1.5 -15.834 -1.5 -24.501v-198
c19.333 8.66699 38.166 16.167 56.499 22.5s36.5 10.5 54.5 12.5c32 4 57 1 75 -9s30.333 -22.667 37 -38s8.83398 -31.333 6.50098 -48s-7.5 -30 -15.5 -40c-2.66699 -1.33301 -4 -1.33301 -4 0c1.33301 10 -0.5 20.167 -5.5 30.5s-14 19 -27 26s-29.833 11.333 -50.5 13
s-45.667 -1.5 -75 -9.5l-24.5 -7c-9 -2.66699 -18.167 -5.66699 -27.5 -9v-262c0 -8.66699 0.5 -16.834 1.5 -24.501s4 -14.334 9 -20.001s12.667 -10.167 23 -13.5s24.833 -5 43.5 -5h43c33.333 0 59.333 6.16699 78 18.5s31.167 26.166 37.5 41.499s7.5 30.333 3.5 45
s-12 24.334 -24 29.001c-3.33301 1.33301 -3.83301 2.66602 -1.5 3.99902s5.16602 2.33301 8.49902 3c22.667 4.66699 43.5 4 62.5 -2s33.5 -15.667 43.5 -29s14.333 -29.333 13 -48s-10.333 -38.334 -27 -59.001zM498.009 336.002c15.333 -9.33301 29.666 -20 42.999 -32
s26 -25.333 38 -40l-92 360l-66 -253c26.667 -8 52.334 -19.667 77.001 -35z" />
    <glyph glyph-name="Ccedilla" unicode="&#xc7;" horiz-adv-x="564" 
d="M480 43c16 -2 28 -5.67578 36 -11.0088s13.667 -11.333 17 -18s5 -13.167 5 -19.5s-0.333008 -11.5 -1 -15.5c-1.33301 -3.33301 -2.66602 -3.66602 -3.99902 -0.999023c-5.33301 6 -14.5 9.5 -27.5 10.5s-25.167 1.5 -36.5 1.5c-5.33301 0 -13 -0.5 -23 -1.5l-33.5 -3.5
c-12.333 -1.33301 -25.833 -2.5 -40.5 -3.5s-29 -1.83301 -43 -2.5v-26c6.66699 -0.666992 14.334 -2 23.001 -4s17.5 -4.66699 26.5 -8s17.667 -7.5 26 -12.5s15.5 -10.833 21.5 -17.5c11.333 -14 15.333 -30.333 12 -49c-6 -32 -28 -54.667 -66 -68
c-19.333 -6.66699 -41 -10 -65 -10c-20 0 -39.5 2.66699 -58.5 8s-34.167 13 -45.5 23c-2 2 -4 3.83301 -6 5.5s-3.66699 3.5 -5 5.5c-7.33301 10 -7.83301 20.333 -1.5 31s15.833 15 28.5 13c-0.666992 -3.33301 -0.5 -7 0.5 -11s4.16699 -8.33301 9.5 -13
c6 -5.33301 14.167 -9.83301 24.5 -13.5s21.5 -6.16699 33.5 -7.5s24.333 -1.5 37 -0.5s24.334 3.5 35.001 7.5c8 3.33301 16.167 7.83301 24.5 13.5s13.166 13.834 14.499 24.501c1.33301 4.66699 0.333008 10 -3 16c-4 5.33301 -10 9.83301 -18 13.5s-16.5 6.5 -25.5 8.5
s-17.5 3.66699 -25.5 5s-14 2 -18 2l-19 1v63c-46.667 1.33301 -88 11.666 -124 30.999s-66.167 45.333 -90.5 78s-42.833 70.5 -55.5 113.5s-19 88.833 -19 137.5c0 50 6.5 96.833 19.5 140.5s32.167 81.834 57.5 114.501s56.666 58.5 93.999 77.5s80.333 28.5 129 28.5h6
c16 0 32.333 -0.666992 49 -2s32.5 -2.66602 47.5 -3.99902s28.333 -2.66602 40 -3.99902s20.5 -2 26.5 -2c11.333 0 23.5 0.5 36.5 1.5s22.167 4.83301 27.5 11.5c1.33301 1.33301 2.66602 1 3.99902 -1c0.666992 -4 1 -9.33301 1 -16s-1.66699 -13.167 -5 -19.5
s-9 -12.166 -17 -17.499s-20 -9 -36 -11c15.333 -18.667 23.833 -38.667 25.5 -60s-2.16602 -40.5 -11.499 -57.5s-23.666 -30 -42.999 -39s-42.333 -10.5 -69 -4.5c-3.33301 0.666992 -5.83301 1.83398 -7.5 3.50098s-1.5 3.16699 0.5 4.5
c16.667 12.667 27.5 29.167 32.5 49.5s4.5 39.833 -1.5 58.5s-17.833 34.834 -35.5 48.501s-41.167 20.5 -70.5 20.5c-34.667 0 -62.667 -10.667 -84 -32s-38 -48.166 -50 -80.499s-20 -67.166 -24 -104.499s-6 -72 -6 -104s2 -66.667 6 -104s12 -72 24 -104
s28.667 -58.833 50 -80.5s49.333 -32.5 84 -32.5c29.333 0 52.833 6.83301 70.5 20.5s29.5 30 35.5 49s6.5 38.5 1.5 58.5s-15.833 36.333 -32.5 49c-2 1.33301 -2.16699 2.83301 -0.5 4.5s4.16699 3.16699 7.5 4.5c26.667 6 49.667 4.33301 69 -5
s33.666 -22.5 42.999 -39.5s13.166 -36 11.499 -57s-10.167 -40.833 -25.5 -59.5z" />
    </font>
</defs>
</svg>
