<svg width="20" height="20" viewBox="0 0 20 20" fill="none" xmlns="http://www.w3.org/2000/svg">
<path d="M19.4543 8.1551C19.5773 8.81409 19.6443 9.50308 19.6443 10.2221C19.6443 15.846 15.8803 19.8449 10.1954 19.8449C8.90258 19.8453 7.62235 19.591 6.42786 19.0964C5.23338 18.6018 4.14804 17.8768 3.23388 16.9626C2.31971 16.0484 1.59464 14.9631 1.10008 13.7686C0.605518 12.5741 0.351169 11.2939 0.351563 10.0011C0.351169 8.70825 0.605518 7.42802 1.10008 6.23353C1.59464 5.03904 2.31971 3.95371 3.23388 3.03954C4.14804 2.12538 5.23338 1.4003 6.42786 0.905742C7.62235 0.411182 8.90258 0.156833 10.1954 0.157227C12.8534 0.157227 15.0743 1.13521 16.7783 2.72319L14.0033 5.49814V5.49114C12.9704 4.50716 11.6594 4.00217 10.1954 4.00217C6.94746 4.00217 4.3075 6.74612 4.3075 9.99507C4.3075 13.243 6.94746 15.993 10.1954 15.993C13.1424 15.993 15.1483 14.308 15.5603 11.994H10.1954V8.1551H19.4553H19.4543Z" fill="#9093B1"/>
</svg>
