<svg width="22" height="22" viewBox="0 0 22 22" fill="none" xmlns="http://www.w3.org/2000/svg">
<path fill-rule="evenodd" clip-rule="evenodd" d="M6.46392 0.0669755C7.6369 0.0129764 8.0109 0.000976562 10.9988 0.000976562C13.9868 0.000976562 14.3608 0.0139763 15.5328 0.0669755C16.7048 0.119975 17.5047 0.306972 18.2047 0.577967C18.9377 0.854963 19.6027 1.28796 20.1527 1.84795C20.7127 2.39694 21.1447 3.06093 21.4207 3.79492C21.6927 4.4949 21.8787 5.29489 21.9327 6.46487C21.9867 7.63985 21.9987 8.01385 21.9987 11.0008C21.9987 13.9888 21.9857 14.3627 21.9327 15.5357C21.8797 16.7057 21.6927 17.5057 21.4207 18.2057C21.1447 18.9398 20.712 19.6049 20.1527 20.1547C19.6027 20.7146 18.9377 21.1466 18.2047 21.4226C17.5047 21.6946 16.7048 21.8806 15.5348 21.9346C14.3608 21.9886 13.9868 22.0006 10.9988 22.0006C8.0109 22.0006 7.6369 21.9876 6.46392 21.9346C5.29394 21.8816 4.49395 21.6946 3.79396 21.4226C3.0599 21.1466 2.39481 20.7139 1.84499 20.1547C1.28538 19.6053 0.852325 18.9406 0.576014 18.2067C0.305019 17.5067 0.119022 16.7067 0.0650224 15.5367C0.0110232 14.3617 -0.000976562 13.9878 -0.000976562 11.0008C-0.000976562 8.01285 0.0120232 7.63885 0.0650224 6.46687C0.118022 5.29489 0.305019 4.4949 0.576014 3.79492C0.852733 3.06101 1.28612 2.39625 1.84599 1.84695C2.39503 1.28746 3.05945 0.854406 3.79296 0.577967C4.49295 0.306972 5.29294 0.120975 6.46292 0.0669755H6.46392ZM15.4438 2.04694C14.2838 1.99394 13.9358 1.98294 10.9988 1.98294C8.06189 1.98294 7.7139 1.99394 6.55392 2.04694C5.48094 2.09594 4.89895 2.27494 4.51095 2.42594C3.99796 2.62593 3.63097 2.86293 3.24597 3.24792C2.88102 3.60297 2.60016 4.03519 2.42398 4.5129C2.27299 4.9009 2.09399 5.48289 2.04499 6.55587C1.99199 7.71585 1.98099 8.06385 1.98099 11.0008C1.98099 13.9378 1.99199 14.2857 2.04499 15.4457C2.09399 16.5187 2.27299 17.1007 2.42398 17.4887C2.59998 17.9657 2.88098 18.3987 3.24597 18.7537C3.60097 19.1187 4.03396 19.3997 4.51095 19.5757C4.89895 19.7267 5.48094 19.9057 6.55392 19.9547C7.7139 20.0077 8.06089 20.0187 10.9988 20.0187C13.9368 20.0187 14.2838 20.0077 15.4438 19.9547C16.5168 19.9057 17.0988 19.7267 17.4867 19.5757C17.9997 19.3757 18.3667 19.1387 18.7517 18.7537C19.1167 18.3987 19.3977 17.9657 19.5737 17.4887C19.7247 17.1007 19.9037 16.5187 19.9527 15.4457C20.0057 14.2857 20.0167 13.9378 20.0167 11.0008C20.0167 8.06385 20.0057 7.71585 19.9527 6.55587C19.9037 5.48289 19.7247 4.9009 19.5737 4.5129C19.3737 3.99991 19.1367 3.63292 18.7517 3.24792C18.3967 2.883 17.9644 2.60215 17.4867 2.42594C17.0988 2.27494 16.5168 2.09594 15.4438 2.04694ZM9.59387 14.3917C10.3785 14.7184 11.2522 14.7625 12.0658 14.5165C12.8793 14.2705 13.5822 13.7497 14.0544 13.043C14.5266 12.3363 14.7388 11.4877 14.6548 10.6419C14.5708 9.79616 14.1958 9.00581 13.5938 8.40584C13.21 8.02232 12.746 7.72867 12.2352 7.546C11.7243 7.36334 11.1793 7.29622 10.6393 7.34947C10.0994 7.40273 9.57802 7.57503 9.11268 7.85398C8.64734 8.13293 8.24964 8.51159 7.9482 8.96268C7.64676 9.41378 7.44909 9.92611 7.36942 10.4628C7.28975 10.9994 7.33006 11.5471 7.48744 12.0663C7.64483 12.5855 7.91538 13.0634 8.27961 13.4655C8.64385 13.8676 9.0927 14.1839 9.59387 14.3917ZM7.00091 7.00286C7.52593 6.47785 8.14921 6.06138 8.83518 5.77725C9.52115 5.49311 10.2564 5.34687 10.9988 5.34687C11.7413 5.34687 12.4765 5.49311 13.1625 5.77725C13.8485 6.06138 14.4718 6.47785 14.9968 7.00286C15.5218 7.52788 15.9383 8.15117 16.2224 8.83713C16.5065 9.5231 16.6528 10.2583 16.6528 11.0008C16.6528 11.7433 16.5065 12.4785 16.2224 13.1645C15.9383 13.8504 15.5218 14.4737 14.9968 14.9987C13.9365 16.0591 12.4984 16.6547 10.9988 16.6547C9.49933 16.6547 8.06123 16.0591 7.00091 14.9987C5.94059 13.9384 5.34491 12.5003 5.34491 11.0008C5.34491 9.50128 5.94059 8.06318 7.00091 7.00286ZM17.9067 6.18888C18.0368 6.06615 18.141 5.91856 18.213 5.75486C18.2851 5.59115 18.3235 5.41466 18.3261 5.23582C18.3288 5.05699 18.2955 4.87945 18.2282 4.71371C18.161 4.54798 18.0612 4.39742 17.9347 4.27095C17.8082 4.14448 17.6577 4.04467 17.4919 3.97743C17.3262 3.91019 17.1487 3.87689 16.9698 3.8795C16.791 3.8821 16.6145 3.92057 16.4508 3.99261C16.2871 4.06465 16.1395 4.16881 16.0168 4.29891C15.7781 4.55193 15.6474 4.88802 15.6525 5.23582C15.6575 5.58363 15.798 5.91576 16.0439 6.16172C16.2899 6.40768 16.622 6.5481 16.9698 6.55317C17.3176 6.55824 17.6537 6.42756 17.9067 6.18888Z" fill="#9093B1"/>
</svg>
