<svg width="19" height="18" viewBox="0 0 19 18" fill="none" xmlns="http://www.w3.org/2000/svg">
<path d="M16.3313 15.3397H13.6664V11.1628C13.6664 10.1668 13.6464 8.88484 12.2764 8.88484C10.8874 8.88484 10.6754 9.96882 10.6754 11.0898V15.3397H8.00947V6.75087H10.5694V7.92085H10.6044C10.9624 7.24686 11.8324 6.53387 13.1324 6.53387C15.8323 6.53387 16.3323 8.31184 16.3323 10.6248V15.3397H16.3313ZM4.99952 5.57589C4.79608 5.57615 4.59458 5.53626 4.40659 5.4585C4.2186 5.38073 4.0478 5.26663 3.90399 5.12273C3.76018 4.97883 3.64619 4.80796 3.56855 4.61992C3.49091 4.43187 3.45115 4.23035 3.45154 4.02691C3.45174 3.72075 3.54272 3.42153 3.71298 3.16707C3.88324 2.91262 4.12513 2.71437 4.40806 2.59739C4.69099 2.48041 5.00225 2.44995 5.30249 2.50988C5.60273 2.5698 5.87846 2.71741 6.09481 2.93404C6.31116 3.15066 6.45841 3.42658 6.51794 3.7269C6.57748 4.02722 6.54662 4.33844 6.42928 4.62122C6.31193 4.904 6.11337 5.14563 5.8587 5.31556C5.60402 5.48549 5.30468 5.57609 4.99852 5.57589H4.99952ZM6.3355 15.3397H3.66254V6.75087H6.3365V15.3397H6.3355ZM17.6663 0.000976562H2.32556C1.58957 0.000976562 0.996582 0.580967 0.996582 1.29796V16.7037C0.996582 17.4207 1.59057 18.0007 2.32456 18.0007H17.6623C18.3963 18.0007 18.9963 17.4207 18.9963 16.7037V1.29796C18.9963 0.580967 18.3963 0.000976562 17.6623 0.000976562H17.6653H17.6663Z" fill="#9093B1"/>
</svg>
