<svg width="24" height="20" viewBox="0 0 24 20" fill="none" xmlns="http://www.w3.org/2000/svg">
<path d="M23.6431 2.93655C22.8081 3.30655 21.9112 3.55654 20.9682 3.66954C21.9412 3.08734 22.6691 2.17103 23.0161 1.09158C22.102 1.63456 21.1015 2.01676 20.0582 2.22157C19.3566 1.47244 18.4273 0.975911 17.4146 0.809062C16.4018 0.642212 15.3624 0.814379 14.4575 1.29883C13.5527 1.78329 12.8331 2.55292 12.4105 3.48825C11.9879 4.42358 11.8859 5.47226 12.1203 6.4715C10.268 6.3785 8.45601 5.89706 6.80183 5.05843C5.14765 4.21979 3.6883 3.04271 2.51847 1.60358C2.11848 2.29356 1.88848 3.09355 1.88848 3.94554C1.88804 4.71252 2.07691 5.46776 2.43835 6.14424C2.79979 6.82071 3.32262 7.39752 3.96045 7.82348C3.22074 7.79994 2.49735 7.60006 1.85049 7.24049V7.30048C1.85041 8.37621 2.22251 9.41883 2.90365 10.2514C3.58479 11.084 4.53301 11.6553 5.58743 11.8684C4.90122 12.0541 4.18179 12.0815 3.48346 11.9484C3.78095 12.874 4.36044 13.6834 5.1408 14.2633C5.92116 14.8432 6.86332 15.1645 7.83539 15.1824C6.18525 16.4778 4.14734 17.1804 2.04948 17.1773C1.67787 17.1774 1.30657 17.1557 0.9375 17.1123C3.06694 18.4815 5.54577 19.2081 8.07739 19.2053C16.6472 19.2053 21.3322 12.1074 21.3322 5.95151C21.3322 5.75151 21.3272 5.54951 21.3182 5.34952C22.2295 4.6905 23.0161 3.87443 23.6411 2.93955L23.6431 2.93655Z" fill="#9093B1"/>
</svg>
