<svg width="36" height="36" viewBox="0 0 36 36" fill="none" xmlns="http://www.w3.org/2000/svg">
<path d="M36 16.943C36 17.6461 36 18.3492 36 19.0523C35.9791 19.1534 35.9477 19.2534 35.9408 19.3557C35.7653 21.8671 35.1145 24.2553 33.8826 26.4459C30.567 32.3415 25.5116 35.5514 18.756 35.9675C15.5229 36.1662 12.4281 35.4735 9.59244 33.8942C3.66895 30.5948 0.454435 25.5267 0.0337354 18.7583C-0.168479 15.5124 0.547407 12.4153 2.11631 9.56103C4.9078 4.48242 9.16709 1.37948 14.8663 0.283565C15.5531 0.15108 16.2539 0.0929722 16.9477 0C17.6508 0 18.3539 0 19.057 0C19.1593 0.0209187 19.2604 0.053459 19.3627 0.0604319C21.1965 0.189431 22.9816 0.568293 24.669 1.29231C30.7413 3.8967 34.4509 8.4349 35.7223 14.9337C35.8513 15.5972 35.9082 16.2736 36 16.943ZM12.8639 17.9611C12.8639 19.6474 12.8592 21.3325 12.8651 23.0188C12.8697 24.1507 13.8099 24.7457 14.8186 24.2437C18.168 22.5771 21.5126 20.9013 24.8573 19.2267C25.3617 18.9745 25.7103 18.5933 25.7092 18.0017C25.708 17.3974 25.3605 17.0197 24.8352 16.7582C21.5173 15.1068 18.2052 13.4473 14.8884 11.7935C13.789 11.2462 12.8651 11.8191 12.8639 13.044C12.8616 14.6826 12.8639 16.3224 12.8639 17.9611Z" fill="#4A3D68"/>
<path d="M12.8638 17.9612C12.8638 16.3225 12.8615 14.6827 12.865 13.0441C12.8673 11.818 13.7912 11.2462 14.8895 11.7936C18.2062 13.4474 21.5184 15.1069 24.8363 16.7583C25.3616 17.0198 25.7091 17.3975 25.7103 18.0018C25.7114 18.5934 25.3628 18.9746 24.8584 19.2267C21.5126 20.9014 18.169 22.5784 14.8197 24.2438C13.811 24.7458 12.8708 24.1496 12.8661 23.0188C12.8592 21.3337 12.8638 19.6474 12.8638 17.9612Z" fill="white"/>
</svg>
